ISO-10303-21;
HEADER;
/* Generated by software containing ST-Developer
 * from STEP Tools, Inc. (www.steptools.com) 
 */

FILE_DESCRIPTION(
/* description */ ('KiCad electronic assembly'),
/* implementation_level */ '2;1');

FILE_NAME(
/* name */ '3D HACK-PAD Battery cover.step',
/* time_stamp */ '2026-08-26T18:28:18-06:00',
/* author */ (''),
/* organization */ (''),
/* preprocessor_version */ 'ST-DEVELOPER v20.1',
/* originating_system */ 'Autodesk Translation Framework v15.8.0.0',
/* authorisation */ '');

FILE_SCHEMA (('AUTOMOTIVE_DESIGN { 1 0 10303 214 3 1 1 }'));
ENDSEC;

DATA;
#10=MECHANICAL_DESIGN_GEOMETRIC_PRESENTATION_REPRESENTATION('',(#13),#1667);
#11=SHAPE_REPRESENTATION_RELATIONSHIP('SRR','None',#1673,#12);
#12=ADVANCED_BREP_SHAPE_REPRESENTATION('',(#14),#1666);
#13=STYLED_ITEM('',(#1683),#14);
#14=MANIFOLD_SOLID_BREP('Body3',#1043);
#15=FACE_BOUND('',#128,.T.);
#16=FACE_BOUND('',#129,.T.);
#17=FACE_BOUND('',#130,.T.);
#18=FACE_BOUND('',#172,.T.);
#19=FACE_BOUND('',#177,.T.);
#20=PLANE('',#1053);
#21=PLANE('',#1054);
#22=PLANE('',#1055);
#23=PLANE('',#1056);
#24=PLANE('',#1058);
#25=PLANE('',#1059);
#26=PLANE('',#1060);
#27=PLANE('',#1061);
#28=PLANE('',#1062);
#29=PLANE('',#1063);
#30=PLANE('',#1064);
#31=PLANE('',#1065);
#32=PLANE('',#1066);
#33=PLANE('',#1067);
#34=PLANE('',#1068);
#35=PLANE('',#1069);
#36=PLANE('',#1070);
#37=PLANE('',#1071);
#38=PLANE('',#1072);
#39=PLANE('',#1073);
#40=PLANE('',#1074);
#41=PLANE('',#1075);
#42=PLANE('',#1076);
#43=PLANE('',#1077);
#44=PLANE('',#1078);
#45=PLANE('',#1079);
#46=PLANE('',#1080);
#47=PLANE('',#1081);
#48=PLANE('',#1082);
#49=PLANE('',#1083);
#50=PLANE('',#1084);
#51=PLANE('',#1085);
#52=PLANE('',#1086);
#53=PLANE('',#1087);
#54=PLANE('',#1088);
#55=PLANE('',#1089);
#56=PLANE('',#1090);
#57=PLANE('',#1091);
#58=PLANE('',#1092);
#59=PLANE('',#1093);
#60=PLANE('',#1094);
#61=PLANE('',#1095);
#62=PLANE('',#1101);
#63=PLANE('',#1102);
#64=PLANE('',#1103);
#65=PLANE('',#1104);
#66=PLANE('',#1105);
#67=PLANE('',#1106);
#68=PLANE('',#1107);
#69=FACE_OUTER_BOUND('',#122,.T.);
#70=FACE_OUTER_BOUND('',#123,.T.);
#71=FACE_OUTER_BOUND('',#124,.T.);
#72=FACE_OUTER_BOUND('',#125,.T.);
#73=FACE_OUTER_BOUND('',#126,.T.);
#74=FACE_OUTER_BOUND('',#127,.T.);
#75=FACE_OUTER_BOUND('',#131,.T.);
#76=FACE_OUTER_BOUND('',#132,.T.);
#77=FACE_OUTER_BOUND('',#133,.T.);
#78=FACE_OUTER_BOUND('',#134,.T.);
#79=FACE_OUTER_BOUND('',#135,.T.);
#80=FACE_OUTER_BOUND('',#136,.T.);
#81=FACE_OUTER_BOUND('',#137,.T.);
#82=FACE_OUTER_BOUND('',#138,.T.);
#83=FACE_OUTER_BOUND('',#139,.T.);
#84=FACE_OUTER_BOUND('',#140,.T.);
#85=FACE_OUTER_BOUND('',#141,.T.);
#86=FACE_OUTER_BOUND('',#142,.T.);
#87=FACE_OUTER_BOUND('',#143,.T.);
#88=FACE_OUTER_BOUND('',#144,.T.);
#89=FACE_OUTER_BOUND('',#145,.T.);
#90=FACE_OUTER_BOUND('',#146,.T.);
#91=FACE_OUTER_BOUND('',#147,.T.);
#92=FACE_OUTER_BOUND('',#148,.T.);
#93=FACE_OUTER_BOUND('',#149,.T.);
#94=FACE_OUTER_BOUND('',#150,.T.);
#95=FACE_OUTER_BOUND('',#151,.T.);
#96=FACE_OUTER_BOUND('',#152,.T.);
#97=FACE_OUTER_BOUND('',#153,.T.);
#98=FACE_OUTER_BOUND('',#154,.T.);
#99=FACE_OUTER_BOUND('',#155,.T.);
#100=FACE_OUTER_BOUND('',#156,.T.);
#101=FACE_OUTER_BOUND('',#157,.T.);
#102=FACE_OUTER_BOUND('',#158,.T.);
#103=FACE_OUTER_BOUND('',#159,.T.);
#104=FACE_OUTER_BOUND('',#160,.T.);
#105=FACE_OUTER_BOUND('',#161,.T.);
#106=FACE_OUTER_BOUND('',#162,.T.);
#107=FACE_OUTER_BOUND('',#163,.T.);
#108=FACE_OUTER_BOUND('',#164,.T.);
#109=FACE_OUTER_BOUND('',#165,.T.);
#110=FACE_OUTER_BOUND('',#166,.T.);
#111=FACE_OUTER_BOUND('',#167,.T.);
#112=FACE_OUTER_BOUND('',#168,.T.);
#113=FACE_OUTER_BOUND('',#169,.T.);
#114=FACE_OUTER_BOUND('',#170,.T.);
#115=FACE_OUTER_BOUND('',#171,.T.);
#116=FACE_OUTER_BOUND('',#173,.T.);
#117=FACE_OUTER_BOUND('',#174,.T.);
#118=FACE_OUTER_BOUND('',#175,.T.);
#119=FACE_OUTER_BOUND('',#176,.T.);
#120=FACE_OUTER_BOUND('',#178,.T.);
#121=FACE_OUTER_BOUND('',#179,.T.);
#122=EDGE_LOOP('',(#698,#699,#700,#701,#702,#703));
#123=EDGE_LOOP('',(#704,#705,#706,#707,#708,#709));
#124=EDGE_LOOP('',(#710,#711,#712,#713));
#125=EDGE_LOOP('',(#714,#715,#716,#717));
#126=EDGE_LOOP('',(#718,#719,#720,#721));
#127=EDGE_LOOP('',(#722,#723,#724,#725,#726,#727));
#128=EDGE_LOOP('',(#728));
#129=EDGE_LOOP('',(#729,#730,#731,#732,#733,#734,#735,#736,#737,#738,#739,
#740,#741,#742,#743,#744,#745,#746,#747,#748,#749,#750,#751,#752,#753,#754,
#755,#756,#757,#758,#759,#760));
#130=EDGE_LOOP('',(#761,#762,#763,#764));
#131=EDGE_LOOP('',(#765,#766,#767,#768));
#132=EDGE_LOOP('',(#769,#770,#771,#772));
#133=EDGE_LOOP('',(#773,#774,#775,#776));
#134=EDGE_LOOP('',(#777,#778,#779,#780));
#135=EDGE_LOOP('',(#781,#782,#783,#784));
#136=EDGE_LOOP('',(#785,#786,#787,#788));
#137=EDGE_LOOP('',(#789,#790,#791,#792));
#138=EDGE_LOOP('',(#793,#794,#795,#796));
#139=EDGE_LOOP('',(#797,#798,#799,#800));
#140=EDGE_LOOP('',(#801,#802,#803,#804));
#141=EDGE_LOOP('',(#805,#806,#807,#808));
#142=EDGE_LOOP('',(#809,#810,#811,#812));
#143=EDGE_LOOP('',(#813,#814,#815,#816));
#144=EDGE_LOOP('',(#817,#818,#819,#820));
#145=EDGE_LOOP('',(#821,#822,#823,#824));
#146=EDGE_LOOP('',(#825,#826,#827,#828));
#147=EDGE_LOOP('',(#829,#830,#831,#832));
#148=EDGE_LOOP('',(#833,#834,#835,#836));
#149=EDGE_LOOP('',(#837,#838,#839,#840));
#150=EDGE_LOOP('',(#841,#842,#843,#844));
#151=EDGE_LOOP('',(#845,#846,#847,#848));
#152=EDGE_LOOP('',(#849,#850,#851,#852));
#153=EDGE_LOOP('',(#853,#854,#855,#856));
#154=EDGE_LOOP('',(#857,#858,#859,#860));
#155=EDGE_LOOP('',(#861,#862,#863,#864));
#156=EDGE_LOOP('',(#865,#866,#867,#868));
#157=EDGE_LOOP('',(#869,#870,#871,#872));
#158=EDGE_LOOP('',(#873,#874,#875,#876));
#159=EDGE_LOOP('',(#877,#878,#879,#880));
#160=EDGE_LOOP('',(#881,#882,#883,#884));
#161=EDGE_LOOP('',(#885,#886,#887,#888));
#162=EDGE_LOOP('',(#889,#890,#891,#892));
#163=EDGE_LOOP('',(#893,#894,#895,#896));
#164=EDGE_LOOP('',(#897,#898,#899,#900));
#165=EDGE_LOOP('',(#901,#902,#903,#904));
#166=EDGE_LOOP('',(#905,#906,#907,#908));
#167=EDGE_LOOP('',(#909,#910,#911,#912));
#168=EDGE_LOOP('',(#913,#914,#915,#916,#917,#918,#919,#920,#921,#922,#923,
#924,#925,#926,#927,#928,#929,#930,#931,#932,#933,#934,#935,#936,#937,#938,
#939,#940,#941,#942,#943,#944));
#169=EDGE_LOOP('',(#945,#946,#947,#948));
#170=EDGE_LOOP('',(#949,#950,#951,#952));
#171=EDGE_LOOP('',(#953));
#172=EDGE_LOOP('',(#954));
#173=EDGE_LOOP('',(#955,#956,#957,#958));
#174=EDGE_LOOP('',(#959,#960,#961,#962));
#175=EDGE_LOOP('',(#963,#964,#965,#966,#967,#968,#969,#970));
#176=EDGE_LOOP('',(#971,#972,#973,#974,#975,#976));
#177=EDGE_LOOP('',(#977));
#178=EDGE_LOOP('',(#978,#979,#980,#981));
#179=EDGE_LOOP('',(#982,#983,#984,#985));
#180=LINE('',#1376,#314);
#181=LINE('',#1380,#315);
#182=LINE('',#1383,#316);
#183=LINE('',#1389,#317);
#184=LINE('',#1393,#318);
#185=LINE('',#1396,#319);
#186=LINE('',#1399,#320);
#187=LINE('',#1401,#321);
#188=LINE('',#1402,#322);
#189=LINE('',#1405,#323);
#190=LINE('',#1407,#324);
#191=LINE('',#1408,#325);
#192=LINE('',#1410,#326);
#193=LINE('',#1411,#327);
#194=LINE('',#1414,#328);
#195=LINE('',#1415,#329);
#196=LINE('',#1420,#330);
#197=LINE('',#1422,#331);
#198=LINE('',#1424,#332);
#199=LINE('',#1426,#333);
#200=LINE('',#1428,#334);
#201=LINE('',#1430,#335);
#202=LINE('',#1432,#336);
#203=LINE('',#1434,#337);
#204=LINE('',#1436,#338);
#205=LINE('',#1438,#339);
#206=LINE('',#1440,#340);
#207=LINE('',#1442,#341);
#208=LINE('',#1444,#342);
#209=LINE('',#1446,#343);
#210=LINE('',#1448,#344);
#211=LINE('',#1450,#345);
#212=LINE('',#1452,#346);
#213=LINE('',#1454,#347);
#214=LINE('',#1456,#348);
#215=LINE('',#1458,#349);
#216=LINE('',#1460,#350);
#217=LINE('',#1462,#351);
#218=LINE('',#1464,#352);
#219=LINE('',#1466,#353);
#220=LINE('',#1468,#354);
#221=LINE('',#1470,#355);
#222=LINE('',#1472,#356);
#223=LINE('',#1474,#357);
#224=LINE('',#1476,#358);
#225=LINE('',#1478,#359);
#226=LINE('',#1480,#360);
#227=LINE('',#1481,#361);
#228=LINE('',#1484,#362);
#229=LINE('',#1486,#363);
#230=LINE('',#1488,#364);
#231=LINE('',#1489,#365);
#232=LINE('',#1492,#366);
#233=LINE('',#1494,#367);
#234=LINE('',#1495,#368);
#235=LINE('',#1498,#369);
#236=LINE('',#1499,#370);
#237=LINE('',#1502,#371);
#238=LINE('',#1503,#372);
#239=LINE('',#1505,#373);
#240=LINE('',#1509,#374);
#241=LINE('',#1511,#375);
#242=LINE('',#1512,#376);
#243=LINE('',#1515,#377);
#244=LINE('',#1516,#378);
#245=LINE('',#1519,#379);
#246=LINE('',#1520,#380);
#247=LINE('',#1523,#381);
#248=LINE('',#1524,#382);
#249=LINE('',#1527,#383);
#250=LINE('',#1528,#384);
#251=LINE('',#1531,#385);
#252=LINE('',#1532,#386);
#253=LINE('',#1535,#387);
#254=LINE('',#1536,#388);
#255=LINE('',#1539,#389);
#256=LINE('',#1540,#390);
#257=LINE('',#1543,#391);
#258=LINE('',#1544,#392);
#259=LINE('',#1547,#393);
#260=LINE('',#1548,#394);
#261=LINE('',#1551,#395);
#262=LINE('',#1552,#396);
#263=LINE('',#1555,#397);
#264=LINE('',#1556,#398);
#265=LINE('',#1559,#399);
#266=LINE('',#1560,#400);
#267=LINE('',#1563,#401);
#268=LINE('',#1564,#402);
#269=LINE('',#1567,#403);
#270=LINE('',#1568,#404);
#271=LINE('',#1571,#405);
#272=LINE('',#1572,#406);
#273=LINE('',#1575,#407);
#274=LINE('',#1576,#408);
#275=LINE('',#1579,#409);
#276=LINE('',#1580,#410);
#277=LINE('',#1583,#411);
#278=LINE('',#1584,#412);
#279=LINE('',#1587,#413);
#280=LINE('',#1588,#414);
#281=LINE('',#1591,#415);
#282=LINE('',#1592,#416);
#283=LINE('',#1595,#417);
#284=LINE('',#1596,#418);
#285=LINE('',#1599,#419);
#286=LINE('',#1600,#420);
#287=LINE('',#1603,#421);
#288=LINE('',#1604,#422);
#289=LINE('',#1607,#423);
#290=LINE('',#1608,#424);
#291=LINE('',#1611,#425);
#292=LINE('',#1612,#426);
#293=LINE('',#1615,#427);
#294=LINE('',#1616,#428);
#295=LINE('',#1619,#429);
#296=LINE('',#1620,#430);
#297=LINE('',#1623,#431);
#298=LINE('',#1624,#432);
#299=LINE('',#1627,#433);
#300=LINE('',#1628,#434);
#301=LINE('',#1631,#435);
#302=LINE('',#1632,#436);
#303=LINE('',#1634,#437);
#304=LINE('',#1640,#438);
#305=LINE('',#1644,#439);
#306=LINE('',#1649,#440);
#307=LINE('',#1650,#441);
#308=LINE('',#1652,#442);
#309=LINE('',#1655,#443);
#310=LINE('',#1656,#444);
#311=LINE('',#1659,#445);
#312=LINE('',#1660,#446);
#313=LINE('',#1662,#447);
#314=VECTOR('',#1114,10.);
#315=VECTOR('',#1117,10.);
#316=VECTOR('',#1120,10.);
#317=VECTOR('',#1125,10.);
#318=VECTOR('',#1128,10.);
#319=VECTOR('',#1131,10.);
#320=VECTOR('',#1134,10.);
#321=VECTOR('',#1135,10.);
#322=VECTOR('',#1136,10.);
#323=VECTOR('',#1139,10.);
#324=VECTOR('',#1140,10.);
#325=VECTOR('',#1141,10.);
#326=VECTOR('',#1144,10.);
#327=VECTOR('',#1145,10.);
#328=VECTOR('',#1148,10.);
#329=VECTOR('',#1149,10.);
#330=VECTOR('',#1152,10.);
#331=VECTOR('',#1153,10.);
#332=VECTOR('',#1154,10.);
#333=VECTOR('',#1155,10.);
#334=VECTOR('',#1156,10.);
#335=VECTOR('',#1157,10.);
#336=VECTOR('',#1158,10.);
#337=VECTOR('',#1159,10.);
#338=VECTOR('',#1160,10.);
#339=VECTOR('',#1161,10.);
#340=VECTOR('',#1162,10.);
#341=VECTOR('',#1163,10.);
#342=VECTOR('',#1164,10.);
#343=VECTOR('',#1165,10.);
#344=VECTOR('',#1166,10.);
#345=VECTOR('',#1167,10.);
#346=VECTOR('',#1168,10.);
#347=VECTOR('',#1169,10.);
#348=VECTOR('',#1170,10.);
#349=VECTOR('',#1171,10.);
#350=VECTOR('',#1172,10.);
#351=VECTOR('',#1173,10.);
#352=VECTOR('',#1174,10.);
#353=VECTOR('',#1175,10.);
#354=VECTOR('',#1176,10.);
#355=VECTOR('',#1177,10.);
#356=VECTOR('',#1178,10.);
#357=VECTOR('',#1179,10.);
#358=VECTOR('',#1180,10.);
#359=VECTOR('',#1181,10.);
#360=VECTOR('',#1182,10.);
#361=VECTOR('',#1183,10.);
#362=VECTOR('',#1184,10.);
#363=VECTOR('',#1185,10.);
#364=VECTOR('',#1186,10.);
#365=VECTOR('',#1187,10.);
#366=VECTOR('',#1190,10.);
#367=VECTOR('',#1191,10.);
#368=VECTOR('',#1192,10.);
#369=VECTOR('',#1195,10.);
#370=VECTOR('',#1196,10.);
#371=VECTOR('',#1199,10.);
#372=VECTOR('',#1200,10.);
#373=VECTOR('',#1203,10.);
#374=VECTOR('',#1208,10.);
#375=VECTOR('',#1209,10.);
#376=VECTOR('',#1210,10.);
#377=VECTOR('',#1213,10.);
#378=VECTOR('',#1214,10.);
#379=VECTOR('',#1217,10.);
#380=VECTOR('',#1218,10.);
#381=VECTOR('',#1221,10.);
#382=VECTOR('',#1222,10.);
#383=VECTOR('',#1225,10.);
#384=VECTOR('',#1226,10.);
#385=VECTOR('',#1229,10.);
#386=VECTOR('',#1230,10.);
#387=VECTOR('',#1233,10.);
#388=VECTOR('',#1234,10.);
#389=VECTOR('',#1237,10.);
#390=VECTOR('',#1238,10.);
#391=VECTOR('',#1241,10.);
#392=VECTOR('',#1242,10.);
#393=VECTOR('',#1245,10.);
#394=VECTOR('',#1246,10.);
#395=VECTOR('',#1249,10.);
#396=VECTOR('',#1250,10.);
#397=VECTOR('',#1253,10.);
#398=VECTOR('',#1254,10.);
#399=VECTOR('',#1257,10.);
#400=VECTOR('',#1258,10.);
#401=VECTOR('',#1261,10.);
#402=VECTOR('',#1262,10.);
#403=VECTOR('',#1265,10.);
#404=VECTOR('',#1266,10.);
#405=VECTOR('',#1269,10.);
#406=VECTOR('',#1270,10.);
#407=VECTOR('',#1273,10.);
#408=VECTOR('',#1274,10.);
#409=VECTOR('',#1277,10.);
#410=VECTOR('',#1278,10.);
#411=VECTOR('',#1281,10.);
#412=VECTOR('',#1282,10.);
#413=VECTOR('',#1285,10.);
#414=VECTOR('',#1286,10.);
#415=VECTOR('',#1289,10.);
#416=VECTOR('',#1290,10.);
#417=VECTOR('',#1293,10.);
#418=VECTOR('',#1294,10.);
#419=VECTOR('',#1297,10.);
#420=VECTOR('',#1298,10.);
#421=VECTOR('',#1301,10.);
#422=VECTOR('',#1302,10.);
#423=VECTOR('',#1305,10.);
#424=VECTOR('',#1306,10.);
#425=VECTOR('',#1309,10.);
#426=VECTOR('',#1310,10.);
#427=VECTOR('',#1313,10.);
#428=VECTOR('',#1314,10.);
#429=VECTOR('',#1317,10.);
#430=VECTOR('',#1318,10.);
#431=VECTOR('',#1321,10.);
#432=VECTOR('',#1322,10.);
#433=VECTOR('',#1325,10.);
#434=VECTOR('',#1326,10.);
#435=VECTOR('',#1329,10.);
#436=VECTOR('',#1330,10.);
#437=VECTOR('',#1333,10.);
#438=VECTOR('',#1340,1.0625);
#439=VECTOR('',#1345,2.0625);
#440=VECTOR('',#1352,10.);
#441=VECTOR('',#1353,10.);
#442=VECTOR('',#1356,10.);
#443=VECTOR('',#1359,10.);
#444=VECTOR('',#1360,10.);
#445=VECTOR('',#1363,10.);
#446=VECTOR('',#1364,10.);
#447=VECTOR('',#1367,10.);
#448=CIRCLE('',#1046,9.99999999999999);
#449=CIRCLE('',#1047,9.99999999999999);
#450=CIRCLE('',#1048,9.99999999999999);
#451=CIRCLE('',#1050,10.);
#452=CIRCLE('',#1051,10.);
#453=CIRCLE('',#1052,10.);
#454=CIRCLE('',#1057,2.0625);
#455=CIRCLE('',#1097,1.0625);
#456=CIRCLE('',#1098,1.0625);
#457=CIRCLE('',#1100,2.0625);
#458=VERTEX_POINT('',#1372);
#459=VERTEX_POINT('',#1373);
#460=VERTEX_POINT('',#1375);
#461=VERTEX_POINT('',#1377);
#462=VERTEX_POINT('',#1379);
#463=VERTEX_POINT('',#1381);
#464=VERTEX_POINT('',#1385);
#465=VERTEX_POINT('',#1386);
#466=VERTEX_POINT('',#1388);
#467=VERTEX_POINT('',#1390);
#468=VERTEX_POINT('',#1392);
#469=VERTEX_POINT('',#1394);
#470=VERTEX_POINT('',#1398);
#471=VERTEX_POINT('',#1400);
#472=VERTEX_POINT('',#1404);
#473=VERTEX_POINT('',#1406);
#474=VERTEX_POINT('',#1413);
#475=VERTEX_POINT('',#1416);
#476=VERTEX_POINT('',#1418);
#477=VERTEX_POINT('',#1419);
#478=VERTEX_POINT('',#1421);
#479=VERTEX_POINT('',#1423);
#480=VERTEX_POINT('',#1425);
#481=VERTEX_POINT('',#1427);
#482=VERTEX_POINT('',#1429);
#483=VERTEX_POINT('',#1431);
#484=VERTEX_POINT('',#1433);
#485=VERTEX_POINT('',#1435);
#486=VERTEX_POINT('',#1437);
#487=VERTEX_POINT('',#1439);
#488=VERTEX_POINT('',#1441);
#489=VERTEX_POINT('',#1443);
#490=VERTEX_POINT('',#1445);
#491=VERTEX_POINT('',#1447);
#492=VERTEX_POINT('',#1449);
#493=VERTEX_POINT('',#1451);
#494=VERTEX_POINT('',#1453);
#495=VERTEX_POINT('',#1455);
#496=VERTEX_POINT('',#1457);
#497=VERTEX_POINT('',#1459);
#498=VERTEX_POINT('',#1461);
#499=VERTEX_POINT('',#1463);
#500=VERTEX_POINT('',#1465);
#501=VERTEX_POINT('',#1467);
#502=VERTEX_POINT('',#1469);
#503=VERTEX_POINT('',#1471);
#504=VERTEX_POINT('',#1473);
#505=VERTEX_POINT('',#1475);
#506=VERTEX_POINT('',#1477);
#507=VERTEX_POINT('',#1479);
#508=VERTEX_POINT('',#1482);
#509=VERTEX_POINT('',#1483);
#510=VERTEX_POINT('',#1485);
#511=VERTEX_POINT('',#1487);
#512=VERTEX_POINT('',#1491);
#513=VERTEX_POINT('',#1493);
#514=VERTEX_POINT('',#1497);
#515=VERTEX_POINT('',#1501);
#516=VERTEX_POINT('',#1508);
#517=VERTEX_POINT('',#1510);
#518=VERTEX_POINT('',#1514);
#519=VERTEX_POINT('',#1518);
#520=VERTEX_POINT('',#1522);
#521=VERTEX_POINT('',#1526);
#522=VERTEX_POINT('',#1530);
#523=VERTEX_POINT('',#1534);
#524=VERTEX_POINT('',#1538);
#525=VERTEX_POINT('',#1542);
#526=VERTEX_POINT('',#1546);
#527=VERTEX_POINT('',#1550);
#528=VERTEX_POINT('',#1554);
#529=VERTEX_POINT('',#1558);
#530=VERTEX_POINT('',#1562);
#531=VERTEX_POINT('',#1566);
#532=VERTEX_POINT('',#1570);
#533=VERTEX_POINT('',#1574);
#534=VERTEX_POINT('',#1578);
#535=VERTEX_POINT('',#1582);
#536=VERTEX_POINT('',#1586);
#537=VERTEX_POINT('',#1590);
#538=VERTEX_POINT('',#1594);
#539=VERTEX_POINT('',#1598);
#540=VERTEX_POINT('',#1602);
#541=VERTEX_POINT('',#1606);
#542=VERTEX_POINT('',#1610);
#543=VERTEX_POINT('',#1614);
#544=VERTEX_POINT('',#1618);
#545=VERTEX_POINT('',#1622);
#546=VERTEX_POINT('',#1626);
#547=VERTEX_POINT('',#1630);
#548=VERTEX_POINT('',#1637);
#549=VERTEX_POINT('',#1639);
#550=VERTEX_POINT('',#1643);
#551=VERTEX_POINT('',#1648);
#552=VERTEX_POINT('',#1654);
#553=VERTEX_POINT('',#1658);
#554=EDGE_CURVE('',#458,#459,#448,.T.);
#555=EDGE_CURVE('',#460,#458,#180,.T.);
#556=EDGE_CURVE('',#461,#460,#449,.T.);
#557=EDGE_CURVE('',#462,#461,#181,.T.);
#558=EDGE_CURVE('',#463,#462,#450,.T.);
#559=EDGE_CURVE('',#459,#463,#182,.T.);
#560=EDGE_CURVE('',#464,#465,#451,.T.);
#561=EDGE_CURVE('',#466,#464,#183,.T.);
#562=EDGE_CURVE('',#467,#466,#452,.T.);
#563=EDGE_CURVE('',#468,#467,#184,.T.);
#564=EDGE_CURVE('',#469,#468,#453,.T.);
#565=EDGE_CURVE('',#469,#465,#185,.T.);
#566=EDGE_CURVE('',#470,#458,#186,.T.);
#567=EDGE_CURVE('',#471,#470,#187,.T.);
#568=EDGE_CURVE('',#460,#471,#188,.T.);
#569=EDGE_CURVE('',#472,#464,#189,.T.);
#570=EDGE_CURVE('',#473,#472,#190,.T.);
#571=EDGE_CURVE('',#473,#466,#191,.T.);
#572=EDGE_CURVE('',#463,#465,#192,.T.);
#573=EDGE_CURVE('',#459,#469,#193,.T.);
#574=EDGE_CURVE('',#468,#474,#194,.T.);
#575=EDGE_CURVE('',#474,#470,#195,.T.);
#576=EDGE_CURVE('',#475,#475,#454,.T.);
#577=EDGE_CURVE('',#476,#477,#196,.T.);
#578=EDGE_CURVE('',#477,#478,#197,.T.);
#579=EDGE_CURVE('',#478,#479,#198,.T.);
#580=EDGE_CURVE('',#479,#480,#199,.T.);
#581=EDGE_CURVE('',#480,#481,#200,.T.);
#582=EDGE_CURVE('',#481,#482,#201,.T.);
#583=EDGE_CURVE('',#482,#483,#202,.T.);
#584=EDGE_CURVE('',#483,#484,#203,.T.);
#585=EDGE_CURVE('',#484,#485,#204,.T.);
#586=EDGE_CURVE('',#485,#486,#205,.T.);
#587=EDGE_CURVE('',#486,#487,#206,.T.);
#588=EDGE_CURVE('',#487,#488,#207,.T.);
#589=EDGE_CURVE('',#488,#489,#208,.T.);
#590=EDGE_CURVE('',#489,#490,#209,.T.);
#591=EDGE_CURVE('',#490,#491,#210,.T.);
#592=EDGE_CURVE('',#491,#492,#211,.T.);
#593=EDGE_CURVE('',#492,#493,#212,.T.);
#594=EDGE_CURVE('',#493,#494,#213,.T.);
#595=EDGE_CURVE('',#494,#495,#214,.T.);
#596=EDGE_CURVE('',#495,#496,#215,.T.);
#597=EDGE_CURVE('',#496,#497,#216,.T.);
#598=EDGE_CURVE('',#497,#498,#217,.T.);
#599=EDGE_CURVE('',#498,#499,#218,.T.);
#600=EDGE_CURVE('',#499,#500,#219,.T.);
#601=EDGE_CURVE('',#500,#501,#220,.T.);
#602=EDGE_CURVE('',#501,#502,#221,.T.);
#603=EDGE_CURVE('',#502,#503,#222,.T.);
#604=EDGE_CURVE('',#503,#504,#223,.T.);
#605=EDGE_CURVE('',#504,#505,#224,.T.);
#606=EDGE_CURVE('',#505,#506,#225,.T.);
#607=EDGE_CURVE('',#506,#507,#226,.T.);
#608=EDGE_CURVE('',#507,#476,#227,.T.);
#609=EDGE_CURVE('',#508,#509,#228,.T.);
#610=EDGE_CURVE('',#509,#510,#229,.T.);
#611=EDGE_CURVE('',#510,#511,#230,.T.);
#612=EDGE_CURVE('',#511,#508,#231,.T.);
#613=EDGE_CURVE('',#508,#512,#232,.T.);
#614=EDGE_CURVE('',#512,#513,#233,.T.);
#615=EDGE_CURVE('',#509,#513,#234,.T.);
#616=EDGE_CURVE('',#511,#514,#235,.T.);
#617=EDGE_CURVE('',#514,#512,#236,.T.);
#618=EDGE_CURVE('',#510,#515,#237,.T.);
#619=EDGE_CURVE('',#515,#514,#238,.T.);
#620=EDGE_CURVE('',#513,#515,#239,.T.);
#621=EDGE_CURVE('',#476,#516,#240,.T.);
#622=EDGE_CURVE('',#516,#517,#241,.T.);
#623=EDGE_CURVE('',#477,#517,#242,.T.);
#624=EDGE_CURVE('',#507,#518,#243,.T.);
#625=EDGE_CURVE('',#518,#516,#244,.T.);
#626=EDGE_CURVE('',#506,#519,#245,.T.);
#627=EDGE_CURVE('',#519,#518,#246,.T.);
#628=EDGE_CURVE('',#505,#520,#247,.T.);
#629=EDGE_CURVE('',#520,#519,#248,.T.);
#630=EDGE_CURVE('',#504,#521,#249,.T.);
#631=EDGE_CURVE('',#521,#520,#250,.T.);
#632=EDGE_CURVE('',#503,#522,#251,.T.);
#633=EDGE_CURVE('',#522,#521,#252,.T.);
#634=EDGE_CURVE('',#502,#523,#253,.T.);
#635=EDGE_CURVE('',#523,#522,#254,.T.);
#636=EDGE_CURVE('',#501,#524,#255,.T.);
#637=EDGE_CURVE('',#524,#523,#256,.T.);
#638=EDGE_CURVE('',#500,#525,#257,.T.);
#639=EDGE_CURVE('',#525,#524,#258,.T.);
#640=EDGE_CURVE('',#499,#526,#259,.T.);
#641=EDGE_CURVE('',#526,#525,#260,.T.);
#642=EDGE_CURVE('',#498,#527,#261,.T.);
#643=EDGE_CURVE('',#527,#526,#262,.T.);
#644=EDGE_CURVE('',#497,#528,#263,.T.);
#645=EDGE_CURVE('',#528,#527,#264,.T.);
#646=EDGE_CURVE('',#496,#529,#265,.T.);
#647=EDGE_CURVE('',#529,#528,#266,.T.);
#648=EDGE_CURVE('',#495,#530,#267,.T.);
#649=EDGE_CURVE('',#530,#529,#268,.T.);
#650=EDGE_CURVE('',#494,#531,#269,.T.);
#651=EDGE_CURVE('',#531,#530,#270,.T.);
#652=EDGE_CURVE('',#493,#532,#271,.T.);
#653=EDGE_CURVE('',#532,#531,#272,.T.);
#654=EDGE_CURVE('',#492,#533,#273,.T.);
#655=EDGE_CURVE('',#533,#532,#274,.T.);
#656=EDGE_CURVE('',#491,#534,#275,.T.);
#657=EDGE_CURVE('',#534,#533,#276,.T.);
#658=EDGE_CURVE('',#490,#535,#277,.T.);
#659=EDGE_CURVE('',#535,#534,#278,.T.);
#660=EDGE_CURVE('',#489,#536,#279,.T.);
#661=EDGE_CURVE('',#536,#535,#280,.T.);
#662=EDGE_CURVE('',#488,#537,#281,.T.);
#663=EDGE_CURVE('',#537,#536,#282,.T.);
#664=EDGE_CURVE('',#487,#538,#283,.T.);
#665=EDGE_CURVE('',#538,#537,#284,.T.);
#666=EDGE_CURVE('',#486,#539,#285,.T.);
#667=EDGE_CURVE('',#539,#538,#286,.T.);
#668=EDGE_CURVE('',#485,#540,#287,.T.);
#669=EDGE_CURVE('',#540,#539,#288,.T.);
#670=EDGE_CURVE('',#484,#541,#289,.T.);
#671=EDGE_CURVE('',#541,#540,#290,.T.);
#672=EDGE_CURVE('',#483,#542,#291,.T.);
#673=EDGE_CURVE('',#542,#541,#292,.T.);
#674=EDGE_CURVE('',#482,#543,#293,.T.);
#675=EDGE_CURVE('',#543,#542,#294,.T.);
#676=EDGE_CURVE('',#481,#544,#295,.T.);
#677=EDGE_CURVE('',#544,#543,#296,.T.);
#678=EDGE_CURVE('',#480,#545,#297,.T.);
#679=EDGE_CURVE('',#545,#544,#298,.T.);
#680=EDGE_CURVE('',#479,#546,#299,.T.);
#681=EDGE_CURVE('',#546,#545,#300,.T.);
#682=EDGE_CURVE('',#478,#547,#301,.T.);
#683=EDGE_CURVE('',#547,#546,#302,.T.);
#684=EDGE_CURVE('',#517,#547,#303,.T.);
#685=EDGE_CURVE('',#548,#548,#455,.T.);
#686=EDGE_CURVE('',#548,#549,#304,.T.);
#687=EDGE_CURVE('',#549,#549,#456,.T.);
#688=EDGE_CURVE('',#475,#550,#305,.T.);
#689=EDGE_CURVE('',#550,#550,#457,.T.);
#690=EDGE_CURVE('',#551,#467,#306,.T.);
#691=EDGE_CURVE('',#551,#474,#307,.T.);
#692=EDGE_CURVE('',#471,#551,#308,.T.);
#693=EDGE_CURVE('',#552,#473,#309,.T.);
#694=EDGE_CURVE('',#552,#461,#310,.T.);
#695=EDGE_CURVE('',#553,#462,#311,.T.);
#696=EDGE_CURVE('',#472,#553,#312,.T.);
#697=EDGE_CURVE('',#553,#552,#313,.T.);
#698=ORIENTED_EDGE('',*,*,#554,.F.);
#699=ORIENTED_EDGE('',*,*,#555,.F.);
#700=ORIENTED_EDGE('',*,*,#556,.F.);
#701=ORIENTED_EDGE('',*,*,#557,.F.);
#702=ORIENTED_EDGE('',*,*,#558,.F.);
#703=ORIENTED_EDGE('',*,*,#559,.F.);
#704=ORIENTED_EDGE('',*,*,#560,.F.);
#705=ORIENTED_EDGE('',*,*,#561,.F.);
#706=ORIENTED_EDGE('',*,*,#562,.F.);
#707=ORIENTED_EDGE('',*,*,#563,.F.);
#708=ORIENTED_EDGE('',*,*,#564,.F.);
#709=ORIENTED_EDGE('',*,*,#565,.T.);
#710=ORIENTED_EDGE('',*,*,#555,.T.);
#711=ORIENTED_EDGE('',*,*,#566,.F.);
#712=ORIENTED_EDGE('',*,*,#567,.F.);
#713=ORIENTED_EDGE('',*,*,#568,.F.);
#714=ORIENTED_EDGE('',*,*,#561,.T.);
#715=ORIENTED_EDGE('',*,*,#569,.F.);
#716=ORIENTED_EDGE('',*,*,#570,.F.);
#717=ORIENTED_EDGE('',*,*,#571,.T.);
#718=ORIENTED_EDGE('',*,*,#559,.T.);
#719=ORIENTED_EDGE('',*,*,#572,.T.);
#720=ORIENTED_EDGE('',*,*,#565,.F.);
#721=ORIENTED_EDGE('',*,*,#573,.F.);
#722=ORIENTED_EDGE('',*,*,#554,.T.);
#723=ORIENTED_EDGE('',*,*,#573,.T.);
#724=ORIENTED_EDGE('',*,*,#564,.T.);
#725=ORIENTED_EDGE('',*,*,#574,.T.);
#726=ORIENTED_EDGE('',*,*,#575,.T.);
#727=ORIENTED_EDGE('',*,*,#566,.T.);
#728=ORIENTED_EDGE('',*,*,#576,.T.);
#729=ORIENTED_EDGE('',*,*,#577,.T.);
#730=ORIENTED_EDGE('',*,*,#578,.T.);
#731=ORIENTED_EDGE('',*,*,#579,.T.);
#732=ORIENTED_EDGE('',*,*,#580,.T.);
#733=ORIENTED_EDGE('',*,*,#581,.T.);
#734=ORIENTED_EDGE('',*,*,#582,.T.);
#735=ORIENTED_EDGE('',*,*,#583,.T.);
#736=ORIENTED_EDGE('',*,*,#584,.T.);
#737=ORIENTED_EDGE('',*,*,#585,.T.);
#738=ORIENTED_EDGE('',*,*,#586,.T.);
#739=ORIENTED_EDGE('',*,*,#587,.T.);
#740=ORIENTED_EDGE('',*,*,#588,.T.);
#741=ORIENTED_EDGE('',*,*,#589,.T.);
#742=ORIENTED_EDGE('',*,*,#590,.T.);
#743=ORIENTED_EDGE('',*,*,#591,.T.);
#744=ORIENTED_EDGE('',*,*,#592,.T.);
#745=ORIENTED_EDGE('',*,*,#593,.T.);
#746=ORIENTED_EDGE('',*,*,#594,.T.);
#747=ORIENTED_EDGE('',*,*,#595,.T.);
#748=ORIENTED_EDGE('',*,*,#596,.T.);
#749=ORIENTED_EDGE('',*,*,#597,.T.);
#750=ORIENTED_EDGE('',*,*,#598,.T.);
#751=ORIENTED_EDGE('',*,*,#599,.T.);
#752=ORIENTED_EDGE('',*,*,#600,.T.);
#753=ORIENTED_EDGE('',*,*,#601,.T.);
#754=ORIENTED_EDGE('',*,*,#602,.T.);
#755=ORIENTED_EDGE('',*,*,#603,.T.);
#756=ORIENTED_EDGE('',*,*,#604,.T.);
#757=ORIENTED_EDGE('',*,*,#605,.T.);
#758=ORIENTED_EDGE('',*,*,#606,.T.);
#759=ORIENTED_EDGE('',*,*,#607,.T.);
#760=ORIENTED_EDGE('',*,*,#608,.T.);
#761=ORIENTED_EDGE('',*,*,#609,.T.);
#762=ORIENTED_EDGE('',*,*,#610,.T.);
#763=ORIENTED_EDGE('',*,*,#611,.T.);
#764=ORIENTED_EDGE('',*,*,#612,.T.);
#765=ORIENTED_EDGE('',*,*,#609,.F.);
#766=ORIENTED_EDGE('',*,*,#613,.T.);
#767=ORIENTED_EDGE('',*,*,#614,.T.);
#768=ORIENTED_EDGE('',*,*,#615,.F.);
#769=ORIENTED_EDGE('',*,*,#612,.F.);
#770=ORIENTED_EDGE('',*,*,#616,.T.);
#771=ORIENTED_EDGE('',*,*,#617,.T.);
#772=ORIENTED_EDGE('',*,*,#613,.F.);
#773=ORIENTED_EDGE('',*,*,#611,.F.);
#774=ORIENTED_EDGE('',*,*,#618,.T.);
#775=ORIENTED_EDGE('',*,*,#619,.T.);
#776=ORIENTED_EDGE('',*,*,#616,.F.);
#777=ORIENTED_EDGE('',*,*,#610,.F.);
#778=ORIENTED_EDGE('',*,*,#615,.T.);
#779=ORIENTED_EDGE('',*,*,#620,.T.);
#780=ORIENTED_EDGE('',*,*,#618,.F.);
#781=ORIENTED_EDGE('',*,*,#620,.F.);
#782=ORIENTED_EDGE('',*,*,#614,.F.);
#783=ORIENTED_EDGE('',*,*,#617,.F.);
#784=ORIENTED_EDGE('',*,*,#619,.F.);
#785=ORIENTED_EDGE('',*,*,#577,.F.);
#786=ORIENTED_EDGE('',*,*,#621,.T.);
#787=ORIENTED_EDGE('',*,*,#622,.T.);
#788=ORIENTED_EDGE('',*,*,#623,.F.);
#789=ORIENTED_EDGE('',*,*,#608,.F.);
#790=ORIENTED_EDGE('',*,*,#624,.T.);
#791=ORIENTED_EDGE('',*,*,#625,.T.);
#792=ORIENTED_EDGE('',*,*,#621,.F.);
#793=ORIENTED_EDGE('',*,*,#607,.F.);
#794=ORIENTED_EDGE('',*,*,#626,.T.);
#795=ORIENTED_EDGE('',*,*,#627,.T.);
#796=ORIENTED_EDGE('',*,*,#624,.F.);
#797=ORIENTED_EDGE('',*,*,#606,.F.);
#798=ORIENTED_EDGE('',*,*,#628,.T.);
#799=ORIENTED_EDGE('',*,*,#629,.T.);
#800=ORIENTED_EDGE('',*,*,#626,.F.);
#801=ORIENTED_EDGE('',*,*,#605,.F.);
#802=ORIENTED_EDGE('',*,*,#630,.T.);
#803=ORIENTED_EDGE('',*,*,#631,.T.);
#804=ORIENTED_EDGE('',*,*,#628,.F.);
#805=ORIENTED_EDGE('',*,*,#604,.F.);
#806=ORIENTED_EDGE('',*,*,#632,.T.);
#807=ORIENTED_EDGE('',*,*,#633,.T.);
#808=ORIENTED_EDGE('',*,*,#630,.F.);
#809=ORIENTED_EDGE('',*,*,#603,.F.);
#810=ORIENTED_EDGE('',*,*,#634,.T.);
#811=ORIENTED_EDGE('',*,*,#635,.T.);
#812=ORIENTED_EDGE('',*,*,#632,.F.);
#813=ORIENTED_EDGE('',*,*,#602,.F.);
#814=ORIENTED_EDGE('',*,*,#636,.T.);
#815=ORIENTED_EDGE('',*,*,#637,.T.);
#816=ORIENTED_EDGE('',*,*,#634,.F.);
#817=ORIENTED_EDGE('',*,*,#601,.F.);
#818=ORIENTED_EDGE('',*,*,#638,.T.);
#819=ORIENTED_EDGE('',*,*,#639,.T.);
#820=ORIENTED_EDGE('',*,*,#636,.F.);
#821=ORIENTED_EDGE('',*,*,#600,.F.);
#822=ORIENTED_EDGE('',*,*,#640,.T.);
#823=ORIENTED_EDGE('',*,*,#641,.T.);
#824=ORIENTED_EDGE('',*,*,#638,.F.);
#825=ORIENTED_EDGE('',*,*,#599,.F.);
#826=ORIENTED_EDGE('',*,*,#642,.T.);
#827=ORIENTED_EDGE('',*,*,#643,.T.);
#828=ORIENTED_EDGE('',*,*,#640,.F.);
#829=ORIENTED_EDGE('',*,*,#598,.F.);
#830=ORIENTED_EDGE('',*,*,#644,.T.);
#831=ORIENTED_EDGE('',*,*,#645,.T.);
#832=ORIENTED_EDGE('',*,*,#642,.F.);
#833=ORIENTED_EDGE('',*,*,#597,.F.);
#834=ORIENTED_EDGE('',*,*,#646,.T.);
#835=ORIENTED_EDGE('',*,*,#647,.T.);
#836=ORIENTED_EDGE('',*,*,#644,.F.);
#837=ORIENTED_EDGE('',*,*,#596,.F.);
#838=ORIENTED_EDGE('',*,*,#648,.T.);
#839=ORIENTED_EDGE('',*,*,#649,.T.);
#840=ORIENTED_EDGE('',*,*,#646,.F.);
#841=ORIENTED_EDGE('',*,*,#595,.F.);
#842=ORIENTED_EDGE('',*,*,#650,.T.);
#843=ORIENTED_EDGE('',*,*,#651,.T.);
#844=ORIENTED_EDGE('',*,*,#648,.F.);
#845=ORIENTED_EDGE('',*,*,#594,.F.);
#846=ORIENTED_EDGE('',*,*,#652,.T.);
#847=ORIENTED_EDGE('',*,*,#653,.T.);
#848=ORIENTED_EDGE('',*,*,#650,.F.);
#849=ORIENTED_EDGE('',*,*,#593,.F.);
#850=ORIENTED_EDGE('',*,*,#654,.T.);
#851=ORIENTED_EDGE('',*,*,#655,.T.);
#852=ORIENTED_EDGE('',*,*,#652,.F.);
#853=ORIENTED_EDGE('',*,*,#592,.F.);
#854=ORIENTED_EDGE('',*,*,#656,.T.);
#855=ORIENTED_EDGE('',*,*,#657,.T.);
#856=ORIENTED_EDGE('',*,*,#654,.F.);
#857=ORIENTED_EDGE('',*,*,#591,.F.);
#858=ORIENTED_EDGE('',*,*,#658,.T.);
#859=ORIENTED_EDGE('',*,*,#659,.T.);
#860=ORIENTED_EDGE('',*,*,#656,.F.);
#861=ORIENTED_EDGE('',*,*,#590,.F.);
#862=ORIENTED_EDGE('',*,*,#660,.T.);
#863=ORIENTED_EDGE('',*,*,#661,.T.);
#864=ORIENTED_EDGE('',*,*,#658,.F.);
#865=ORIENTED_EDGE('',*,*,#589,.F.);
#866=ORIENTED_EDGE('',*,*,#662,.T.);
#867=ORIENTED_EDGE('',*,*,#663,.T.);
#868=ORIENTED_EDGE('',*,*,#660,.F.);
#869=ORIENTED_EDGE('',*,*,#588,.F.);
#870=ORIENTED_EDGE('',*,*,#664,.T.);
#871=ORIENTED_EDGE('',*,*,#665,.T.);
#872=ORIENTED_EDGE('',*,*,#662,.F.);
#873=ORIENTED_EDGE('',*,*,#587,.F.);
#874=ORIENTED_EDGE('',*,*,#666,.T.);
#875=ORIENTED_EDGE('',*,*,#667,.T.);
#876=ORIENTED_EDGE('',*,*,#664,.F.);
#877=ORIENTED_EDGE('',*,*,#586,.F.);
#878=ORIENTED_EDGE('',*,*,#668,.T.);
#879=ORIENTED_EDGE('',*,*,#669,.T.);
#880=ORIENTED_EDGE('',*,*,#666,.F.);
#881=ORIENTED_EDGE('',*,*,#585,.F.);
#882=ORIENTED_EDGE('',*,*,#670,.T.);
#883=ORIENTED_EDGE('',*,*,#671,.T.);
#884=ORIENTED_EDGE('',*,*,#668,.F.);
#885=ORIENTED_EDGE('',*,*,#584,.F.);
#886=ORIENTED_EDGE('',*,*,#672,.T.);
#887=ORIENTED_EDGE('',*,*,#673,.T.);
#888=ORIENTED_EDGE('',*,*,#670,.F.);
#889=ORIENTED_EDGE('',*,*,#583,.F.);
#890=ORIENTED_EDGE('',*,*,#674,.T.);
#891=ORIENTED_EDGE('',*,*,#675,.T.);
#892=ORIENTED_EDGE('',*,*,#672,.F.);
#893=ORIENTED_EDGE('',*,*,#582,.F.);
#894=ORIENTED_EDGE('',*,*,#676,.T.);
#895=ORIENTED_EDGE('',*,*,#677,.T.);
#896=ORIENTED_EDGE('',*,*,#674,.F.);
#897=ORIENTED_EDGE('',*,*,#581,.F.);
#898=ORIENTED_EDGE('',*,*,#678,.T.);
#899=ORIENTED_EDGE('',*,*,#679,.T.);
#900=ORIENTED_EDGE('',*,*,#676,.F.);
#901=ORIENTED_EDGE('',*,*,#580,.F.);
#902=ORIENTED_EDGE('',*,*,#680,.T.);
#903=ORIENTED_EDGE('',*,*,#681,.T.);
#904=ORIENTED_EDGE('',*,*,#678,.F.);
#905=ORIENTED_EDGE('',*,*,#579,.F.);
#906=ORIENTED_EDGE('',*,*,#682,.T.);
#907=ORIENTED_EDGE('',*,*,#683,.T.);
#908=ORIENTED_EDGE('',*,*,#680,.F.);
#909=ORIENTED_EDGE('',*,*,#578,.F.);
#910=ORIENTED_EDGE('',*,*,#623,.T.);
#911=ORIENTED_EDGE('',*,*,#684,.T.);
#912=ORIENTED_EDGE('',*,*,#682,.F.);
#913=ORIENTED_EDGE('',*,*,#684,.F.);
#914=ORIENTED_EDGE('',*,*,#622,.F.);
#915=ORIENTED_EDGE('',*,*,#625,.F.);
#916=ORIENTED_EDGE('',*,*,#627,.F.);
#917=ORIENTED_EDGE('',*,*,#629,.F.);
#918=ORIENTED_EDGE('',*,*,#631,.F.);
#919=ORIENTED_EDGE('',*,*,#633,.F.);
#920=ORIENTED_EDGE('',*,*,#635,.F.);
#921=ORIENTED_EDGE('',*,*,#637,.F.);
#922=ORIENTED_EDGE('',*,*,#639,.F.);
#923=ORIENTED_EDGE('',*,*,#641,.F.);
#924=ORIENTED_EDGE('',*,*,#643,.F.);
#925=ORIENTED_EDGE('',*,*,#645,.F.);
#926=ORIENTED_EDGE('',*,*,#647,.F.);
#927=ORIENTED_EDGE('',*,*,#649,.F.);
#928=ORIENTED_EDGE('',*,*,#651,.F.);
#929=ORIENTED_EDGE('',*,*,#653,.F.);
#930=ORIENTED_EDGE('',*,*,#655,.F.);
#931=ORIENTED_EDGE('',*,*,#657,.F.);
#932=ORIENTED_EDGE('',*,*,#659,.F.);
#933=ORIENTED_EDGE('',*,*,#661,.F.);
#934=ORIENTED_EDGE('',*,*,#663,.F.);
#935=ORIENTED_EDGE('',*,*,#665,.F.);
#936=ORIENTED_EDGE('',*,*,#667,.F.);
#937=ORIENTED_EDGE('',*,*,#669,.F.);
#938=ORIENTED_EDGE('',*,*,#671,.F.);
#939=ORIENTED_EDGE('',*,*,#673,.F.);
#940=ORIENTED_EDGE('',*,*,#675,.F.);
#941=ORIENTED_EDGE('',*,*,#677,.F.);
#942=ORIENTED_EDGE('',*,*,#679,.F.);
#943=ORIENTED_EDGE('',*,*,#681,.F.);
#944=ORIENTED_EDGE('',*,*,#683,.F.);
#945=ORIENTED_EDGE('',*,*,#685,.T.);
#946=ORIENTED_EDGE('',*,*,#686,.T.);
#947=ORIENTED_EDGE('',*,*,#687,.F.);
#948=ORIENTED_EDGE('',*,*,#686,.F.);
#949=ORIENTED_EDGE('',*,*,#576,.F.);
#950=ORIENTED_EDGE('',*,*,#688,.T.);
#951=ORIENTED_EDGE('',*,*,#689,.T.);
#952=ORIENTED_EDGE('',*,*,#688,.F.);
#953=ORIENTED_EDGE('',*,*,#689,.F.);
#954=ORIENTED_EDGE('',*,*,#685,.F.);
#955=ORIENTED_EDGE('',*,*,#563,.T.);
#956=ORIENTED_EDGE('',*,*,#690,.F.);
#957=ORIENTED_EDGE('',*,*,#691,.T.);
#958=ORIENTED_EDGE('',*,*,#574,.F.);
#959=ORIENTED_EDGE('',*,*,#692,.F.);
#960=ORIENTED_EDGE('',*,*,#567,.T.);
#961=ORIENTED_EDGE('',*,*,#575,.F.);
#962=ORIENTED_EDGE('',*,*,#691,.F.);
#963=ORIENTED_EDGE('',*,*,#556,.T.);
#964=ORIENTED_EDGE('',*,*,#568,.T.);
#965=ORIENTED_EDGE('',*,*,#692,.T.);
#966=ORIENTED_EDGE('',*,*,#690,.T.);
#967=ORIENTED_EDGE('',*,*,#562,.T.);
#968=ORIENTED_EDGE('',*,*,#571,.F.);
#969=ORIENTED_EDGE('',*,*,#693,.F.);
#970=ORIENTED_EDGE('',*,*,#694,.T.);
#971=ORIENTED_EDGE('',*,*,#558,.T.);
#972=ORIENTED_EDGE('',*,*,#695,.F.);
#973=ORIENTED_EDGE('',*,*,#696,.F.);
#974=ORIENTED_EDGE('',*,*,#569,.T.);
#975=ORIENTED_EDGE('',*,*,#560,.T.);
#976=ORIENTED_EDGE('',*,*,#572,.F.);
#977=ORIENTED_EDGE('',*,*,#687,.T.);
#978=ORIENTED_EDGE('',*,*,#557,.T.);
#979=ORIENTED_EDGE('',*,*,#694,.F.);
#980=ORIENTED_EDGE('',*,*,#697,.F.);
#981=ORIENTED_EDGE('',*,*,#695,.T.);
#982=ORIENTED_EDGE('',*,*,#693,.T.);
#983=ORIENTED_EDGE('',*,*,#570,.T.);
#984=ORIENTED_EDGE('',*,*,#696,.T.);
#985=ORIENTED_EDGE('',*,*,#697,.T.);
#986=CYLINDRICAL_SURFACE('',#1045,9.99999999999999);
#987=CYLINDRICAL_SURFACE('',#1049,10.);
#988=CYLINDRICAL_SURFACE('',#1096,1.0625);
#989=CYLINDRICAL_SURFACE('',#1099,2.0625);
#990=ADVANCED_FACE('',(#69),#986,.T.);
#991=ADVANCED_FACE('',(#70),#987,.T.);
#992=ADVANCED_FACE('',(#71),#20,.T.);
#993=ADVANCED_FACE('',(#72),#21,.T.);
#994=ADVANCED_FACE('',(#73),#22,.T.);
#995=ADVANCED_FACE('',(#74,#15,#16,#17),#23,.T.);
#996=ADVANCED_FACE('',(#75),#24,.F.);
#997=ADVANCED_FACE('',(#76),#25,.F.);
#998=ADVANCED_FACE('',(#77),#26,.F.);
#999=ADVANCED_FACE('',(#78),#27,.F.);
#1000=ADVANCED_FACE('',(#79),#28,.F.);
#1001=ADVANCED_FACE('',(#80),#29,.F.);
#1002=ADVANCED_FACE('',(#81),#30,.F.);
#1003=ADVANCED_FACE('',(#82),#31,.F.);
#1004=ADVANCED_FACE('',(#83),#32,.F.);
#1005=ADVANCED_FACE('',(#84),#33,.F.);
#1006=ADVANCED_FACE('',(#85),#34,.F.);
#1007=ADVANCED_FACE('',(#86),#35,.F.);
#1008=ADVANCED_FACE('',(#87),#36,.F.);
#1009=ADVANCED_FACE('',(#88),#37,.F.);
#1010=ADVANCED_FACE('',(#89),#38,.F.);
#1011=ADVANCED_FACE('',(#90),#39,.F.);
#1012=ADVANCED_FACE('',(#91),#40,.F.);
#1013=ADVANCED_FACE('',(#92),#41,.F.);
#1014=ADVANCED_FACE('',(#93),#42,.F.);
#1015=ADVANCED_FACE('',(#94),#43,.F.);
#1016=ADVANCED_FACE('',(#95),#44,.F.);
#1017=ADVANCED_FACE('',(#96),#45,.F.);
#1018=ADVANCED_FACE('',(#97),#46,.F.);
#1019=ADVANCED_FACE('',(#98),#47,.F.);
#1020=ADVANCED_FACE('',(#99),#48,.F.);
#1021=ADVANCED_FACE('',(#100),#49,.F.);
#1022=ADVANCED_FACE('',(#101),#50,.F.);
#1023=ADVANCED_FACE('',(#102),#51,.F.);
#1024=ADVANCED_FACE('',(#103),#52,.F.);
#1025=ADVANCED_FACE('',(#104),#53,.F.);
#1026=ADVANCED_FACE('',(#105),#54,.F.);
#1027=ADVANCED_FACE('',(#106),#55,.F.);
#1028=ADVANCED_FACE('',(#107),#56,.F.);
#1029=ADVANCED_FACE('',(#108),#57,.F.);
#1030=ADVANCED_FACE('',(#109),#58,.F.);
#1031=ADVANCED_FACE('',(#110),#59,.F.);
#1032=ADVANCED_FACE('',(#111),#60,.F.);
#1033=ADVANCED_FACE('',(#112),#61,.F.);
#1034=ADVANCED_FACE('',(#113),#988,.F.);
#1035=ADVANCED_FACE('',(#114),#989,.F.);
#1036=ADVANCED_FACE('',(#115,#18),#62,.T.);
#1037=ADVANCED_FACE('',(#116),#63,.T.);
#1038=ADVANCED_FACE('',(#117),#64,.T.);
#1039=ADVANCED_FACE('',(#118),#65,.T.);
#1040=ADVANCED_FACE('',(#119,#19),#66,.T.);
#1041=ADVANCED_FACE('',(#120),#67,.T.);
#1042=ADVANCED_FACE('',(#121),#68,.T.);
#1043=CLOSED_SHELL('',(#990,#991,#992,#993,#994,#995,#996,#997,#998,#999,
#1000,#1001,#1002,#1003,#1004,#1005,#1006,#1007,#1008,#1009,#1010,#1011,
#1012,#1013,#1014,#1015,#1016,#1017,#1018,#1019,#1020,#1021,#1022,#1023,
#1024,#1025,#1026,#1027,#1028,#1029,#1030,#1031,#1032,#1033,#1034,#1035,
#1036,#1037,#1038,#1039,#1040,#1041,#1042));
#1044=AXIS2_PLACEMENT_3D('',#1370,#1108,#1109);
#1045=AXIS2_PLACEMENT_3D('',#1371,#1110,#1111);
#1046=AXIS2_PLACEMENT_3D('',#1374,#1112,#1113);
#1047=AXIS2_PLACEMENT_3D('',#1378,#1115,#1116);
#1048=AXIS2_PLACEMENT_3D('',#1382,#1118,#1119);
#1049=AXIS2_PLACEMENT_3D('',#1384,#1121,#1122);
#1050=AXIS2_PLACEMENT_3D('',#1387,#1123,#1124);
#1051=AXIS2_PLACEMENT_3D('',#1391,#1126,#1127);
#1052=AXIS2_PLACEMENT_3D('',#1395,#1129,#1130);
#1053=AXIS2_PLACEMENT_3D('',#1397,#1132,#1133);
#1054=AXIS2_PLACEMENT_3D('',#1403,#1137,#1138);
#1055=AXIS2_PLACEMENT_3D('',#1409,#1142,#1143);
#1056=AXIS2_PLACEMENT_3D('',#1412,#1146,#1147);
#1057=AXIS2_PLACEMENT_3D('',#1417,#1150,#1151);
#1058=AXIS2_PLACEMENT_3D('',#1490,#1188,#1189);
#1059=AXIS2_PLACEMENT_3D('',#1496,#1193,#1194);
#1060=AXIS2_PLACEMENT_3D('',#1500,#1197,#1198);
#1061=AXIS2_PLACEMENT_3D('',#1504,#1201,#1202);
#1062=AXIS2_PLACEMENT_3D('',#1506,#1204,#1205);
#1063=AXIS2_PLACEMENT_3D('',#1507,#1206,#1207);
#1064=AXIS2_PLACEMENT_3D('',#1513,#1211,#1212);
#1065=AXIS2_PLACEMENT_3D('',#1517,#1215,#1216);
#1066=AXIS2_PLACEMENT_3D('',#1521,#1219,#1220);
#1067=AXIS2_PLACEMENT_3D('',#1525,#1223,#1224);
#1068=AXIS2_PLACEMENT_3D('',#1529,#1227,#1228);
#1069=AXIS2_PLACEMENT_3D('',#1533,#1231,#1232);
#1070=AXIS2_PLACEMENT_3D('',#1537,#1235,#1236);
#1071=AXIS2_PLACEMENT_3D('',#1541,#1239,#1240);
#1072=AXIS2_PLACEMENT_3D('',#1545,#1243,#1244);
#1073=AXIS2_PLACEMENT_3D('',#1549,#1247,#1248);
#1074=AXIS2_PLACEMENT_3D('',#1553,#1251,#1252);
#1075=AXIS2_PLACEMENT_3D('',#1557,#1255,#1256);
#1076=AXIS2_PLACEMENT_3D('',#1561,#1259,#1260);
#1077=AXIS2_PLACEMENT_3D('',#1565,#1263,#1264);
#1078=AXIS2_PLACEMENT_3D('',#1569,#1267,#1268);
#1079=AXIS2_PLACEMENT_3D('',#1573,#1271,#1272);
#1080=AXIS2_PLACEMENT_3D('',#1577,#1275,#1276);
#1081=AXIS2_PLACEMENT_3D('',#1581,#1279,#1280);
#1082=AXIS2_PLACEMENT_3D('',#1585,#1283,#1284);
#1083=AXIS2_PLACEMENT_3D('',#1589,#1287,#1288);
#1084=AXIS2_PLACEMENT_3D('',#1593,#1291,#1292);
#1085=AXIS2_PLACEMENT_3D('',#1597,#1295,#1296);
#1086=AXIS2_PLACEMENT_3D('',#1601,#1299,#1300);
#1087=AXIS2_PLACEMENT_3D('',#1605,#1303,#1304);
#1088=AXIS2_PLACEMENT_3D('',#1609,#1307,#1308);
#1089=AXIS2_PLACEMENT_3D('',#1613,#1311,#1312);
#1090=AXIS2_PLACEMENT_3D('',#1617,#1315,#1316);
#1091=AXIS2_PLACEMENT_3D('',#1621,#1319,#1320);
#1092=AXIS2_PLACEMENT_3D('',#1625,#1323,#1324);
#1093=AXIS2_PLACEMENT_3D('',#1629,#1327,#1328);
#1094=AXIS2_PLACEMENT_3D('',#1633,#1331,#1332);
#1095=AXIS2_PLACEMENT_3D('',#1635,#1334,#1335);
#1096=AXIS2_PLACEMENT_3D('',#1636,#1336,#1337);
#1097=AXIS2_PLACEMENT_3D('',#1638,#1338,#1339);
#1098=AXIS2_PLACEMENT_3D('',#1641,#1341,#1342);
#1099=AXIS2_PLACEMENT_3D('',#1642,#1343,#1344);
#1100=AXIS2_PLACEMENT_3D('',#1645,#1346,#1347);
#1101=AXIS2_PLACEMENT_3D('',#1646,#1348,#1349);
#1102=AXIS2_PLACEMENT_3D('',#1647,#1350,#1351);
#1103=AXIS2_PLACEMENT_3D('',#1651,#1354,#1355);
#1104=AXIS2_PLACEMENT_3D('',#1653,#1357,#1358);
#1105=AXIS2_PLACEMENT_3D('',#1657,#1361,#1362);
#1106=AXIS2_PLACEMENT_3D('',#1661,#1365,#1366);
#1107=AXIS2_PLACEMENT_3D('',#1663,#1368,#1369);
#1108=DIRECTION('axis',(0.,0.,1.));
#1109=DIRECTION('refdir',(1.,0.,0.));
#1110=DIRECTION('center_axis',(0.,0.,-1.));
#1111=DIRECTION('ref_axis',(-8.88178419700126E-16,-1.,0.));
#1112=DIRECTION('center_axis',(0.,0.,-1.));
#1113=DIRECTION('ref_axis',(-8.88178419700126E-16,-1.,0.));
#1114=DIRECTION('',(0.,0.,-1.));
#1115=DIRECTION('center_axis',(0.,0.,-1.));
#1116=DIRECTION('ref_axis',(-8.88178419700126E-16,-1.,0.));
#1117=DIRECTION('',(0.,0.,-1.));
#1118=DIRECTION('center_axis',(0.,0.,1.));
#1119=DIRECTION('ref_axis',(-8.88178419700126E-16,-1.,0.));
#1120=DIRECTION('',(0.,0.,1.));
#1121=DIRECTION('center_axis',(0.,0.,-1.));
#1122=DIRECTION('ref_axis',(-1.,0.,0.));
#1123=DIRECTION('center_axis',(0.,0.,1.));
#1124=DIRECTION('ref_axis',(-1.,0.,0.));
#1125=DIRECTION('',(0.,0.,1.));
#1126=DIRECTION('center_axis',(0.,0.,-1.));
#1127=DIRECTION('ref_axis',(-1.,0.,0.));
#1128=DIRECTION('',(0.,0.,1.));
#1129=DIRECTION('center_axis',(0.,0.,-1.));
#1130=DIRECTION('ref_axis',(-1.,0.,0.));
#1131=DIRECTION('',(0.,0.,1.));
#1132=DIRECTION('center_axis',(1.,0.,0.));
#1133=DIRECTION('ref_axis',(0.,-1.,0.));
#1134=DIRECTION('',(0.,-1.,0.));
#1135=DIRECTION('',(0.,0.,-1.));
#1136=DIRECTION('',(0.,1.,0.));
#1137=DIRECTION('center_axis',(-1.,0.,0.));
#1138=DIRECTION('ref_axis',(0.,0.,-1.));
#1139=DIRECTION('',(0.,-1.,0.));
#1140=DIRECTION('',(0.,0.,1.));
#1141=DIRECTION('',(0.,-1.,0.));
#1142=DIRECTION('center_axis',(0.,-1.,0.));
#1143=DIRECTION('ref_axis',(0.,0.,-1.));
#1144=DIRECTION('',(-1.,0.,0.));
#1145=DIRECTION('',(-1.,0.,0.));
#1146=DIRECTION('center_axis',(0.,0.,-1.));
#1147=DIRECTION('ref_axis',(-1.,0.,0.));
#1148=DIRECTION('',(0.,1.,0.));
#1149=DIRECTION('',(1.,-7.40148683083438E-17,0.));
#1150=DIRECTION('center_axis',(0.,0.,1.));
#1151=DIRECTION('ref_axis',(1.,0.,0.));
#1152=DIRECTION('',(0.,1.,0.));
#1153=DIRECTION('',(-1.,0.,0.));
#1154=DIRECTION('',(0.,-1.,0.));
#1155=DIRECTION('',(-1.,0.,0.));
#1156=DIRECTION('',(0.,-1.,0.));
#1157=DIRECTION('',(-1.,0.,0.));
#1158=DIRECTION('',(0.,-1.,0.));
#1159=DIRECTION('',(-1.,0.,0.));
#1160=DIRECTION('',(0.,-1.,0.));
#1161=DIRECTION('',(-1.,0.,0.));
#1162=DIRECTION('',(0.,-1.,0.));
#1163=DIRECTION('',(-1.,0.,0.));
#1164=DIRECTION('',(0.,-1.,0.));
#1165=DIRECTION('',(-1.,0.,0.));
#1166=DIRECTION('',(0.,-1.,0.));
#1167=DIRECTION('',(-1.,0.,0.));
#1168=DIRECTION('',(0.,-1.,0.));
#1169=DIRECTION('',(1.,0.,0.));
#1170=DIRECTION('',(0.,1.,0.));
#1171=DIRECTION('',(-1.,0.,0.));
#1172=DIRECTION('',(0.,1.,0.));
#1173=DIRECTION('',(-1.,0.,0.));
#1174=DIRECTION('',(0.,1.,0.));
#1175=DIRECTION('',(-1.,0.,0.));
#1176=DIRECTION('',(0.,1.,0.));
#1177=DIRECTION('',(-1.,0.,0.));
#1178=DIRECTION('',(0.,1.,0.));
#1179=DIRECTION('',(-1.,0.,0.));
#1180=DIRECTION('',(0.,1.,0.));
#1181=DIRECTION('',(-1.,0.,0.));
#1182=DIRECTION('',(0.,1.,0.));
#1183=DIRECTION('',(-1.,0.,0.));
#1184=DIRECTION('',(-1.,0.,0.));
#1185=DIRECTION('',(0.,-1.,0.));
#1186=DIRECTION('',(1.,0.,0.));
#1187=DIRECTION('',(0.,1.,0.));
#1188=DIRECTION('center_axis',(0.,1.,0.));
#1189=DIRECTION('ref_axis',(-1.,0.,0.));
#1190=DIRECTION('',(0.,0.,1.));
#1191=DIRECTION('',(-1.,0.,0.));
#1192=DIRECTION('',(0.,0.,1.));
#1193=DIRECTION('center_axis',(1.,0.,0.));
#1194=DIRECTION('ref_axis',(0.,1.,0.));
#1195=DIRECTION('',(0.,0.,1.));
#1196=DIRECTION('',(0.,1.,0.));
#1197=DIRECTION('center_axis',(0.,-1.,0.));
#1198=DIRECTION('ref_axis',(1.,0.,0.));
#1199=DIRECTION('',(0.,0.,1.));
#1200=DIRECTION('',(1.,0.,0.));
#1201=DIRECTION('center_axis',(-1.,0.,0.));
#1202=DIRECTION('ref_axis',(0.,-1.,0.));
#1203=DIRECTION('',(0.,-1.,0.));
#1204=DIRECTION('center_axis',(0.,0.,1.));
#1205=DIRECTION('ref_axis',(1.,0.,0.));
#1206=DIRECTION('center_axis',(1.,0.,0.));
#1207=DIRECTION('ref_axis',(0.,1.,0.));
#1208=DIRECTION('',(0.,0.,1.));
#1209=DIRECTION('',(0.,1.,0.));
#1210=DIRECTION('',(0.,0.,1.));
#1211=DIRECTION('center_axis',(0.,1.,0.));
#1212=DIRECTION('ref_axis',(-1.,0.,0.));
#1213=DIRECTION('',(0.,0.,1.));
#1214=DIRECTION('',(-1.,0.,0.));
#1215=DIRECTION('center_axis',(1.,0.,0.));
#1216=DIRECTION('ref_axis',(0.,1.,0.));
#1217=DIRECTION('',(0.,0.,1.));
#1218=DIRECTION('',(0.,1.,0.));
#1219=DIRECTION('center_axis',(0.,1.,0.));
#1220=DIRECTION('ref_axis',(-1.,0.,0.));
#1221=DIRECTION('',(0.,0.,1.));
#1222=DIRECTION('',(-1.,0.,0.));
#1223=DIRECTION('center_axis',(1.,0.,0.));
#1224=DIRECTION('ref_axis',(0.,1.,0.));
#1225=DIRECTION('',(0.,0.,1.));
#1226=DIRECTION('',(0.,1.,0.));
#1227=DIRECTION('center_axis',(0.,1.,0.));
#1228=DIRECTION('ref_axis',(-1.,0.,0.));
#1229=DIRECTION('',(0.,0.,1.));
#1230=DIRECTION('',(-1.,0.,0.));
#1231=DIRECTION('center_axis',(1.,0.,0.));
#1232=DIRECTION('ref_axis',(0.,1.,0.));
#1233=DIRECTION('',(0.,0.,1.));
#1234=DIRECTION('',(0.,1.,0.));
#1235=DIRECTION('center_axis',(0.,1.,0.));
#1236=DIRECTION('ref_axis',(-1.,0.,0.));
#1237=DIRECTION('',(0.,0.,1.));
#1238=DIRECTION('',(-1.,0.,0.));
#1239=DIRECTION('center_axis',(1.,0.,0.));
#1240=DIRECTION('ref_axis',(0.,1.,0.));
#1241=DIRECTION('',(0.,0.,1.));
#1242=DIRECTION('',(0.,1.,0.));
#1243=DIRECTION('center_axis',(0.,1.,0.));
#1244=DIRECTION('ref_axis',(-1.,0.,0.));
#1245=DIRECTION('',(0.,0.,1.));
#1246=DIRECTION('',(-1.,0.,0.));
#1247=DIRECTION('center_axis',(1.,0.,0.));
#1248=DIRECTION('ref_axis',(0.,1.,0.));
#1249=DIRECTION('',(0.,0.,1.));
#1250=DIRECTION('',(0.,1.,0.));
#1251=DIRECTION('center_axis',(0.,1.,0.));
#1252=DIRECTION('ref_axis',(-1.,0.,0.));
#1253=DIRECTION('',(0.,0.,1.));
#1254=DIRECTION('',(-1.,0.,0.));
#1255=DIRECTION('center_axis',(1.,0.,0.));
#1256=DIRECTION('ref_axis',(0.,1.,0.));
#1257=DIRECTION('',(0.,0.,1.));
#1258=DIRECTION('',(0.,1.,0.));
#1259=DIRECTION('center_axis',(0.,1.,0.));
#1260=DIRECTION('ref_axis',(-1.,0.,0.));
#1261=DIRECTION('',(0.,0.,1.));
#1262=DIRECTION('',(-1.,0.,0.));
#1263=DIRECTION('center_axis',(1.,0.,0.));
#1264=DIRECTION('ref_axis',(0.,1.,0.));
#1265=DIRECTION('',(0.,0.,1.));
#1266=DIRECTION('',(0.,1.,0.));
#1267=DIRECTION('center_axis',(0.,-1.,0.));
#1268=DIRECTION('ref_axis',(1.,0.,0.));
#1269=DIRECTION('',(0.,0.,1.));
#1270=DIRECTION('',(1.,0.,0.));
#1271=DIRECTION('center_axis',(-1.,0.,0.));
#1272=DIRECTION('ref_axis',(0.,-1.,0.));
#1273=DIRECTION('',(0.,0.,1.));
#1274=DIRECTION('',(0.,-1.,0.));
#1275=DIRECTION('center_axis',(0.,1.,0.));
#1276=DIRECTION('ref_axis',(-1.,0.,0.));
#1277=DIRECTION('',(0.,0.,1.));
#1278=DIRECTION('',(-1.,0.,0.));
#1279=DIRECTION('center_axis',(-1.,0.,0.));
#1280=DIRECTION('ref_axis',(0.,-1.,0.));
#1281=DIRECTION('',(0.,0.,1.));
#1282=DIRECTION('',(0.,-1.,0.));
#1283=DIRECTION('center_axis',(0.,1.,0.));
#1284=DIRECTION('ref_axis',(-1.,0.,0.));
#1285=DIRECTION('',(0.,0.,1.));
#1286=DIRECTION('',(-1.,0.,0.));
#1287=DIRECTION('center_axis',(-1.,0.,0.));
#1288=DIRECTION('ref_axis',(0.,-1.,0.));
#1289=DIRECTION('',(0.,0.,1.));
#1290=DIRECTION('',(0.,-1.,0.));
#1291=DIRECTION('center_axis',(0.,1.,0.));
#1292=DIRECTION('ref_axis',(-1.,0.,0.));
#1293=DIRECTION('',(0.,0.,1.));
#1294=DIRECTION('',(-1.,0.,0.));
#1295=DIRECTION('center_axis',(-1.,0.,0.));
#1296=DIRECTION('ref_axis',(0.,-1.,0.));
#1297=DIRECTION('',(0.,0.,1.));
#1298=DIRECTION('',(0.,-1.,0.));
#1299=DIRECTION('center_axis',(0.,1.,0.));
#1300=DIRECTION('ref_axis',(-1.,0.,0.));
#1301=DIRECTION('',(0.,0.,1.));
#1302=DIRECTION('',(-1.,0.,0.));
#1303=DIRECTION('center_axis',(-1.,0.,0.));
#1304=DIRECTION('ref_axis',(0.,-1.,0.));
#1305=DIRECTION('',(0.,0.,1.));
#1306=DIRECTION('',(0.,-1.,0.));
#1307=DIRECTION('center_axis',(0.,1.,0.));
#1308=DIRECTION('ref_axis',(-1.,0.,0.));
#1309=DIRECTION('',(0.,0.,1.));
#1310=DIRECTION('',(-1.,0.,0.));
#1311=DIRECTION('center_axis',(-1.,0.,0.));
#1312=DIRECTION('ref_axis',(0.,-1.,0.));
#1313=DIRECTION('',(0.,0.,1.));
#1314=DIRECTION('',(0.,-1.,0.));
#1315=DIRECTION('center_axis',(0.,1.,0.));
#1316=DIRECTION('ref_axis',(-1.,0.,0.));
#1317=DIRECTION('',(0.,0.,1.));
#1318=DIRECTION('',(-1.,0.,0.));
#1319=DIRECTION('center_axis',(-1.,0.,0.));
#1320=DIRECTION('ref_axis',(0.,-1.,0.));
#1321=DIRECTION('',(0.,0.,1.));
#1322=DIRECTION('',(0.,-1.,0.));
#1323=DIRECTION('center_axis',(0.,1.,0.));
#1324=DIRECTION('ref_axis',(-1.,0.,0.));
#1325=DIRECTION('',(0.,0.,1.));
#1326=DIRECTION('',(-1.,0.,0.));
#1327=DIRECTION('center_axis',(-1.,0.,0.));
#1328=DIRECTION('ref_axis',(0.,-1.,0.));
#1329=DIRECTION('',(0.,0.,1.));
#1330=DIRECTION('',(0.,-1.,0.));
#1331=DIRECTION('center_axis',(0.,1.,0.));
#1332=DIRECTION('ref_axis',(-1.,0.,0.));
#1333=DIRECTION('',(-1.,0.,0.));
#1334=DIRECTION('center_axis',(0.,0.,1.));
#1335=DIRECTION('ref_axis',(1.,0.,0.));
#1336=DIRECTION('center_axis',(0.,0.,1.));
#1337=DIRECTION('ref_axis',(1.,0.,0.));
#1338=DIRECTION('center_axis',(0.,0.,-1.));
#1339=DIRECTION('ref_axis',(1.,0.,0.));
#1340=DIRECTION('',(0.,0.,1.));
#1341=DIRECTION('center_axis',(0.,0.,-1.));
#1342=DIRECTION('ref_axis',(1.,0.,0.));
#1343=DIRECTION('center_axis',(0.,0.,1.));
#1344=DIRECTION('ref_axis',(1.,0.,0.));
#1345=DIRECTION('',(0.,0.,1.));
#1346=DIRECTION('center_axis',(0.,0.,1.));
#1347=DIRECTION('ref_axis',(1.,0.,0.));
#1348=DIRECTION('center_axis',(0.,0.,-1.));
#1349=DIRECTION('ref_axis',(1.,0.,0.));
#1350=DIRECTION('center_axis',(-1.,0.,0.));
#1351=DIRECTION('ref_axis',(0.,1.,0.));
#1352=DIRECTION('',(0.,-1.,0.));
#1353=DIRECTION('',(0.,0.,-1.));
#1354=DIRECTION('center_axis',(7.40148683083438E-17,1.,0.));
#1355=DIRECTION('ref_axis',(1.,-7.40148683083438E-17,0.));
#1356=DIRECTION('',(-1.,7.40148683083438E-17,0.));
#1357=DIRECTION('center_axis',(0.,0.,-1.));
#1358=DIRECTION('ref_axis',(1.,0.,0.));
#1359=DIRECTION('',(-1.,0.,0.));
#1360=DIRECTION('',(0.,-1.,0.));
#1361=DIRECTION('center_axis',(0.,0.,1.));
#1362=DIRECTION('ref_axis',(-1.,0.,0.));
#1363=DIRECTION('',(0.,-1.,0.));
#1364=DIRECTION('',(1.,0.,0.));
#1365=DIRECTION('center_axis',(1.,0.,0.));
#1366=DIRECTION('ref_axis',(0.,0.,1.));
#1367=DIRECTION('',(0.,0.,-1.));
#1368=DIRECTION('center_axis',(0.,1.,0.));
#1369=DIRECTION('ref_axis',(0.,0.,1.));
#1370=CARTESIAN_POINT('',(0.,0.,0.));
#1371=CARTESIAN_POINT('Origin',(99.5000000032957,-59.4999997317791,30.7));
#1372=CARTESIAN_POINT('',(106.500000566244,-66.6414276085221,-1.5));
#1373=CARTESIAN_POINT('',(99.5000000032957,-69.4999997317791,-1.5));
#1374=CARTESIAN_POINT('Origin',(99.5000000032957,-59.4999997317791,-1.5));
#1375=CARTESIAN_POINT('',(106.500000566244,-66.6414276085221,0.));
#1376=CARTESIAN_POINT('',(106.500000566244,-66.6414276085221,30.7));
#1377=CARTESIAN_POINT('',(108.000000566244,-64.7678256998494,0.));
#1378=CARTESIAN_POINT('Origin',(99.5000000032957,-59.4999997317791,0.));
#1379=CARTESIAN_POINT('',(108.000000566244,-64.7678256998494,2.));
#1380=CARTESIAN_POINT('',(108.000000566244,-64.7678256998494,30.7));
#1381=CARTESIAN_POINT('',(99.5000000032957,-69.4999997317791,2.));
#1382=CARTESIAN_POINT('Origin',(99.5000000032957,-59.4999997317791,2.));
#1383=CARTESIAN_POINT('',(99.5000000032957,-69.4999997317791,30.7));
#1384=CARTESIAN_POINT('Origin',(53.5000000032956,-59.4999997317791,30.7));
#1385=CARTESIAN_POINT('',(44.999999627471,-64.7678260017865,2.));
#1386=CARTESIAN_POINT('',(53.5000000032956,-69.4999997317791,2.));
#1387=CARTESIAN_POINT('Origin',(53.5000000032956,-59.4999997317791,2.));
#1388=CARTESIAN_POINT('',(44.999999627471,-64.7678260017865,0.));
#1389=CARTESIAN_POINT('',(44.999999627471,-64.7678260017865,30.7));
#1390=CARTESIAN_POINT('',(46.5000005662441,-66.6414287121218,0.));
#1391=CARTESIAN_POINT('Origin',(53.5000000032956,-59.4999997317791,0.));
#1392=CARTESIAN_POINT('',(46.5000005662441,-66.6414287121218,-1.5));
#1393=CARTESIAN_POINT('',(46.5000005662441,-66.6414287121218,30.7));
#1394=CARTESIAN_POINT('',(53.5000000032956,-69.4999997317791,-1.5));
#1395=CARTESIAN_POINT('Origin',(53.5000000032956,-59.4999997317791,-1.5));
#1396=CARTESIAN_POINT('',(53.5000000032956,-69.4999997317791,30.7));
#1397=CARTESIAN_POINT('Origin',(106.500000566244,-6.49999973177909,-5.55111512312578E-16));
#1398=CARTESIAN_POINT('',(106.500000566244,-6.49999973177909,-1.5));
#1399=CARTESIAN_POINT('',(106.500000566244,-69.4999997317791,-1.5));
#1400=CARTESIAN_POINT('',(106.500000566244,-6.49999973177909,-5.55111512312578E-16));
#1401=CARTESIAN_POINT('',(106.500000566244,-6.49999973177909,-5.55111512312578E-16));
#1402=CARTESIAN_POINT('',(106.500000566244,-3.99999973177909,-5.55111512312578E-16));
#1403=CARTESIAN_POINT('Origin',(44.999999627471,-1.49999973177909,2.));
#1404=CARTESIAN_POINT('',(44.999999627471,-1.49999973177909,2.));
#1405=CARTESIAN_POINT('',(44.999999627471,-1.49999973177909,2.));
#1406=CARTESIAN_POINT('',(44.999999627471,-1.49999973177909,-5.55111512312578E-16));
#1407=CARTESIAN_POINT('',(44.999999627471,-1.49999973177909,-5.55111512312578E-16));
#1408=CARTESIAN_POINT('',(44.999999627471,-1.49999973177909,-5.55111512312578E-16));
#1409=CARTESIAN_POINT('Origin',(76.5000000968575,-69.4999997317791,1.));
#1410=CARTESIAN_POINT('',(44.999999627471,-69.4999997317791,2.));
#1411=CARTESIAN_POINT('',(46.5000005662441,-69.4999997317791,-1.5));
#1412=CARTESIAN_POINT('Origin',(76.5000005662441,-37.9999997317791,-1.5));
#1413=CARTESIAN_POINT('',(46.5000005662441,-6.49999973177909,-1.5));
#1414=CARTESIAN_POINT('',(46.5000005662441,-6.49999973177909,-1.5));
#1415=CARTESIAN_POINT('',(106.500000566244,-6.49999973177909,-1.5));
#1416=CARTESIAN_POINT('',(74.4375005662441,-58.9999997317791,-1.5));
#1417=CARTESIAN_POINT('Origin',(76.5000005662441,-58.9999997317791,-1.5));
#1418=CARTESIAN_POINT('',(77.5000001117587,-15.500000230968,-1.5));
#1419=CARTESIAN_POINT('',(77.5000001117587,-14.4999997317791,-1.5));
#1420=CARTESIAN_POINT('',(77.5000001117587,-26.7499999813735,-1.5));
#1421=CARTESIAN_POINT('',(75.5000000819564,-14.4999997317791,-1.5));
#1422=CARTESIAN_POINT('',(77.0000003390014,-14.4999997317791,-1.5));
#1423=CARTESIAN_POINT('',(75.5000000819564,-15.500000230968,-1.5));
#1424=CARTESIAN_POINT('',(75.5000000819564,-26.2499997317791,-1.5));
#1425=CARTESIAN_POINT('',(74.5000000670552,-15.500000230968,-1.5));
#1426=CARTESIAN_POINT('',(76.0000003241003,-15.500000230968,-1.5));
#1427=CARTESIAN_POINT('',(74.5000000670552,-16.5000002458692,-1.5));
#1428=CARTESIAN_POINT('',(74.5000000670552,-26.7499999813735,-1.5));
#1429=CARTESIAN_POINT('',(73.5000000521541,-16.5000002458692,-1.5));
#1430=CARTESIAN_POINT('',(75.5000003166497,-16.5000002458692,-1.5));
#1431=CARTESIAN_POINT('',(73.5000000521541,-17.5000002607703,-1.5));
#1432=CARTESIAN_POINT('',(73.5000000521541,-27.2499999888241,-1.5));
#1433=CARTESIAN_POINT('',(72.5000005662441,-17.5000002607703,-1.5));
#1434=CARTESIAN_POINT('',(75.0000003091991,-17.5000002607703,-1.5));
#1435=CARTESIAN_POINT('',(72.5000005662441,-18.4999997317791,-1.5));
#1436=CARTESIAN_POINT('',(72.5000005662441,-27.7499999962747,-1.5));
#1437=CARTESIAN_POINT('',(71.5000000223517,-18.4999997317791,-1.5));
#1438=CARTESIAN_POINT('',(74.5000005662441,-18.4999997317791,-1.5));
#1439=CARTESIAN_POINT('',(71.5000000223517,-19.5000002905726,-1.5));
#1440=CARTESIAN_POINT('',(71.5000000223517,-28.2499997317791,-1.5));
#1441=CARTESIAN_POINT('',(70.5000000074506,-19.5000002905726,-1.5));
#1442=CARTESIAN_POINT('',(74.0000002942979,-19.5000002905726,-1.5));
#1443=CARTESIAN_POINT('',(70.5000000074506,-20.5000003054738,-1.5));
#1444=CARTESIAN_POINT('',(70.5000000074506,-28.7500000111759,-1.5));
#1445=CARTESIAN_POINT('',(69.4999999925494,-20.5000003054738,-1.5));
#1446=CARTESIAN_POINT('',(73.5000002868474,-20.5000003054738,-1.5));
#1447=CARTESIAN_POINT('',(69.4999999925494,-21.500000320375,-1.5));
#1448=CARTESIAN_POINT('',(69.4999999925494,-29.2500000186265,-1.5));
#1449=CARTESIAN_POINT('',(68.5000005662441,-21.500000320375,-1.5));
#1450=CARTESIAN_POINT('',(73.0000002793968,-21.500000320375,-1.5));
#1451=CARTESIAN_POINT('',(68.5000005662441,-22.4999997317791,-1.5));
#1452=CARTESIAN_POINT('',(68.5000005662441,-29.750000026077,-1.5));
#1453=CARTESIAN_POINT('',(84.5000005662441,-22.4999997317791,-1.5));
#1454=CARTESIAN_POINT('',(72.5000005662441,-22.4999997317791,-1.5));
#1455=CARTESIAN_POINT('',(84.5000005662441,-21.500000320375,-1.5));
#1456=CARTESIAN_POINT('',(84.5000005662441,-30.2499997317791,-1.5));
#1457=CARTESIAN_POINT('',(83.5000002011657,-21.500000320375,-1.5));
#1458=CARTESIAN_POINT('',(80.5000005662441,-21.500000320375,-1.5));
#1459=CARTESIAN_POINT('',(83.5000002011657,-20.5000003054738,-1.5));
#1460=CARTESIAN_POINT('',(83.5000002011657,-29.750000026077,-1.5));
#1461=CARTESIAN_POINT('',(82.5000001862645,-20.5000003054738,-1.5));
#1462=CARTESIAN_POINT('',(80.0000003837049,-20.5000003054738,-1.5));
#1463=CARTESIAN_POINT('',(82.5000001862645,-19.5000002905726,-1.5));
#1464=CARTESIAN_POINT('',(82.5000001862645,-29.2500000186265,-1.5));
#1465=CARTESIAN_POINT('',(81.5000001713634,-19.5000002905726,-1.5));
#1466=CARTESIAN_POINT('',(79.5000003762543,-19.5000002905726,-1.5));
#1467=CARTESIAN_POINT('',(81.5000001713634,-18.4999997317791,-1.5));
#1468=CARTESIAN_POINT('',(81.5000001713634,-28.7500000111759,-1.5));
#1469=CARTESIAN_POINT('',(80.5000005662441,-18.4999997317791,-1.5));
#1470=CARTESIAN_POINT('',(79.0000003688037,-18.4999997317791,-1.5));
#1471=CARTESIAN_POINT('',(80.5000005662441,-17.5000002607703,-1.5));
#1472=CARTESIAN_POINT('',(80.5000005662441,-28.2499997317791,-1.5));
#1473=CARTESIAN_POINT('',(79.500000141561,-17.5000002607703,-1.5));
#1474=CARTESIAN_POINT('',(78.5000005662441,-17.5000002607703,-1.5));
#1475=CARTESIAN_POINT('',(79.500000141561,-16.5000002458692,-1.5));
#1476=CARTESIAN_POINT('',(79.500000141561,-27.7499999962747,-1.5));
#1477=CARTESIAN_POINT('',(78.5000001266599,-16.5000002458692,-1.5));
#1478=CARTESIAN_POINT('',(78.0000003539026,-16.5000002458692,-1.5));
#1479=CARTESIAN_POINT('',(78.5000001266599,-15.500000230968,-1.5));
#1480=CARTESIAN_POINT('',(78.5000001266599,-27.2499999888241,-1.5));
#1481=CARTESIAN_POINT('',(77.500000346452,-15.500000230968,-1.5));
#1482=CARTESIAN_POINT('',(84.5000002160668,-23.4999997317791,-1.5));
#1483=CARTESIAN_POINT('',(68.4999999776483,-23.4999997317791,-1.5));
#1484=CARTESIAN_POINT('',(80.5000003911555,-23.4999997317791,-1.5));
#1485=CARTESIAN_POINT('',(68.4999999776483,-25.4999997317791,-1.5));
#1486=CARTESIAN_POINT('',(68.4999999776483,-30.7499997317791,-1.5));
#1487=CARTESIAN_POINT('',(84.5000002160668,-25.4999997317791,-1.5));
#1488=CARTESIAN_POINT('',(72.5000002719462,-25.4999997317791,-1.5));
#1489=CARTESIAN_POINT('',(84.5000002160668,-31.7499997317791,-1.5));
#1490=CARTESIAN_POINT('Origin',(84.5000002160668,-23.4999997317791,-1.5));
#1491=CARTESIAN_POINT('',(84.5000002160668,-23.4999997317791,-1.2));
#1492=CARTESIAN_POINT('',(84.5000002160668,-23.4999997317791,-1.5));
#1493=CARTESIAN_POINT('',(68.4999999776483,-23.4999997317791,-1.2));
#1494=CARTESIAN_POINT('',(68.4999999776483,-23.4999997317791,-1.2));
#1495=CARTESIAN_POINT('',(68.4999999776483,-23.4999997317791,-1.5));
#1496=CARTESIAN_POINT('Origin',(84.5000002160668,-25.4999997317791,-1.5));
#1497=CARTESIAN_POINT('',(84.5000002160668,-25.4999997317791,-1.2));
#1498=CARTESIAN_POINT('',(84.5000002160668,-25.4999997317791,-1.5));
#1499=CARTESIAN_POINT('',(84.5000002160668,-23.4999997317791,-1.2));
#1500=CARTESIAN_POINT('Origin',(68.4999999776483,-25.4999997317791,-1.5));
#1501=CARTESIAN_POINT('',(68.4999999776483,-25.4999997317791,-1.2));
#1502=CARTESIAN_POINT('',(68.4999999776483,-25.4999997317791,-1.5));
#1503=CARTESIAN_POINT('',(84.5000002160668,-25.4999997317791,-1.2));
#1504=CARTESIAN_POINT('Origin',(68.4999999776483,-23.4999997317791,-1.5));
#1505=CARTESIAN_POINT('',(68.4999999776483,-25.4999997317791,-1.2));
#1506=CARTESIAN_POINT('Origin',(76.5000000968575,-24.4999997317791,-1.2));
#1507=CARTESIAN_POINT('Origin',(77.5000001117587,-15.500000230968,-1.5));
#1508=CARTESIAN_POINT('',(77.5000001117587,-15.500000230968,-1.2));
#1509=CARTESIAN_POINT('',(77.5000001117587,-15.500000230968,-1.5));
#1510=CARTESIAN_POINT('',(77.5000001117587,-14.4999997317791,-1.2));
#1511=CARTESIAN_POINT('',(77.5000001117587,-14.4999997317791,-1.2));
#1512=CARTESIAN_POINT('',(77.5000001117587,-14.4999997317791,-1.5));
#1513=CARTESIAN_POINT('Origin',(78.5000001266599,-15.500000230968,-1.5));
#1514=CARTESIAN_POINT('',(78.5000001266599,-15.500000230968,-1.2));
#1515=CARTESIAN_POINT('',(78.5000001266599,-15.500000230968,-1.5));
#1516=CARTESIAN_POINT('',(77.5000001117587,-15.500000230968,-1.2));
#1517=CARTESIAN_POINT('Origin',(78.5000001266599,-16.5000002458692,-1.5));
#1518=CARTESIAN_POINT('',(78.5000001266599,-16.5000002458692,-1.2));
#1519=CARTESIAN_POINT('',(78.5000001266599,-16.5000002458692,-1.5));
#1520=CARTESIAN_POINT('',(78.5000001266599,-15.500000230968,-1.2));
#1521=CARTESIAN_POINT('Origin',(79.500000141561,-16.5000002458692,-1.5));
#1522=CARTESIAN_POINT('',(79.500000141561,-16.5000002458692,-1.2));
#1523=CARTESIAN_POINT('',(79.500000141561,-16.5000002458692,-1.5));
#1524=CARTESIAN_POINT('',(78.5000001266599,-16.5000002458692,-1.2));
#1525=CARTESIAN_POINT('Origin',(79.500000141561,-17.5000002607703,-1.5));
#1526=CARTESIAN_POINT('',(79.500000141561,-17.5000002607703,-1.2));
#1527=CARTESIAN_POINT('',(79.500000141561,-17.5000002607703,-1.5));
#1528=CARTESIAN_POINT('',(79.500000141561,-16.5000002458692,-1.2));
#1529=CARTESIAN_POINT('Origin',(80.5000005662441,-17.5000002607703,-1.5));
#1530=CARTESIAN_POINT('',(80.5000005662441,-17.5000002607703,-1.2));
#1531=CARTESIAN_POINT('',(80.5000005662441,-17.5000002607703,-1.5));
#1532=CARTESIAN_POINT('',(79.500000141561,-17.5000002607703,-1.2));
#1533=CARTESIAN_POINT('Origin',(80.5000005662441,-18.4999997317791,-1.5));
#1534=CARTESIAN_POINT('',(80.5000005662441,-18.4999997317791,-1.2));
#1535=CARTESIAN_POINT('',(80.5000005662441,-18.4999997317791,-1.5));
#1536=CARTESIAN_POINT('',(80.5000005662441,-17.5000002607703,-1.2));
#1537=CARTESIAN_POINT('Origin',(81.5000001713634,-18.4999997317791,-1.5));
#1538=CARTESIAN_POINT('',(81.5000001713634,-18.4999997317791,-1.2));
#1539=CARTESIAN_POINT('',(81.5000001713634,-18.4999997317791,-1.5));
#1540=CARTESIAN_POINT('',(80.5000005662441,-18.4999997317791,-1.2));
#1541=CARTESIAN_POINT('Origin',(81.5000001713634,-19.5000002905726,-1.5));
#1542=CARTESIAN_POINT('',(81.5000001713634,-19.5000002905726,-1.2));
#1543=CARTESIAN_POINT('',(81.5000001713634,-19.5000002905726,-1.5));
#1544=CARTESIAN_POINT('',(81.5000001713634,-18.4999997317791,-1.2));
#1545=CARTESIAN_POINT('Origin',(82.5000001862645,-19.5000002905726,-1.5));
#1546=CARTESIAN_POINT('',(82.5000001862645,-19.5000002905726,-1.2));
#1547=CARTESIAN_POINT('',(82.5000001862645,-19.5000002905726,-1.5));
#1548=CARTESIAN_POINT('',(81.5000001713634,-19.5000002905726,-1.2));
#1549=CARTESIAN_POINT('Origin',(82.5000001862645,-20.5000003054738,-1.5));
#1550=CARTESIAN_POINT('',(82.5000001862645,-20.5000003054738,-1.2));
#1551=CARTESIAN_POINT('',(82.5000001862645,-20.5000003054738,-1.5));
#1552=CARTESIAN_POINT('',(82.5000001862645,-19.5000002905726,-1.2));
#1553=CARTESIAN_POINT('Origin',(83.5000002011657,-20.5000003054738,-1.5));
#1554=CARTESIAN_POINT('',(83.5000002011657,-20.5000003054738,-1.2));
#1555=CARTESIAN_POINT('',(83.5000002011657,-20.5000003054738,-1.5));
#1556=CARTESIAN_POINT('',(82.5000001862645,-20.5000003054738,-1.2));
#1557=CARTESIAN_POINT('Origin',(83.5000002011657,-21.500000320375,-1.5));
#1558=CARTESIAN_POINT('',(83.5000002011657,-21.500000320375,-1.2));
#1559=CARTESIAN_POINT('',(83.5000002011657,-21.500000320375,-1.5));
#1560=CARTESIAN_POINT('',(83.5000002011657,-20.5000003054738,-1.2));
#1561=CARTESIAN_POINT('Origin',(84.5000005662441,-21.500000320375,-1.5));
#1562=CARTESIAN_POINT('',(84.5000005662441,-21.500000320375,-1.2));
#1563=CARTESIAN_POINT('',(84.5000005662441,-21.500000320375,-1.5));
#1564=CARTESIAN_POINT('',(83.5000002011657,-21.500000320375,-1.2));
#1565=CARTESIAN_POINT('Origin',(84.5000005662441,-22.4999997317791,-1.5));
#1566=CARTESIAN_POINT('',(84.5000005662441,-22.4999997317791,-1.2));
#1567=CARTESIAN_POINT('',(84.5000005662441,-22.4999997317791,-1.5));
#1568=CARTESIAN_POINT('',(84.5000005662441,-21.500000320375,-1.2));
#1569=CARTESIAN_POINT('Origin',(68.5000005662441,-22.4999997317791,-1.5));
#1570=CARTESIAN_POINT('',(68.5000005662441,-22.4999997317791,-1.2));
#1571=CARTESIAN_POINT('',(68.5000005662441,-22.4999997317791,-1.5));
#1572=CARTESIAN_POINT('',(84.5000005662441,-22.4999997317791,-1.2));
#1573=CARTESIAN_POINT('Origin',(68.5000005662441,-21.500000320375,-1.5));
#1574=CARTESIAN_POINT('',(68.5000005662441,-21.500000320375,-1.2));
#1575=CARTESIAN_POINT('',(68.5000005662441,-21.500000320375,-1.5));
#1576=CARTESIAN_POINT('',(68.5000005662441,-21.500000320375,-1.2));
#1577=CARTESIAN_POINT('Origin',(69.4999999925494,-21.500000320375,-1.5));
#1578=CARTESIAN_POINT('',(69.4999999925494,-21.500000320375,-1.2));
#1579=CARTESIAN_POINT('',(69.4999999925494,-21.500000320375,-1.5));
#1580=CARTESIAN_POINT('',(69.4999999925494,-21.500000320375,-1.2));
#1581=CARTESIAN_POINT('Origin',(69.4999999925494,-20.5000003054738,-1.5));
#1582=CARTESIAN_POINT('',(69.4999999925494,-20.5000003054738,-1.2));
#1583=CARTESIAN_POINT('',(69.4999999925494,-20.5000003054738,-1.5));
#1584=CARTESIAN_POINT('',(69.4999999925494,-20.5000003054738,-1.2));
#1585=CARTESIAN_POINT('Origin',(70.5000000074506,-20.5000003054738,-1.5));
#1586=CARTESIAN_POINT('',(70.5000000074506,-20.5000003054738,-1.2));
#1587=CARTESIAN_POINT('',(70.5000000074506,-20.5000003054738,-1.5));
#1588=CARTESIAN_POINT('',(70.5000000074506,-20.5000003054738,-1.2));
#1589=CARTESIAN_POINT('Origin',(70.5000000074506,-19.5000002905726,-1.5));
#1590=CARTESIAN_POINT('',(70.5000000074506,-19.5000002905726,-1.2));
#1591=CARTESIAN_POINT('',(70.5000000074506,-19.5000002905726,-1.5));
#1592=CARTESIAN_POINT('',(70.5000000074506,-19.5000002905726,-1.2));
#1593=CARTESIAN_POINT('Origin',(71.5000000223517,-19.5000002905726,-1.5));
#1594=CARTESIAN_POINT('',(71.5000000223517,-19.5000002905726,-1.2));
#1595=CARTESIAN_POINT('',(71.5000000223517,-19.5000002905726,-1.5));
#1596=CARTESIAN_POINT('',(71.5000000223517,-19.5000002905726,-1.2));
#1597=CARTESIAN_POINT('Origin',(71.5000000223517,-18.4999997317791,-1.5));
#1598=CARTESIAN_POINT('',(71.5000000223517,-18.4999997317791,-1.2));
#1599=CARTESIAN_POINT('',(71.5000000223517,-18.4999997317791,-1.5));
#1600=CARTESIAN_POINT('',(71.5000000223517,-18.4999997317791,-1.2));
#1601=CARTESIAN_POINT('Origin',(72.5000005662441,-18.4999997317791,-1.5));
#1602=CARTESIAN_POINT('',(72.5000005662441,-18.4999997317791,-1.2));
#1603=CARTESIAN_POINT('',(72.5000005662441,-18.4999997317791,-1.5));
#1604=CARTESIAN_POINT('',(72.5000005662441,-18.4999997317791,-1.2));
#1605=CARTESIAN_POINT('Origin',(72.5000005662441,-17.5000002607703,-1.5));
#1606=CARTESIAN_POINT('',(72.5000005662441,-17.5000002607703,-1.2));
#1607=CARTESIAN_POINT('',(72.5000005662441,-17.5000002607703,-1.5));
#1608=CARTESIAN_POINT('',(72.5000005662441,-17.5000002607703,-1.2));
#1609=CARTESIAN_POINT('Origin',(73.5000000521541,-17.5000002607703,-1.5));
#1610=CARTESIAN_POINT('',(73.5000000521541,-17.5000002607703,-1.2));
#1611=CARTESIAN_POINT('',(73.5000000521541,-17.5000002607703,-1.5));
#1612=CARTESIAN_POINT('',(73.5000000521541,-17.5000002607703,-1.2));
#1613=CARTESIAN_POINT('Origin',(73.5000000521541,-16.5000002458692,-1.5));
#1614=CARTESIAN_POINT('',(73.5000000521541,-16.5000002458692,-1.2));
#1615=CARTESIAN_POINT('',(73.5000000521541,-16.5000002458692,-1.5));
#1616=CARTESIAN_POINT('',(73.5000000521541,-16.5000002458692,-1.2));
#1617=CARTESIAN_POINT('Origin',(74.5000000670552,-16.5000002458692,-1.5));
#1618=CARTESIAN_POINT('',(74.5000000670552,-16.5000002458692,-1.2));
#1619=CARTESIAN_POINT('',(74.5000000670552,-16.5000002458692,-1.5));
#1620=CARTESIAN_POINT('',(74.5000000670552,-16.5000002458692,-1.2));
#1621=CARTESIAN_POINT('Origin',(74.5000000670552,-15.500000230968,-1.5));
#1622=CARTESIAN_POINT('',(74.5000000670552,-15.500000230968,-1.2));
#1623=CARTESIAN_POINT('',(74.5000000670552,-15.500000230968,-1.5));
#1624=CARTESIAN_POINT('',(74.5000000670552,-15.500000230968,-1.2));
#1625=CARTESIAN_POINT('Origin',(75.5000000819564,-15.500000230968,-1.5));
#1626=CARTESIAN_POINT('',(75.5000000819564,-15.500000230968,-1.2));
#1627=CARTESIAN_POINT('',(75.5000000819564,-15.500000230968,-1.5));
#1628=CARTESIAN_POINT('',(75.5000000819564,-15.500000230968,-1.2));
#1629=CARTESIAN_POINT('Origin',(75.5000000819564,-14.4999997317791,-1.5));
#1630=CARTESIAN_POINT('',(75.5000000819564,-14.4999997317791,-1.2));
#1631=CARTESIAN_POINT('',(75.5000000819564,-14.4999997317791,-1.5));
#1632=CARTESIAN_POINT('',(75.5000000819564,-14.4999997317791,-1.2));
#1633=CARTESIAN_POINT('Origin',(77.5000001117587,-14.4999997317791,-1.5));
#1634=CARTESIAN_POINT('',(76.5000005662441,-14.4999997317791,-1.2));
#1635=CARTESIAN_POINT('Origin',(76.5000005662441,-18.4999997317791,-1.2));
#1636=CARTESIAN_POINT('Origin',(76.5000005662441,-58.9999997317791,-1.5));
#1637=CARTESIAN_POINT('',(75.4375005662441,-58.9999997317791,0.499999999999999));
#1638=CARTESIAN_POINT('Origin',(76.5000005662441,-58.9999997317791,0.499999999999999));
#1639=CARTESIAN_POINT('',(75.4375005662441,-58.9999997317791,2.));
#1640=CARTESIAN_POINT('',(75.4375005662441,-58.9999997317791,-1.5));
#1641=CARTESIAN_POINT('Origin',(76.5000005662441,-58.9999997317791,2.));
#1642=CARTESIAN_POINT('Origin',(76.5000005662441,-58.9999997317791,-1.5));
#1643=CARTESIAN_POINT('',(74.4375005662441,-58.9999997317791,0.499999999999999));
#1644=CARTESIAN_POINT('',(74.4375005662441,-58.9999997317791,-1.5));
#1645=CARTESIAN_POINT('Origin',(76.5000005662441,-58.9999997317791,0.499999999999999));
#1646=CARTESIAN_POINT('Origin',(76.5000005662441,-58.9999997317791,0.499999999999999));
#1647=CARTESIAN_POINT('Origin',(46.5000005662441,-69.4999997317791,-5.55111512312578E-16));
#1648=CARTESIAN_POINT('',(46.5000005662441,-6.49999973177909,-5.55111512312578E-16));
#1649=CARTESIAN_POINT('',(46.5000005662441,-35.4999997317791,-5.55111512312578E-16));
#1650=CARTESIAN_POINT('',(46.5000005662441,-6.49999973177909,-5.55111512312578E-16));
#1651=CARTESIAN_POINT('Origin',(46.5000005662441,-6.49999973177909,-5.55111512312578E-16));
#1652=CARTESIAN_POINT('',(45.7500000968576,-6.49999973177909,-5.55111512312578E-16));
#1653=CARTESIAN_POINT('Origin',(44.999999627471,-1.49999973177909,-5.55111512312578E-16));
#1654=CARTESIAN_POINT('',(108.000000566244,-1.49999973177909,-5.55111512312578E-16));
#1655=CARTESIAN_POINT('',(108.000000566244,-1.49999973177909,-5.55111512312578E-16));
#1656=CARTESIAN_POINT('',(108.000000566244,-1.49999973177909,-5.55111512312578E-16));
#1657=CARTESIAN_POINT('Origin',(108.000000566244,-1.49999973177909,2.));
#1658=CARTESIAN_POINT('',(108.000000566244,-1.49999973177909,2.));
#1659=CARTESIAN_POINT('',(108.000000566244,-1.49999973177909,2.));
#1660=CARTESIAN_POINT('',(44.999999627471,-1.49999973177909,2.));
#1661=CARTESIAN_POINT('Origin',(108.000000566244,-1.49999973177909,-5.55111512312578E-16));
#1662=CARTESIAN_POINT('',(108.000000566244,-1.49999973177909,2.));
#1663=CARTESIAN_POINT('Origin',(76.5000000968575,-1.49999973177909,1.));
#1664=UNCERTAINTY_MEASURE_WITH_UNIT(LENGTH_MEASURE(0.01),#1668,
'DISTANCE_ACCURACY_VALUE',
'Maximum model space distance between geometric entities at asserted c
onnectivities');
#1665=UNCERTAINTY_MEASURE_WITH_UNIT(LENGTH_MEASURE(0.01),#1668,
'DISTANCE_ACCURACY_VALUE',
'Maximum model space distance between geometric entities at asserted c
onnectivities');
#1666=(
GEOMETRIC_REPRESENTATION_CONTEXT(3)
GLOBAL_UNCERTAINTY_ASSIGNED_CONTEXT((#1664))
GLOBAL_UNIT_ASSIGNED_CONTEXT((#1668,#1669,#1670))
REPRESENTATION_CONTEXT('','3D')
);
#1667=(
GEOMETRIC_REPRESENTATION_CONTEXT(3)
GLOBAL_UNCERTAINTY_ASSIGNED_CONTEXT((#1665))
GLOBAL_UNIT_ASSIGNED_CONTEXT((#1668,#1669,#1670))
REPRESENTATION_CONTEXT('','3D')
);
#1668=(
LENGTH_UNIT()
NAMED_UNIT(*)
SI_UNIT(.MILLI.,.METRE.)
);
#1669=(
NAMED_UNIT(*)
PLANE_ANGLE_UNIT()
SI_UNIT($,.RADIAN.)
);
#1670=(
NAMED_UNIT(*)
SI_UNIT($,.STERADIAN.)
SOLID_ANGLE_UNIT()
);
#1671=SHAPE_DEFINITION_REPRESENTATION(#1672,#1673);
#1672=PRODUCT_DEFINITION_SHAPE('',$,#1675);
#1673=SHAPE_REPRESENTATION('',(#1044),#1666);
#1674=PRODUCT_DEFINITION_CONTEXT('part definition',#1679,'design');
#1675=PRODUCT_DEFINITION('2026-08-07-23-02-26-632','3D HACK-PAD',#1676,
#1674);
#1676=PRODUCT_DEFINITION_FORMATION('',$,#1681);
#1677=PRODUCT_RELATED_PRODUCT_CATEGORY('3D HACK-PAD','3D HACK-PAD',(#1681));
#1678=APPLICATION_PROTOCOL_DEFINITION('international standard',
'automotive_design',2009,#1679);
#1679=APPLICATION_CONTEXT(
'Core Data for Automotive Mechanical Design Process');
#1680=PRODUCT_CONTEXT('part definition',#1679,'mechanical');
#1681=PRODUCT('2026-08-07-23-02-26-632','3D HACK-PAD',
'KiCad electronic assembly',(#1680));
#1682=PRESENTATION_STYLE_ASSIGNMENT((#1685));
#1683=PRESENTATION_STYLE_ASSIGNMENT((#1686));
#1684=PRESENTATION_STYLE_ASSIGNMENT((#1687));
#1685=SURFACE_STYLE_USAGE(.BOTH.,#1688);
#1686=SURFACE_STYLE_USAGE(.BOTH.,#1689);
#1687=SURFACE_STYLE_USAGE(.BOTH.,#1690);
#1688=SURFACE_SIDE_STYLE('',(#1691));
#1689=SURFACE_SIDE_STYLE('',(#1692));
#1690=SURFACE_SIDE_STYLE('',(#1693));
#1691=SURFACE_STYLE_FILL_AREA(#1694);
#1692=SURFACE_STYLE_FILL_AREA(#1695);
#1693=SURFACE_STYLE_FILL_AREA(#1696);
#1694=FILL_AREA_STYLE('Steel - Satin',(#1697));
#1695=FILL_AREA_STYLE('Opaque(64,64,64)',(#1698));
#1696=FILL_AREA_STYLE('Powder Coat - Rough (Red)',(#1699));
#1697=FILL_AREA_STYLE_COLOUR('Steel - Satin',#1700);
#1698=FILL_AREA_STYLE_COLOUR('Opaque(64,64,64)',#1701);
#1699=FILL_AREA_STYLE_COLOUR('Powder Coat - Rough (Red)',#1702);
#1700=COLOUR_RGB('Steel - Satin',0.627450980392157,0.627450980392157,0.627450980392157);
#1701=COLOUR_RGB('Opaque(64,64,64)',0.250980392156863,0.250980392156863,
0.250980392156863);
#1702=COLOUR_RGB('Powder Coat - Rough (Red)',0.768627450980392,0.207843137254902,
0.152941176470588);
ENDSEC;
END-ISO-10303-21;
