ISO-10303-21;
HEADER;
/* Generated by software containing ST-Developer
 * from STEP Tools, Inc. (www.steptools.com) 
 */

FILE_DESCRIPTION(
/* description */ ('KiCad electronic assembly'),
/* implementation_level */ '2;1');

FILE_NAME(
/* name */ '3D HACK-PAD Top.step',
/* time_stamp */ '2026-08-26T18:28:50-06:00',
/* author */ (''),
/* organization */ (''),
/* preprocessor_version */ 'ST-DEVELOPER v20.1',
/* originating_system */ 'Autodesk Translation Framework v15.8.0.0',
/* authorisation */ '');

FILE_SCHEMA (('AUTOMOTIVE_DESIGN { 1 0 10303 214 3 1 1 }'));
ENDSEC;

DATA;
#10=MECHANICAL_DESIGN_GEOMETRIC_PRESENTATION_REPRESENTATION('',(#13),#1561);
#11=SHAPE_REPRESENTATION_RELATIONSHIP('SRR','None',#1567,#12);
#12=ADVANCED_BREP_SHAPE_REPRESENTATION('',(#14),#1560);
#13=STYLED_ITEM('',(#1578),#14);
#14=MANIFOLD_SOLID_BREP('Body4',#953);
#15=FACE_BOUND('',#129,.T.);
#16=FACE_BOUND('',#132,.T.);
#17=FACE_BOUND('',#135,.T.);
#18=FACE_BOUND('',#138,.T.);
#19=FACE_BOUND('',#144,.T.);
#20=FACE_BOUND('',#145,.T.);
#21=FACE_BOUND('',#146,.T.);
#22=FACE_BOUND('',#147,.T.);
#23=FACE_BOUND('',#148,.T.);
#24=FACE_BOUND('',#149,.T.);
#25=FACE_BOUND('',#150,.T.);
#26=FACE_BOUND('',#151,.T.);
#27=FACE_BOUND('',#152,.T.);
#28=FACE_BOUND('',#153,.T.);
#29=FACE_BOUND('',#154,.T.);
#30=FACE_BOUND('',#155,.T.);
#31=FACE_BOUND('',#156,.T.);
#32=FACE_BOUND('',#157,.T.);
#33=FACE_BOUND('',#158,.T.);
#34=FACE_BOUND('',#160,.T.);
#35=FACE_BOUND('',#161,.T.);
#36=FACE_BOUND('',#162,.T.);
#37=FACE_BOUND('',#163,.T.);
#38=FACE_BOUND('',#164,.T.);
#39=FACE_BOUND('',#165,.T.);
#40=FACE_BOUND('',#166,.T.);
#41=FACE_BOUND('',#167,.T.);
#42=FACE_BOUND('',#168,.T.);
#43=FACE_BOUND('',#169,.T.);
#44=FACE_BOUND('',#170,.T.);
#45=FACE_BOUND('',#171,.T.);
#46=FACE_BOUND('',#172,.T.);
#47=FACE_BOUND('',#173,.T.);
#48=FACE_BOUND('',#174,.T.);
#49=PLANE('',#958);
#50=PLANE('',#963);
#51=PLANE('',#968);
#52=PLANE('',#973);
#53=PLANE('',#987);
#54=PLANE('',#998);
#55=PLANE('',#1005);
#56=PLANE('',#1006);
#57=PLANE('',#1007);
#58=PLANE('',#1008);
#59=PLANE('',#1010);
#60=PLANE('',#1011);
#61=PLANE('',#1012);
#62=PLANE('',#1013);
#63=PLANE('',#1018);
#64=PLANE('',#1019);
#65=PLANE('',#1020);
#66=PLANE('',#1021);
#67=PLANE('',#1023);
#68=PLANE('',#1024);
#69=PLANE('',#1025);
#70=PLANE('',#1026);
#71=PLANE('',#1027);
#72=PLANE('',#1028);
#73=PLANE('',#1029);
#74=PLANE('',#1030);
#75=PLANE('',#1033);
#76=PLANE('',#1034);
#77=PLANE('',#1035);
#78=PLANE('',#1036);
#79=FACE_OUTER_BOUND('',#127,.T.);
#80=FACE_OUTER_BOUND('',#128,.T.);
#81=FACE_OUTER_BOUND('',#130,.T.);
#82=FACE_OUTER_BOUND('',#131,.T.);
#83=FACE_OUTER_BOUND('',#133,.T.);
#84=FACE_OUTER_BOUND('',#134,.T.);
#85=FACE_OUTER_BOUND('',#136,.T.);
#86=FACE_OUTER_BOUND('',#137,.T.);
#87=FACE_OUTER_BOUND('',#139,.T.);
#88=FACE_OUTER_BOUND('',#140,.T.);
#89=FACE_OUTER_BOUND('',#141,.T.);
#90=FACE_OUTER_BOUND('',#142,.T.);
#91=FACE_OUTER_BOUND('',#143,.T.);
#92=FACE_OUTER_BOUND('',#159,.T.);
#93=FACE_OUTER_BOUND('',#175,.T.);
#94=FACE_OUTER_BOUND('',#176,.T.);
#95=FACE_OUTER_BOUND('',#177,.T.);
#96=FACE_OUTER_BOUND('',#178,.T.);
#97=FACE_OUTER_BOUND('',#179,.T.);
#98=FACE_OUTER_BOUND('',#180,.T.);
#99=FACE_OUTER_BOUND('',#181,.T.);
#100=FACE_OUTER_BOUND('',#182,.T.);
#101=FACE_OUTER_BOUND('',#183,.T.);
#102=FACE_OUTER_BOUND('',#184,.T.);
#103=FACE_OUTER_BOUND('',#185,.T.);
#104=FACE_OUTER_BOUND('',#186,.T.);
#105=FACE_OUTER_BOUND('',#187,.T.);
#106=FACE_OUTER_BOUND('',#188,.T.);
#107=FACE_OUTER_BOUND('',#189,.T.);
#108=FACE_OUTER_BOUND('',#190,.T.);
#109=FACE_OUTER_BOUND('',#191,.T.);
#110=FACE_OUTER_BOUND('',#192,.T.);
#111=FACE_OUTER_BOUND('',#193,.T.);
#112=FACE_OUTER_BOUND('',#194,.T.);
#113=FACE_OUTER_BOUND('',#195,.T.);
#114=FACE_OUTER_BOUND('',#196,.T.);
#115=FACE_OUTER_BOUND('',#197,.T.);
#116=FACE_OUTER_BOUND('',#198,.T.);
#117=FACE_OUTER_BOUND('',#199,.T.);
#118=FACE_OUTER_BOUND('',#200,.T.);
#119=FACE_OUTER_BOUND('',#201,.T.);
#120=FACE_OUTER_BOUND('',#202,.T.);
#121=FACE_OUTER_BOUND('',#203,.T.);
#122=FACE_OUTER_BOUND('',#204,.T.);
#123=FACE_OUTER_BOUND('',#205,.T.);
#124=FACE_OUTER_BOUND('',#206,.T.);
#125=FACE_OUTER_BOUND('',#207,.T.);
#126=FACE_OUTER_BOUND('',#208,.T.);
#127=EDGE_LOOP('',(#635,#636,#637,#638));
#128=EDGE_LOOP('',(#639));
#129=EDGE_LOOP('',(#640));
#130=EDGE_LOOP('',(#641,#642,#643,#644));
#131=EDGE_LOOP('',(#645));
#132=EDGE_LOOP('',(#646));
#133=EDGE_LOOP('',(#647,#648,#649,#650));
#134=EDGE_LOOP('',(#651));
#135=EDGE_LOOP('',(#652));
#136=EDGE_LOOP('',(#653,#654,#655,#656));
#137=EDGE_LOOP('',(#657));
#138=EDGE_LOOP('',(#658));
#139=EDGE_LOOP('',(#659,#660,#661,#662));
#140=EDGE_LOOP('',(#663,#664,#665,#666));
#141=EDGE_LOOP('',(#667,#668,#669,#670));
#142=EDGE_LOOP('',(#671,#672,#673,#674));
#143=EDGE_LOOP('',(#675,#676,#677,#678,#679,#680,#681,#682));
#144=EDGE_LOOP('',(#683));
#145=EDGE_LOOP('',(#684,#685,#686,#687));
#146=EDGE_LOOP('',(#688));
#147=EDGE_LOOP('',(#689));
#148=EDGE_LOOP('',(#690));
#149=EDGE_LOOP('',(#691));
#150=EDGE_LOOP('',(#692,#693,#694,#695));
#151=EDGE_LOOP('',(#696));
#152=EDGE_LOOP('',(#697,#698,#699,#700));
#153=EDGE_LOOP('',(#701,#702,#703,#704));
#154=EDGE_LOOP('',(#705));
#155=EDGE_LOOP('',(#706));
#156=EDGE_LOOP('',(#707,#708,#709,#710));
#157=EDGE_LOOP('',(#711));
#158=EDGE_LOOP('',(#712));
#159=EDGE_LOOP('',(#713,#714,#715,#716,#717,#718,#719,#720));
#160=EDGE_LOOP('',(#721));
#161=EDGE_LOOP('',(#722));
#162=EDGE_LOOP('',(#723));
#163=EDGE_LOOP('',(#724,#725,#726,#727));
#164=EDGE_LOOP('',(#728));
#165=EDGE_LOOP('',(#729));
#166=EDGE_LOOP('',(#730,#731,#732,#733));
#167=EDGE_LOOP('',(#734));
#168=EDGE_LOOP('',(#735,#736,#737,#738));
#169=EDGE_LOOP('',(#739,#740,#741,#742));
#170=EDGE_LOOP('',(#743));
#171=EDGE_LOOP('',(#744,#745,#746,#747));
#172=EDGE_LOOP('',(#748));
#173=EDGE_LOOP('',(#749));
#174=EDGE_LOOP('',(#750));
#175=EDGE_LOOP('',(#751,#752,#753,#754));
#176=EDGE_LOOP('',(#755,#756,#757,#758));
#177=EDGE_LOOP('',(#759,#760,#761,#762));
#178=EDGE_LOOP('',(#763,#764,#765,#766));
#179=EDGE_LOOP('',(#767,#768,#769,#770));
#180=EDGE_LOOP('',(#771,#772,#773,#774));
#181=EDGE_LOOP('',(#775,#776,#777,#778));
#182=EDGE_LOOP('',(#779,#780,#781,#782));
#183=EDGE_LOOP('',(#783,#784,#785,#786));
#184=EDGE_LOOP('',(#787,#788,#789,#790));
#185=EDGE_LOOP('',(#791,#792,#793,#794));
#186=EDGE_LOOP('',(#795,#796,#797,#798));
#187=EDGE_LOOP('',(#799,#800,#801,#802));
#188=EDGE_LOOP('',(#803,#804,#805,#806));
#189=EDGE_LOOP('',(#807,#808,#809,#810));
#190=EDGE_LOOP('',(#811,#812,#813,#814));
#191=EDGE_LOOP('',(#815,#816,#817,#818));
#192=EDGE_LOOP('',(#819,#820,#821,#822));
#193=EDGE_LOOP('',(#823,#824,#825,#826));
#194=EDGE_LOOP('',(#827,#828,#829,#830));
#195=EDGE_LOOP('',(#831,#832,#833,#834));
#196=EDGE_LOOP('',(#835,#836,#837,#838));
#197=EDGE_LOOP('',(#839,#840,#841,#842));
#198=EDGE_LOOP('',(#843,#844,#845,#846));
#199=EDGE_LOOP('',(#847,#848,#849,#850));
#200=EDGE_LOOP('',(#851,#852,#853,#854));
#201=EDGE_LOOP('',(#855,#856,#857,#858));
#202=EDGE_LOOP('',(#859,#860,#861,#862));
#203=EDGE_LOOP('',(#863,#864,#865,#866));
#204=EDGE_LOOP('',(#867,#868,#869,#870));
#205=EDGE_LOOP('',(#871,#872,#873,#874));
#206=EDGE_LOOP('',(#875,#876,#877,#878));
#207=EDGE_LOOP('',(#879,#880,#881,#882));
#208=EDGE_LOOP('',(#883,#884,#885,#886));
#209=LINE('',#1304,#299);
#210=LINE('',#1313,#300);
#211=LINE('',#1322,#301);
#212=LINE('',#1331,#302);
#213=LINE('',#1341,#303);
#214=LINE('',#1344,#304);
#215=LINE('',#1350,#305);
#216=LINE('',#1353,#306);
#217=LINE('',#1359,#307);
#218=LINE('',#1362,#308);
#219=LINE('',#1368,#309);
#220=LINE('',#1371,#310);
#221=LINE('',#1373,#311);
#222=LINE('',#1374,#312);
#223=LINE('',#1375,#313);
#224=LINE('',#1376,#314);
#225=LINE('',#1381,#315);
#226=LINE('',#1383,#316);
#227=LINE('',#1385,#317);
#228=LINE('',#1386,#318);
#229=LINE('',#1397,#319);
#230=LINE('',#1399,#320);
#231=LINE('',#1401,#321);
#232=LINE('',#1402,#322);
#233=LINE('',#1407,#323);
#234=LINE('',#1409,#324);
#235=LINE('',#1411,#325);
#236=LINE('',#1412,#326);
#237=LINE('',#1415,#327);
#238=LINE('',#1417,#328);
#239=LINE('',#1419,#329);
#240=LINE('',#1420,#330);
#241=LINE('',#1427,#331);
#242=LINE('',#1429,#332);
#243=LINE('',#1431,#333);
#244=LINE('',#1432,#334);
#245=LINE('',#1438,#335);
#246=LINE('',#1439,#336);
#247=LINE('',#1440,#337);
#248=LINE('',#1441,#338);
#249=LINE('',#1446,#339);
#250=LINE('',#1448,#340);
#251=LINE('',#1450,#341);
#252=LINE('',#1451,#342);
#253=LINE('',#1458,#343);
#254=LINE('',#1460,#344);
#255=LINE('',#1462,#345);
#256=LINE('',#1463,#346);
#257=LINE('',#1468,#347);
#258=LINE('',#1470,#348);
#259=LINE('',#1472,#349);
#260=LINE('',#1473,#350);
#261=LINE('',#1476,#351);
#262=LINE('',#1478,#352);
#263=LINE('',#1480,#353);
#264=LINE('',#1481,#354);
#265=LINE('',#1486,#355);
#266=LINE('',#1488,#356);
#267=LINE('',#1490,#357);
#268=LINE('',#1491,#358);
#269=LINE('',#1499,#359);
#270=LINE('',#1501,#360);
#271=LINE('',#1502,#361);
#272=LINE('',#1504,#362);
#273=LINE('',#1506,#363);
#274=LINE('',#1509,#364);
#275=LINE('',#1511,#365);
#276=LINE('',#1513,#366);
#277=LINE('',#1515,#367);
#278=LINE('',#1517,#368);
#279=LINE('',#1518,#369);
#280=LINE('',#1520,#370);
#281=LINE('',#1522,#371);
#282=LINE('',#1525,#372);
#283=LINE('',#1527,#373);
#284=LINE('',#1528,#374);
#285=LINE('',#1530,#375);
#286=LINE('',#1532,#376);
#287=LINE('',#1535,#377);
#288=LINE('',#1536,#378);
#289=LINE('',#1538,#379);
#290=LINE('',#1540,#380);
#291=LINE('',#1543,#381);
#292=LINE('',#1545,#382);
#293=LINE('',#1547,#383);
#294=LINE('',#1548,#384);
#295=LINE('',#1550,#385);
#296=LINE('',#1552,#386);
#297=LINE('',#1555,#387);
#298=LINE('',#1557,#388);
#299=VECTOR('',#1045,2.5);
#300=VECTOR('',#1056,2.49999962483449);
#301=VECTOR('',#1067,2.5000012803535);
#302=VECTOR('',#1078,2.5);
#303=VECTOR('',#1089,10.);
#304=VECTOR('',#1092,10.);
#305=VECTOR('',#1097,10.);
#306=VECTOR('',#1100,10.);
#307=VECTOR('',#1105,10.);
#308=VECTOR('',#1108,10.);
#309=VECTOR('',#1113,10.);
#310=VECTOR('',#1116,10.);
#311=VECTOR('',#1119,10.);
#312=VECTOR('',#1120,10.);
#313=VECTOR('',#1121,10.);
#314=VECTOR('',#1122,10.);
#315=VECTOR('',#1125,10.);
#316=VECTOR('',#1126,10.);
#317=VECTOR('',#1127,10.);
#318=VECTOR('',#1128,10.);
#319=VECTOR('',#1137,10.);
#320=VECTOR('',#1138,10.);
#321=VECTOR('',#1139,10.);
#322=VECTOR('',#1140,10.);
#323=VECTOR('',#1143,10.);
#324=VECTOR('',#1144,10.);
#325=VECTOR('',#1145,10.);
#326=VECTOR('',#1146,10.);
#327=VECTOR('',#1147,10.);
#328=VECTOR('',#1148,10.);
#329=VECTOR('',#1149,10.);
#330=VECTOR('',#1150,10.);
#331=VECTOR('',#1155,10.);
#332=VECTOR('',#1156,10.);
#333=VECTOR('',#1157,10.);
#334=VECTOR('',#1158,10.);
#335=VECTOR('',#1165,10.);
#336=VECTOR('',#1166,10.);
#337=VECTOR('',#1167,10.);
#338=VECTOR('',#1168,10.);
#339=VECTOR('',#1171,10.);
#340=VECTOR('',#1172,10.);
#341=VECTOR('',#1173,10.);
#342=VECTOR('',#1174,10.);
#343=VECTOR('',#1179,10.);
#344=VECTOR('',#1180,10.);
#345=VECTOR('',#1181,10.);
#346=VECTOR('',#1182,10.);
#347=VECTOR('',#1185,10.);
#348=VECTOR('',#1186,10.);
#349=VECTOR('',#1187,10.);
#350=VECTOR('',#1188,10.);
#351=VECTOR('',#1189,10.);
#352=VECTOR('',#1190,10.);
#353=VECTOR('',#1191,10.);
#354=VECTOR('',#1192,10.);
#355=VECTOR('',#1195,10.);
#356=VECTOR('',#1196,10.);
#357=VECTOR('',#1197,10.);
#358=VECTOR('',#1198,10.);
#359=VECTOR('',#1211,2.5);
#360=VECTOR('',#1214,10.);
#361=VECTOR('',#1215,10.);
#362=VECTOR('',#1218,10.);
#363=VECTOR('',#1221,10.);
#364=VECTOR('',#1226,2.5);
#365=VECTOR('',#1229,2.5);
#366=VECTOR('',#1232,1.0625);
#367=VECTOR('',#1235,1.0625);
#368=VECTOR('',#1238,10.);
#369=VECTOR('',#1239,10.);
#370=VECTOR('',#1242,10.);
#371=VECTOR('',#1245,10.);
#372=VECTOR('',#1250,2.5);
#373=VECTOR('',#1253,10.);
#374=VECTOR('',#1254,10.);
#375=VECTOR('',#1257,10.);
#376=VECTOR('',#1260,10.);
#377=VECTOR('',#1265,10.);
#378=VECTOR('',#1266,10.);
#379=VECTOR('',#1269,10.);
#380=VECTOR('',#1272,10.);
#381=VECTOR('',#1277,1.0625);
#382=VECTOR('',#1280,2.5);
#383=VECTOR('',#1283,10.);
#384=VECTOR('',#1284,10.);
#385=VECTOR('',#1287,10.);
#386=VECTOR('',#1290,10.);
#387=VECTOR('',#1295,2.5);
#388=VECTOR('',#1298,1.0625);
#389=CIRCLE('',#956,2.5);
#390=CIRCLE('',#957,2.5);
#391=CIRCLE('',#959,1.06249999999999);
#392=CIRCLE('',#961,2.49999962483449);
#393=CIRCLE('',#962,2.49999962483449);
#394=CIRCLE('',#964,1.0625);
#395=CIRCLE('',#966,2.5000012803535);
#396=CIRCLE('',#967,2.5000012803535);
#397=CIRCLE('',#969,1.0625);
#398=CIRCLE('',#971,2.5);
#399=CIRCLE('',#972,2.5);
#400=CIRCLE('',#974,1.06249999999999);
#401=CIRCLE('',#976,10.);
#402=CIRCLE('',#977,10.);
#403=CIRCLE('',#979,9.99999999999999);
#404=CIRCLE('',#980,9.99999999999999);
#405=CIRCLE('',#982,10.);
#406=CIRCLE('',#983,10.);
#407=CIRCLE('',#985,10.);
#408=CIRCLE('',#986,10.);
#409=CIRCLE('',#988,2.5);
#410=CIRCLE('',#989,2.5);
#411=CIRCLE('',#990,2.5);
#412=CIRCLE('',#991,1.0625);
#413=CIRCLE('',#992,1.0625);
#414=CIRCLE('',#993,2.5);
#415=CIRCLE('',#994,1.0625);
#416=CIRCLE('',#995,2.5);
#417=CIRCLE('',#996,2.5);
#418=CIRCLE('',#997,1.0625);
#419=CIRCLE('',#999,2.5);
#420=CIRCLE('',#1000,2.5);
#421=CIRCLE('',#1001,2.5);
#422=CIRCLE('',#1002,2.5);
#423=CIRCLE('',#1003,2.5);
#424=CIRCLE('',#1004,2.5);
#425=VERTEX_POINT('',#1301);
#426=VERTEX_POINT('',#1303);
#427=VERTEX_POINT('',#1307);
#428=VERTEX_POINT('',#1310);
#429=VERTEX_POINT('',#1312);
#430=VERTEX_POINT('',#1316);
#431=VERTEX_POINT('',#1319);
#432=VERTEX_POINT('',#1321);
#433=VERTEX_POINT('',#1325);
#434=VERTEX_POINT('',#1328);
#435=VERTEX_POINT('',#1330);
#436=VERTEX_POINT('',#1334);
#437=VERTEX_POINT('',#1337);
#438=VERTEX_POINT('',#1338);
#439=VERTEX_POINT('',#1340);
#440=VERTEX_POINT('',#1342);
#441=VERTEX_POINT('',#1346);
#442=VERTEX_POINT('',#1347);
#443=VERTEX_POINT('',#1349);
#444=VERTEX_POINT('',#1351);
#445=VERTEX_POINT('',#1355);
#446=VERTEX_POINT('',#1356);
#447=VERTEX_POINT('',#1358);
#448=VERTEX_POINT('',#1360);
#449=VERTEX_POINT('',#1364);
#450=VERTEX_POINT('',#1365);
#451=VERTEX_POINT('',#1367);
#452=VERTEX_POINT('',#1369);
#453=VERTEX_POINT('',#1377);
#454=VERTEX_POINT('',#1379);
#455=VERTEX_POINT('',#1380);
#456=VERTEX_POINT('',#1382);
#457=VERTEX_POINT('',#1384);
#458=VERTEX_POINT('',#1387);
#459=VERTEX_POINT('',#1389);
#460=VERTEX_POINT('',#1391);
#461=VERTEX_POINT('',#1393);
#462=VERTEX_POINT('',#1395);
#463=VERTEX_POINT('',#1396);
#464=VERTEX_POINT('',#1398);
#465=VERTEX_POINT('',#1400);
#466=VERTEX_POINT('',#1403);
#467=VERTEX_POINT('',#1405);
#468=VERTEX_POINT('',#1406);
#469=VERTEX_POINT('',#1408);
#470=VERTEX_POINT('',#1410);
#471=VERTEX_POINT('',#1413);
#472=VERTEX_POINT('',#1414);
#473=VERTEX_POINT('',#1416);
#474=VERTEX_POINT('',#1418);
#475=VERTEX_POINT('',#1421);
#476=VERTEX_POINT('',#1423);
#477=VERTEX_POINT('',#1425);
#478=VERTEX_POINT('',#1426);
#479=VERTEX_POINT('',#1428);
#480=VERTEX_POINT('',#1430);
#481=VERTEX_POINT('',#1433);
#482=VERTEX_POINT('',#1435);
#483=VERTEX_POINT('',#1442);
#484=VERTEX_POINT('',#1444);
#485=VERTEX_POINT('',#1445);
#486=VERTEX_POINT('',#1447);
#487=VERTEX_POINT('',#1449);
#488=VERTEX_POINT('',#1452);
#489=VERTEX_POINT('',#1454);
#490=VERTEX_POINT('',#1456);
#491=VERTEX_POINT('',#1457);
#492=VERTEX_POINT('',#1459);
#493=VERTEX_POINT('',#1461);
#494=VERTEX_POINT('',#1464);
#495=VERTEX_POINT('',#1466);
#496=VERTEX_POINT('',#1467);
#497=VERTEX_POINT('',#1469);
#498=VERTEX_POINT('',#1471);
#499=VERTEX_POINT('',#1474);
#500=VERTEX_POINT('',#1475);
#501=VERTEX_POINT('',#1477);
#502=VERTEX_POINT('',#1479);
#503=VERTEX_POINT('',#1482);
#504=VERTEX_POINT('',#1484);
#505=VERTEX_POINT('',#1485);
#506=VERTEX_POINT('',#1487);
#507=VERTEX_POINT('',#1489);
#508=VERTEX_POINT('',#1492);
#509=EDGE_CURVE('',#425,#425,#389,.T.);
#510=EDGE_CURVE('',#425,#426,#209,.T.);
#511=EDGE_CURVE('',#426,#426,#390,.T.);
#512=EDGE_CURVE('',#427,#427,#391,.T.);
#513=EDGE_CURVE('',#428,#428,#392,.T.);
#514=EDGE_CURVE('',#428,#429,#210,.T.);
#515=EDGE_CURVE('',#429,#429,#393,.T.);
#516=EDGE_CURVE('',#430,#430,#394,.T.);
#517=EDGE_CURVE('',#431,#431,#395,.T.);
#518=EDGE_CURVE('',#431,#432,#211,.T.);
#519=EDGE_CURVE('',#432,#432,#396,.T.);
#520=EDGE_CURVE('',#433,#433,#397,.T.);
#521=EDGE_CURVE('',#434,#434,#398,.T.);
#522=EDGE_CURVE('',#434,#435,#212,.T.);
#523=EDGE_CURVE('',#435,#435,#399,.T.);
#524=EDGE_CURVE('',#436,#436,#400,.T.);
#525=EDGE_CURVE('',#437,#438,#401,.T.);
#526=EDGE_CURVE('',#437,#439,#213,.T.);
#527=EDGE_CURVE('',#440,#439,#402,.T.);
#528=EDGE_CURVE('',#438,#440,#214,.T.);
#529=EDGE_CURVE('',#441,#442,#403,.T.);
#530=EDGE_CURVE('',#441,#443,#215,.T.);
#531=EDGE_CURVE('',#444,#443,#404,.T.);
#532=EDGE_CURVE('',#442,#444,#216,.T.);
#533=EDGE_CURVE('',#445,#446,#405,.T.);
#534=EDGE_CURVE('',#445,#447,#217,.T.);
#535=EDGE_CURVE('',#448,#447,#406,.T.);
#536=EDGE_CURVE('',#446,#448,#218,.T.);
#537=EDGE_CURVE('',#449,#450,#407,.T.);
#538=EDGE_CURVE('',#449,#451,#219,.T.);
#539=EDGE_CURVE('',#452,#451,#408,.T.);
#540=EDGE_CURVE('',#450,#452,#220,.T.);
#541=EDGE_CURVE('',#439,#448,#221,.T.);
#542=EDGE_CURVE('',#447,#444,#222,.T.);
#543=EDGE_CURVE('',#443,#452,#223,.T.);
#544=EDGE_CURVE('',#451,#440,#224,.T.);
#545=EDGE_CURVE('',#453,#453,#409,.T.);
#546=EDGE_CURVE('',#454,#455,#225,.T.);
#547=EDGE_CURVE('',#455,#456,#226,.T.);
#548=EDGE_CURVE('',#456,#457,#227,.T.);
#549=EDGE_CURVE('',#457,#454,#228,.T.);
#550=EDGE_CURVE('',#458,#458,#410,.T.);
#551=EDGE_CURVE('',#459,#459,#411,.T.);
#552=EDGE_CURVE('',#460,#460,#412,.T.);
#553=EDGE_CURVE('',#461,#461,#413,.T.);
#554=EDGE_CURVE('',#462,#463,#229,.T.);
#555=EDGE_CURVE('',#463,#464,#230,.T.);
#556=EDGE_CURVE('',#464,#465,#231,.T.);
#557=EDGE_CURVE('',#465,#462,#232,.T.);
#558=EDGE_CURVE('',#466,#466,#414,.T.);
#559=EDGE_CURVE('',#467,#468,#233,.T.);
#560=EDGE_CURVE('',#468,#469,#234,.T.);
#561=EDGE_CURVE('',#469,#470,#235,.T.);
#562=EDGE_CURVE('',#470,#467,#236,.T.);
#563=EDGE_CURVE('',#471,#472,#237,.T.);
#564=EDGE_CURVE('',#472,#473,#238,.T.);
#565=EDGE_CURVE('',#473,#474,#239,.T.);
#566=EDGE_CURVE('',#474,#471,#240,.T.);
#567=EDGE_CURVE('',#475,#475,#415,.T.);
#568=EDGE_CURVE('',#476,#476,#416,.T.);
#569=EDGE_CURVE('',#477,#478,#241,.T.);
#570=EDGE_CURVE('',#478,#479,#242,.T.);
#571=EDGE_CURVE('',#479,#480,#243,.T.);
#572=EDGE_CURVE('',#480,#477,#244,.T.);
#573=EDGE_CURVE('',#481,#481,#417,.T.);
#574=EDGE_CURVE('',#482,#482,#418,.T.);
#575=EDGE_CURVE('',#438,#449,#245,.T.);
#576=EDGE_CURVE('',#450,#441,#246,.T.);
#577=EDGE_CURVE('',#442,#445,#247,.T.);
#578=EDGE_CURVE('',#446,#437,#248,.T.);
#579=EDGE_CURVE('',#483,#483,#419,.T.);
#580=EDGE_CURVE('',#484,#485,#249,.T.);
#581=EDGE_CURVE('',#486,#484,#250,.T.);
#582=EDGE_CURVE('',#487,#486,#251,.T.);
#583=EDGE_CURVE('',#485,#487,#252,.T.);
#584=EDGE_CURVE('',#488,#488,#420,.T.);
#585=EDGE_CURVE('',#489,#489,#421,.T.);
#586=EDGE_CURVE('',#490,#491,#253,.T.);
#587=EDGE_CURVE('',#492,#490,#254,.T.);
#588=EDGE_CURVE('',#493,#492,#255,.T.);
#589=EDGE_CURVE('',#491,#493,#256,.T.);
#590=EDGE_CURVE('',#494,#494,#422,.T.);
#591=EDGE_CURVE('',#495,#496,#257,.T.);
#592=EDGE_CURVE('',#497,#495,#258,.T.);
#593=EDGE_CURVE('',#498,#497,#259,.T.);
#594=EDGE_CURVE('',#496,#498,#260,.T.);
#595=EDGE_CURVE('',#499,#500,#261,.T.);
#596=EDGE_CURVE('',#501,#499,#262,.T.);
#597=EDGE_CURVE('',#502,#501,#263,.T.);
#598=EDGE_CURVE('',#500,#502,#264,.T.);
#599=EDGE_CURVE('',#503,#503,#423,.T.);
#600=EDGE_CURVE('',#504,#505,#265,.T.);
#601=EDGE_CURVE('',#506,#504,#266,.T.);
#602=EDGE_CURVE('',#507,#506,#267,.T.);
#603=EDGE_CURVE('',#505,#507,#268,.T.);
#604=EDGE_CURVE('',#508,#508,#424,.T.);
#605=EDGE_CURVE('',#453,#483,#269,.T.);
#606=EDGE_CURVE('',#484,#454,#270,.T.);
#607=EDGE_CURVE('',#486,#457,#271,.T.);
#608=EDGE_CURVE('',#487,#456,#272,.T.);
#609=EDGE_CURVE('',#485,#455,#273,.T.);
#610=EDGE_CURVE('',#458,#488,#274,.T.);
#611=EDGE_CURVE('',#459,#489,#275,.T.);
#612=EDGE_CURVE('',#460,#436,#276,.T.);
#613=EDGE_CURVE('',#461,#427,#277,.T.);
#614=EDGE_CURVE('',#490,#462,#278,.T.);
#615=EDGE_CURVE('',#492,#465,#279,.T.);
#616=EDGE_CURVE('',#493,#464,#280,.T.);
#617=EDGE_CURVE('',#491,#463,#281,.T.);
#618=EDGE_CURVE('',#466,#494,#282,.T.);
#619=EDGE_CURVE('',#495,#467,#283,.T.);
#620=EDGE_CURVE('',#497,#470,#284,.T.);
#621=EDGE_CURVE('',#498,#469,#285,.T.);
#622=EDGE_CURVE('',#496,#468,#286,.T.);
#623=EDGE_CURVE('',#499,#471,#287,.T.);
#624=EDGE_CURVE('',#501,#474,#288,.T.);
#625=EDGE_CURVE('',#502,#473,#289,.T.);
#626=EDGE_CURVE('',#500,#472,#290,.T.);
#627=EDGE_CURVE('',#475,#433,#291,.T.);
#628=EDGE_CURVE('',#476,#503,#292,.T.);
#629=EDGE_CURVE('',#504,#477,#293,.T.);
#630=EDGE_CURVE('',#506,#480,#294,.T.);
#631=EDGE_CURVE('',#507,#479,#295,.T.);
#632=EDGE_CURVE('',#505,#478,#296,.T.);
#633=EDGE_CURVE('',#481,#508,#297,.T.);
#634=EDGE_CURVE('',#482,#430,#298,.T.);
#635=ORIENTED_EDGE('',*,*,#509,.F.);
#636=ORIENTED_EDGE('',*,*,#510,.T.);
#637=ORIENTED_EDGE('',*,*,#511,.F.);
#638=ORIENTED_EDGE('',*,*,#510,.F.);
#639=ORIENTED_EDGE('',*,*,#509,.T.);
#640=ORIENTED_EDGE('',*,*,#512,.T.);
#641=ORIENTED_EDGE('',*,*,#513,.F.);
#642=ORIENTED_EDGE('',*,*,#514,.T.);
#643=ORIENTED_EDGE('',*,*,#515,.F.);
#644=ORIENTED_EDGE('',*,*,#514,.F.);
#645=ORIENTED_EDGE('',*,*,#513,.T.);
#646=ORIENTED_EDGE('',*,*,#516,.T.);
#647=ORIENTED_EDGE('',*,*,#517,.F.);
#648=ORIENTED_EDGE('',*,*,#518,.T.);
#649=ORIENTED_EDGE('',*,*,#519,.F.);
#650=ORIENTED_EDGE('',*,*,#518,.F.);
#651=ORIENTED_EDGE('',*,*,#517,.T.);
#652=ORIENTED_EDGE('',*,*,#520,.T.);
#653=ORIENTED_EDGE('',*,*,#521,.F.);
#654=ORIENTED_EDGE('',*,*,#522,.T.);
#655=ORIENTED_EDGE('',*,*,#523,.F.);
#656=ORIENTED_EDGE('',*,*,#522,.F.);
#657=ORIENTED_EDGE('',*,*,#521,.T.);
#658=ORIENTED_EDGE('',*,*,#524,.T.);
#659=ORIENTED_EDGE('',*,*,#525,.F.);
#660=ORIENTED_EDGE('',*,*,#526,.T.);
#661=ORIENTED_EDGE('',*,*,#527,.F.);
#662=ORIENTED_EDGE('',*,*,#528,.F.);
#663=ORIENTED_EDGE('',*,*,#529,.F.);
#664=ORIENTED_EDGE('',*,*,#530,.T.);
#665=ORIENTED_EDGE('',*,*,#531,.F.);
#666=ORIENTED_EDGE('',*,*,#532,.F.);
#667=ORIENTED_EDGE('',*,*,#533,.F.);
#668=ORIENTED_EDGE('',*,*,#534,.T.);
#669=ORIENTED_EDGE('',*,*,#535,.F.);
#670=ORIENTED_EDGE('',*,*,#536,.F.);
#671=ORIENTED_EDGE('',*,*,#537,.F.);
#672=ORIENTED_EDGE('',*,*,#538,.T.);
#673=ORIENTED_EDGE('',*,*,#539,.F.);
#674=ORIENTED_EDGE('',*,*,#540,.F.);
#675=ORIENTED_EDGE('',*,*,#527,.T.);
#676=ORIENTED_EDGE('',*,*,#541,.T.);
#677=ORIENTED_EDGE('',*,*,#535,.T.);
#678=ORIENTED_EDGE('',*,*,#542,.T.);
#679=ORIENTED_EDGE('',*,*,#531,.T.);
#680=ORIENTED_EDGE('',*,*,#543,.T.);
#681=ORIENTED_EDGE('',*,*,#539,.T.);
#682=ORIENTED_EDGE('',*,*,#544,.T.);
#683=ORIENTED_EDGE('',*,*,#545,.T.);
#684=ORIENTED_EDGE('',*,*,#546,.T.);
#685=ORIENTED_EDGE('',*,*,#547,.T.);
#686=ORIENTED_EDGE('',*,*,#548,.T.);
#687=ORIENTED_EDGE('',*,*,#549,.T.);
#688=ORIENTED_EDGE('',*,*,#550,.T.);
#689=ORIENTED_EDGE('',*,*,#551,.T.);
#690=ORIENTED_EDGE('',*,*,#552,.T.);
#691=ORIENTED_EDGE('',*,*,#553,.T.);
#692=ORIENTED_EDGE('',*,*,#554,.T.);
#693=ORIENTED_EDGE('',*,*,#555,.T.);
#694=ORIENTED_EDGE('',*,*,#556,.T.);
#695=ORIENTED_EDGE('',*,*,#557,.T.);
#696=ORIENTED_EDGE('',*,*,#558,.T.);
#697=ORIENTED_EDGE('',*,*,#559,.T.);
#698=ORIENTED_EDGE('',*,*,#560,.T.);
#699=ORIENTED_EDGE('',*,*,#561,.T.);
#700=ORIENTED_EDGE('',*,*,#562,.T.);
#701=ORIENTED_EDGE('',*,*,#563,.T.);
#702=ORIENTED_EDGE('',*,*,#564,.T.);
#703=ORIENTED_EDGE('',*,*,#565,.T.);
#704=ORIENTED_EDGE('',*,*,#566,.T.);
#705=ORIENTED_EDGE('',*,*,#567,.T.);
#706=ORIENTED_EDGE('',*,*,#568,.T.);
#707=ORIENTED_EDGE('',*,*,#569,.T.);
#708=ORIENTED_EDGE('',*,*,#570,.T.);
#709=ORIENTED_EDGE('',*,*,#571,.T.);
#710=ORIENTED_EDGE('',*,*,#572,.T.);
#711=ORIENTED_EDGE('',*,*,#573,.T.);
#712=ORIENTED_EDGE('',*,*,#574,.T.);
#713=ORIENTED_EDGE('',*,*,#525,.T.);
#714=ORIENTED_EDGE('',*,*,#575,.T.);
#715=ORIENTED_EDGE('',*,*,#537,.T.);
#716=ORIENTED_EDGE('',*,*,#576,.T.);
#717=ORIENTED_EDGE('',*,*,#529,.T.);
#718=ORIENTED_EDGE('',*,*,#577,.T.);
#719=ORIENTED_EDGE('',*,*,#533,.T.);
#720=ORIENTED_EDGE('',*,*,#578,.T.);
#721=ORIENTED_EDGE('',*,*,#515,.T.);
#722=ORIENTED_EDGE('',*,*,#523,.T.);
#723=ORIENTED_EDGE('',*,*,#579,.F.);
#724=ORIENTED_EDGE('',*,*,#580,.F.);
#725=ORIENTED_EDGE('',*,*,#581,.F.);
#726=ORIENTED_EDGE('',*,*,#582,.F.);
#727=ORIENTED_EDGE('',*,*,#583,.F.);
#728=ORIENTED_EDGE('',*,*,#584,.F.);
#729=ORIENTED_EDGE('',*,*,#585,.F.);
#730=ORIENTED_EDGE('',*,*,#586,.F.);
#731=ORIENTED_EDGE('',*,*,#587,.F.);
#732=ORIENTED_EDGE('',*,*,#588,.F.);
#733=ORIENTED_EDGE('',*,*,#589,.F.);
#734=ORIENTED_EDGE('',*,*,#590,.F.);
#735=ORIENTED_EDGE('',*,*,#591,.F.);
#736=ORIENTED_EDGE('',*,*,#592,.F.);
#737=ORIENTED_EDGE('',*,*,#593,.F.);
#738=ORIENTED_EDGE('',*,*,#594,.F.);
#739=ORIENTED_EDGE('',*,*,#595,.F.);
#740=ORIENTED_EDGE('',*,*,#596,.F.);
#741=ORIENTED_EDGE('',*,*,#597,.F.);
#742=ORIENTED_EDGE('',*,*,#598,.F.);
#743=ORIENTED_EDGE('',*,*,#599,.F.);
#744=ORIENTED_EDGE('',*,*,#600,.F.);
#745=ORIENTED_EDGE('',*,*,#601,.F.);
#746=ORIENTED_EDGE('',*,*,#602,.F.);
#747=ORIENTED_EDGE('',*,*,#603,.F.);
#748=ORIENTED_EDGE('',*,*,#604,.F.);
#749=ORIENTED_EDGE('',*,*,#519,.T.);
#750=ORIENTED_EDGE('',*,*,#511,.T.);
#751=ORIENTED_EDGE('',*,*,#530,.F.);
#752=ORIENTED_EDGE('',*,*,#576,.F.);
#753=ORIENTED_EDGE('',*,*,#540,.T.);
#754=ORIENTED_EDGE('',*,*,#543,.F.);
#755=ORIENTED_EDGE('',*,*,#532,.T.);
#756=ORIENTED_EDGE('',*,*,#542,.F.);
#757=ORIENTED_EDGE('',*,*,#534,.F.);
#758=ORIENTED_EDGE('',*,*,#577,.F.);
#759=ORIENTED_EDGE('',*,*,#526,.F.);
#760=ORIENTED_EDGE('',*,*,#578,.F.);
#761=ORIENTED_EDGE('',*,*,#536,.T.);
#762=ORIENTED_EDGE('',*,*,#541,.F.);
#763=ORIENTED_EDGE('',*,*,#528,.T.);
#764=ORIENTED_EDGE('',*,*,#544,.F.);
#765=ORIENTED_EDGE('',*,*,#538,.F.);
#766=ORIENTED_EDGE('',*,*,#575,.F.);
#767=ORIENTED_EDGE('',*,*,#545,.F.);
#768=ORIENTED_EDGE('',*,*,#605,.T.);
#769=ORIENTED_EDGE('',*,*,#579,.T.);
#770=ORIENTED_EDGE('',*,*,#605,.F.);
#771=ORIENTED_EDGE('',*,*,#581,.T.);
#772=ORIENTED_EDGE('',*,*,#606,.T.);
#773=ORIENTED_EDGE('',*,*,#549,.F.);
#774=ORIENTED_EDGE('',*,*,#607,.F.);
#775=ORIENTED_EDGE('',*,*,#582,.T.);
#776=ORIENTED_EDGE('',*,*,#607,.T.);
#777=ORIENTED_EDGE('',*,*,#548,.F.);
#778=ORIENTED_EDGE('',*,*,#608,.F.);
#779=ORIENTED_EDGE('',*,*,#583,.T.);
#780=ORIENTED_EDGE('',*,*,#608,.T.);
#781=ORIENTED_EDGE('',*,*,#547,.F.);
#782=ORIENTED_EDGE('',*,*,#609,.F.);
#783=ORIENTED_EDGE('',*,*,#580,.T.);
#784=ORIENTED_EDGE('',*,*,#609,.T.);
#785=ORIENTED_EDGE('',*,*,#546,.F.);
#786=ORIENTED_EDGE('',*,*,#606,.F.);
#787=ORIENTED_EDGE('',*,*,#550,.F.);
#788=ORIENTED_EDGE('',*,*,#610,.T.);
#789=ORIENTED_EDGE('',*,*,#584,.T.);
#790=ORIENTED_EDGE('',*,*,#610,.F.);
#791=ORIENTED_EDGE('',*,*,#551,.F.);
#792=ORIENTED_EDGE('',*,*,#611,.T.);
#793=ORIENTED_EDGE('',*,*,#585,.T.);
#794=ORIENTED_EDGE('',*,*,#611,.F.);
#795=ORIENTED_EDGE('',*,*,#552,.F.);
#796=ORIENTED_EDGE('',*,*,#612,.T.);
#797=ORIENTED_EDGE('',*,*,#524,.F.);
#798=ORIENTED_EDGE('',*,*,#612,.F.);
#799=ORIENTED_EDGE('',*,*,#553,.F.);
#800=ORIENTED_EDGE('',*,*,#613,.T.);
#801=ORIENTED_EDGE('',*,*,#512,.F.);
#802=ORIENTED_EDGE('',*,*,#613,.F.);
#803=ORIENTED_EDGE('',*,*,#587,.T.);
#804=ORIENTED_EDGE('',*,*,#614,.T.);
#805=ORIENTED_EDGE('',*,*,#557,.F.);
#806=ORIENTED_EDGE('',*,*,#615,.F.);
#807=ORIENTED_EDGE('',*,*,#588,.T.);
#808=ORIENTED_EDGE('',*,*,#615,.T.);
#809=ORIENTED_EDGE('',*,*,#556,.F.);
#810=ORIENTED_EDGE('',*,*,#616,.F.);
#811=ORIENTED_EDGE('',*,*,#589,.T.);
#812=ORIENTED_EDGE('',*,*,#616,.T.);
#813=ORIENTED_EDGE('',*,*,#555,.F.);
#814=ORIENTED_EDGE('',*,*,#617,.F.);
#815=ORIENTED_EDGE('',*,*,#586,.T.);
#816=ORIENTED_EDGE('',*,*,#617,.T.);
#817=ORIENTED_EDGE('',*,*,#554,.F.);
#818=ORIENTED_EDGE('',*,*,#614,.F.);
#819=ORIENTED_EDGE('',*,*,#558,.F.);
#820=ORIENTED_EDGE('',*,*,#618,.T.);
#821=ORIENTED_EDGE('',*,*,#590,.T.);
#822=ORIENTED_EDGE('',*,*,#618,.F.);
#823=ORIENTED_EDGE('',*,*,#592,.T.);
#824=ORIENTED_EDGE('',*,*,#619,.T.);
#825=ORIENTED_EDGE('',*,*,#562,.F.);
#826=ORIENTED_EDGE('',*,*,#620,.F.);
#827=ORIENTED_EDGE('',*,*,#593,.T.);
#828=ORIENTED_EDGE('',*,*,#620,.T.);
#829=ORIENTED_EDGE('',*,*,#561,.F.);
#830=ORIENTED_EDGE('',*,*,#621,.F.);
#831=ORIENTED_EDGE('',*,*,#594,.T.);
#832=ORIENTED_EDGE('',*,*,#621,.T.);
#833=ORIENTED_EDGE('',*,*,#560,.F.);
#834=ORIENTED_EDGE('',*,*,#622,.F.);
#835=ORIENTED_EDGE('',*,*,#591,.T.);
#836=ORIENTED_EDGE('',*,*,#622,.T.);
#837=ORIENTED_EDGE('',*,*,#559,.F.);
#838=ORIENTED_EDGE('',*,*,#619,.F.);
#839=ORIENTED_EDGE('',*,*,#596,.T.);
#840=ORIENTED_EDGE('',*,*,#623,.T.);
#841=ORIENTED_EDGE('',*,*,#566,.F.);
#842=ORIENTED_EDGE('',*,*,#624,.F.);
#843=ORIENTED_EDGE('',*,*,#597,.T.);
#844=ORIENTED_EDGE('',*,*,#624,.T.);
#845=ORIENTED_EDGE('',*,*,#565,.F.);
#846=ORIENTED_EDGE('',*,*,#625,.F.);
#847=ORIENTED_EDGE('',*,*,#598,.T.);
#848=ORIENTED_EDGE('',*,*,#625,.T.);
#849=ORIENTED_EDGE('',*,*,#564,.F.);
#850=ORIENTED_EDGE('',*,*,#626,.F.);
#851=ORIENTED_EDGE('',*,*,#595,.T.);
#852=ORIENTED_EDGE('',*,*,#626,.T.);
#853=ORIENTED_EDGE('',*,*,#563,.F.);
#854=ORIENTED_EDGE('',*,*,#623,.F.);
#855=ORIENTED_EDGE('',*,*,#567,.F.);
#856=ORIENTED_EDGE('',*,*,#627,.T.);
#857=ORIENTED_EDGE('',*,*,#520,.F.);
#858=ORIENTED_EDGE('',*,*,#627,.F.);
#859=ORIENTED_EDGE('',*,*,#568,.F.);
#860=ORIENTED_EDGE('',*,*,#628,.T.);
#861=ORIENTED_EDGE('',*,*,#599,.T.);
#862=ORIENTED_EDGE('',*,*,#628,.F.);
#863=ORIENTED_EDGE('',*,*,#601,.T.);
#864=ORIENTED_EDGE('',*,*,#629,.T.);
#865=ORIENTED_EDGE('',*,*,#572,.F.);
#866=ORIENTED_EDGE('',*,*,#630,.F.);
#867=ORIENTED_EDGE('',*,*,#602,.T.);
#868=ORIENTED_EDGE('',*,*,#630,.T.);
#869=ORIENTED_EDGE('',*,*,#571,.F.);
#870=ORIENTED_EDGE('',*,*,#631,.F.);
#871=ORIENTED_EDGE('',*,*,#603,.T.);
#872=ORIENTED_EDGE('',*,*,#631,.T.);
#873=ORIENTED_EDGE('',*,*,#570,.F.);
#874=ORIENTED_EDGE('',*,*,#632,.F.);
#875=ORIENTED_EDGE('',*,*,#600,.T.);
#876=ORIENTED_EDGE('',*,*,#632,.T.);
#877=ORIENTED_EDGE('',*,*,#569,.F.);
#878=ORIENTED_EDGE('',*,*,#629,.F.);
#879=ORIENTED_EDGE('',*,*,#573,.F.);
#880=ORIENTED_EDGE('',*,*,#633,.T.);
#881=ORIENTED_EDGE('',*,*,#604,.T.);
#882=ORIENTED_EDGE('',*,*,#633,.F.);
#883=ORIENTED_EDGE('',*,*,#574,.F.);
#884=ORIENTED_EDGE('',*,*,#634,.T.);
#885=ORIENTED_EDGE('',*,*,#516,.F.);
#886=ORIENTED_EDGE('',*,*,#634,.F.);
#887=CYLINDRICAL_SURFACE('',#955,2.5);
#888=CYLINDRICAL_SURFACE('',#960,2.49999962483449);
#889=CYLINDRICAL_SURFACE('',#965,2.5000012803535);
#890=CYLINDRICAL_SURFACE('',#970,2.5);
#891=CYLINDRICAL_SURFACE('',#975,10.);
#892=CYLINDRICAL_SURFACE('',#978,9.99999999999999);
#893=CYLINDRICAL_SURFACE('',#981,10.);
#894=CYLINDRICAL_SURFACE('',#984,10.);
#895=CYLINDRICAL_SURFACE('',#1009,2.5);
#896=CYLINDRICAL_SURFACE('',#1014,2.5);
#897=CYLINDRICAL_SURFACE('',#1015,2.5);
#898=CYLINDRICAL_SURFACE('',#1016,1.0625);
#899=CYLINDRICAL_SURFACE('',#1017,1.0625);
#900=CYLINDRICAL_SURFACE('',#1022,2.5);
#901=CYLINDRICAL_SURFACE('',#1031,1.0625);
#902=CYLINDRICAL_SURFACE('',#1032,2.5);
#903=CYLINDRICAL_SURFACE('',#1037,2.5);
#904=CYLINDRICAL_SURFACE('',#1038,1.0625);
#905=ADVANCED_FACE('',(#79),#887,.T.);
#906=ADVANCED_FACE('',(#80,#15),#49,.T.);
#907=ADVANCED_FACE('',(#81),#888,.T.);
#908=ADVANCED_FACE('',(#82,#16),#50,.T.);
#909=ADVANCED_FACE('',(#83),#889,.T.);
#910=ADVANCED_FACE('',(#84,#17),#51,.T.);
#911=ADVANCED_FACE('',(#85),#890,.T.);
#912=ADVANCED_FACE('',(#86,#18),#52,.T.);
#913=ADVANCED_FACE('',(#87),#891,.T.);
#914=ADVANCED_FACE('',(#88),#892,.T.);
#915=ADVANCED_FACE('',(#89),#893,.T.);
#916=ADVANCED_FACE('',(#90),#894,.T.);
#917=ADVANCED_FACE('',(#91,#19,#20,#21,#22,#23,#24,#25,#26,#27,#28,#29,
#30,#31,#32,#33),#53,.T.);
#918=ADVANCED_FACE('',(#92,#34,#35,#36,#37,#38,#39,#40,#41,#42,#43,#44,
#45,#46,#47,#48),#54,.F.);
#919=ADVANCED_FACE('',(#93),#55,.T.);
#920=ADVANCED_FACE('',(#94),#56,.T.);
#921=ADVANCED_FACE('',(#95),#57,.T.);
#922=ADVANCED_FACE('',(#96),#58,.T.);
#923=ADVANCED_FACE('',(#97),#895,.F.);
#924=ADVANCED_FACE('',(#98),#59,.T.);
#925=ADVANCED_FACE('',(#99),#60,.T.);
#926=ADVANCED_FACE('',(#100),#61,.T.);
#927=ADVANCED_FACE('',(#101),#62,.T.);
#928=ADVANCED_FACE('',(#102),#896,.F.);
#929=ADVANCED_FACE('',(#103),#897,.F.);
#930=ADVANCED_FACE('',(#104),#898,.F.);
#931=ADVANCED_FACE('',(#105),#899,.F.);
#932=ADVANCED_FACE('',(#106),#63,.T.);
#933=ADVANCED_FACE('',(#107),#64,.T.);
#934=ADVANCED_FACE('',(#108),#65,.T.);
#935=ADVANCED_FACE('',(#109),#66,.T.);
#936=ADVANCED_FACE('',(#110),#900,.F.);
#937=ADVANCED_FACE('',(#111),#67,.T.);
#938=ADVANCED_FACE('',(#112),#68,.T.);
#939=ADVANCED_FACE('',(#113),#69,.T.);
#940=ADVANCED_FACE('',(#114),#70,.T.);
#941=ADVANCED_FACE('',(#115),#71,.T.);
#942=ADVANCED_FACE('',(#116),#72,.T.);
#943=ADVANCED_FACE('',(#117),#73,.T.);
#944=ADVANCED_FACE('',(#118),#74,.T.);
#945=ADVANCED_FACE('',(#119),#901,.F.);
#946=ADVANCED_FACE('',(#120),#902,.F.);
#947=ADVANCED_FACE('',(#121),#75,.T.);
#948=ADVANCED_FACE('',(#122),#76,.T.);
#949=ADVANCED_FACE('',(#123),#77,.T.);
#950=ADVANCED_FACE('',(#124),#78,.T.);
#951=ADVANCED_FACE('',(#125),#903,.F.);
#952=ADVANCED_FACE('',(#126),#904,.F.);
#953=CLOSED_SHELL('',(#905,#906,#907,#908,#909,#910,#911,#912,#913,#914,
#915,#916,#917,#918,#919,#920,#921,#922,#923,#924,#925,#926,#927,#928,#929,
#930,#931,#932,#933,#934,#935,#936,#937,#938,#939,#940,#941,#942,#943,#944,
#945,#946,#947,#948,#949,#950,#951,#952));
#954=AXIS2_PLACEMENT_3D('',#1299,#1039,#1040);
#955=AXIS2_PLACEMENT_3D('',#1300,#1041,#1042);
#956=AXIS2_PLACEMENT_3D('',#1302,#1043,#1044);
#957=AXIS2_PLACEMENT_3D('',#1305,#1046,#1047);
#958=AXIS2_PLACEMENT_3D('',#1306,#1048,#1049);
#959=AXIS2_PLACEMENT_3D('',#1308,#1050,#1051);
#960=AXIS2_PLACEMENT_3D('',#1309,#1052,#1053);
#961=AXIS2_PLACEMENT_3D('',#1311,#1054,#1055);
#962=AXIS2_PLACEMENT_3D('',#1314,#1057,#1058);
#963=AXIS2_PLACEMENT_3D('',#1315,#1059,#1060);
#964=AXIS2_PLACEMENT_3D('',#1317,#1061,#1062);
#965=AXIS2_PLACEMENT_3D('',#1318,#1063,#1064);
#966=AXIS2_PLACEMENT_3D('',#1320,#1065,#1066);
#967=AXIS2_PLACEMENT_3D('',#1323,#1068,#1069);
#968=AXIS2_PLACEMENT_3D('',#1324,#1070,#1071);
#969=AXIS2_PLACEMENT_3D('',#1326,#1072,#1073);
#970=AXIS2_PLACEMENT_3D('',#1327,#1074,#1075);
#971=AXIS2_PLACEMENT_3D('',#1329,#1076,#1077);
#972=AXIS2_PLACEMENT_3D('',#1332,#1079,#1080);
#973=AXIS2_PLACEMENT_3D('',#1333,#1081,#1082);
#974=AXIS2_PLACEMENT_3D('',#1335,#1083,#1084);
#975=AXIS2_PLACEMENT_3D('',#1336,#1085,#1086);
#976=AXIS2_PLACEMENT_3D('',#1339,#1087,#1088);
#977=AXIS2_PLACEMENT_3D('',#1343,#1090,#1091);
#978=AXIS2_PLACEMENT_3D('',#1345,#1093,#1094);
#979=AXIS2_PLACEMENT_3D('',#1348,#1095,#1096);
#980=AXIS2_PLACEMENT_3D('',#1352,#1098,#1099);
#981=AXIS2_PLACEMENT_3D('',#1354,#1101,#1102);
#982=AXIS2_PLACEMENT_3D('',#1357,#1103,#1104);
#983=AXIS2_PLACEMENT_3D('',#1361,#1106,#1107);
#984=AXIS2_PLACEMENT_3D('',#1363,#1109,#1110);
#985=AXIS2_PLACEMENT_3D('',#1366,#1111,#1112);
#986=AXIS2_PLACEMENT_3D('',#1370,#1114,#1115);
#987=AXIS2_PLACEMENT_3D('',#1372,#1117,#1118);
#988=AXIS2_PLACEMENT_3D('',#1378,#1123,#1124);
#989=AXIS2_PLACEMENT_3D('',#1388,#1129,#1130);
#990=AXIS2_PLACEMENT_3D('',#1390,#1131,#1132);
#991=AXIS2_PLACEMENT_3D('',#1392,#1133,#1134);
#992=AXIS2_PLACEMENT_3D('',#1394,#1135,#1136);
#993=AXIS2_PLACEMENT_3D('',#1404,#1141,#1142);
#994=AXIS2_PLACEMENT_3D('',#1422,#1151,#1152);
#995=AXIS2_PLACEMENT_3D('',#1424,#1153,#1154);
#996=AXIS2_PLACEMENT_3D('',#1434,#1159,#1160);
#997=AXIS2_PLACEMENT_3D('',#1436,#1161,#1162);
#998=AXIS2_PLACEMENT_3D('',#1437,#1163,#1164);
#999=AXIS2_PLACEMENT_3D('',#1443,#1169,#1170);
#1000=AXIS2_PLACEMENT_3D('',#1453,#1175,#1176);
#1001=AXIS2_PLACEMENT_3D('',#1455,#1177,#1178);
#1002=AXIS2_PLACEMENT_3D('',#1465,#1183,#1184);
#1003=AXIS2_PLACEMENT_3D('',#1483,#1193,#1194);
#1004=AXIS2_PLACEMENT_3D('',#1493,#1199,#1200);
#1005=AXIS2_PLACEMENT_3D('',#1494,#1201,#1202);
#1006=AXIS2_PLACEMENT_3D('',#1495,#1203,#1204);
#1007=AXIS2_PLACEMENT_3D('',#1496,#1205,#1206);
#1008=AXIS2_PLACEMENT_3D('',#1497,#1207,#1208);
#1009=AXIS2_PLACEMENT_3D('',#1498,#1209,#1210);
#1010=AXIS2_PLACEMENT_3D('',#1500,#1212,#1213);
#1011=AXIS2_PLACEMENT_3D('',#1503,#1216,#1217);
#1012=AXIS2_PLACEMENT_3D('',#1505,#1219,#1220);
#1013=AXIS2_PLACEMENT_3D('',#1507,#1222,#1223);
#1014=AXIS2_PLACEMENT_3D('',#1508,#1224,#1225);
#1015=AXIS2_PLACEMENT_3D('',#1510,#1227,#1228);
#1016=AXIS2_PLACEMENT_3D('',#1512,#1230,#1231);
#1017=AXIS2_PLACEMENT_3D('',#1514,#1233,#1234);
#1018=AXIS2_PLACEMENT_3D('',#1516,#1236,#1237);
#1019=AXIS2_PLACEMENT_3D('',#1519,#1240,#1241);
#1020=AXIS2_PLACEMENT_3D('',#1521,#1243,#1244);
#1021=AXIS2_PLACEMENT_3D('',#1523,#1246,#1247);
#1022=AXIS2_PLACEMENT_3D('',#1524,#1248,#1249);
#1023=AXIS2_PLACEMENT_3D('',#1526,#1251,#1252);
#1024=AXIS2_PLACEMENT_3D('',#1529,#1255,#1256);
#1025=AXIS2_PLACEMENT_3D('',#1531,#1258,#1259);
#1026=AXIS2_PLACEMENT_3D('',#1533,#1261,#1262);
#1027=AXIS2_PLACEMENT_3D('',#1534,#1263,#1264);
#1028=AXIS2_PLACEMENT_3D('',#1537,#1267,#1268);
#1029=AXIS2_PLACEMENT_3D('',#1539,#1270,#1271);
#1030=AXIS2_PLACEMENT_3D('',#1541,#1273,#1274);
#1031=AXIS2_PLACEMENT_3D('',#1542,#1275,#1276);
#1032=AXIS2_PLACEMENT_3D('',#1544,#1278,#1279);
#1033=AXIS2_PLACEMENT_3D('',#1546,#1281,#1282);
#1034=AXIS2_PLACEMENT_3D('',#1549,#1285,#1286);
#1035=AXIS2_PLACEMENT_3D('',#1551,#1288,#1289);
#1036=AXIS2_PLACEMENT_3D('',#1553,#1291,#1292);
#1037=AXIS2_PLACEMENT_3D('',#1554,#1293,#1294);
#1038=AXIS2_PLACEMENT_3D('',#1556,#1296,#1297);
#1039=DIRECTION('axis',(0.,0.,1.));
#1040=DIRECTION('refdir',(1.,0.,0.));
#1041=DIRECTION('center_axis',(0.,0.,-1.));
#1042=DIRECTION('ref_axis',(1.,0.,0.));
#1043=DIRECTION('center_axis',(0.,0.,-1.));
#1044=DIRECTION('ref_axis',(1.,0.,0.));
#1045=DIRECTION('',(0.,0.,1.));
#1046=DIRECTION('center_axis',(0.,0.,1.));
#1047=DIRECTION('ref_axis',(1.,0.,0.));
#1048=DIRECTION('center_axis',(0.,0.,-1.));
#1049=DIRECTION('ref_axis',(1.,0.,0.));
#1050=DIRECTION('center_axis',(0.,0.,1.));
#1051=DIRECTION('ref_axis',(1.,0.,0.));
#1052=DIRECTION('center_axis',(0.,0.,-1.));
#1053=DIRECTION('ref_axis',(1.,0.,0.));
#1054=DIRECTION('center_axis',(0.,0.,-1.));
#1055=DIRECTION('ref_axis',(1.,0.,0.));
#1056=DIRECTION('',(0.,0.,1.));
#1057=DIRECTION('center_axis',(0.,0.,1.));
#1058=DIRECTION('ref_axis',(1.,0.,0.));
#1059=DIRECTION('center_axis',(0.,0.,-1.));
#1060=DIRECTION('ref_axis',(1.,0.,0.));
#1061=DIRECTION('center_axis',(0.,0.,1.));
#1062=DIRECTION('ref_axis',(1.,0.,0.));
#1063=DIRECTION('center_axis',(0.,0.,-1.));
#1064=DIRECTION('ref_axis',(1.,0.,0.));
#1065=DIRECTION('center_axis',(0.,0.,-1.));
#1066=DIRECTION('ref_axis',(1.,0.,0.));
#1067=DIRECTION('',(0.,0.,1.));
#1068=DIRECTION('center_axis',(0.,0.,1.));
#1069=DIRECTION('ref_axis',(1.,0.,0.));
#1070=DIRECTION('center_axis',(0.,0.,-1.));
#1071=DIRECTION('ref_axis',(1.,0.,0.));
#1072=DIRECTION('center_axis',(0.,0.,1.));
#1073=DIRECTION('ref_axis',(1.,0.,0.));
#1074=DIRECTION('center_axis',(0.,0.,-1.));
#1075=DIRECTION('ref_axis',(1.,0.,0.));
#1076=DIRECTION('center_axis',(0.,0.,-1.));
#1077=DIRECTION('ref_axis',(1.,0.,0.));
#1078=DIRECTION('',(0.,0.,1.));
#1079=DIRECTION('center_axis',(0.,0.,1.));
#1080=DIRECTION('ref_axis',(1.,0.,0.));
#1081=DIRECTION('center_axis',(0.,0.,-1.));
#1082=DIRECTION('ref_axis',(1.,0.,0.));
#1083=DIRECTION('center_axis',(0.,0.,1.));
#1084=DIRECTION('ref_axis',(1.,0.,0.));
#1085=DIRECTION('center_axis',(0.,0.,-1.));
#1086=DIRECTION('ref_axis',(0.,1.,0.));
#1087=DIRECTION('center_axis',(0.,0.,-1.));
#1088=DIRECTION('ref_axis',(0.,1.,0.));
#1089=DIRECTION('',(0.,0.,1.));
#1090=DIRECTION('center_axis',(0.,0.,1.));
#1091=DIRECTION('ref_axis',(0.,1.,0.));
#1092=DIRECTION('',(0.,0.,1.));
#1093=DIRECTION('center_axis',(0.,0.,-1.));
#1094=DIRECTION('ref_axis',(-8.88178419700126E-16,-1.,0.));
#1095=DIRECTION('center_axis',(0.,0.,-1.));
#1096=DIRECTION('ref_axis',(-8.88178419700126E-16,-1.,0.));
#1097=DIRECTION('',(0.,0.,1.));
#1098=DIRECTION('center_axis',(0.,0.,1.));
#1099=DIRECTION('ref_axis',(-8.88178419700126E-16,-1.,0.));
#1100=DIRECTION('',(0.,0.,1.));
#1101=DIRECTION('center_axis',(0.,0.,-1.));
#1102=DIRECTION('ref_axis',(-1.,0.,0.));
#1103=DIRECTION('center_axis',(0.,0.,-1.));
#1104=DIRECTION('ref_axis',(-1.,0.,0.));
#1105=DIRECTION('',(0.,0.,1.));
#1106=DIRECTION('center_axis',(0.,0.,1.));
#1107=DIRECTION('ref_axis',(-1.,0.,0.));
#1108=DIRECTION('',(0.,0.,1.));
#1109=DIRECTION('center_axis',(0.,0.,-1.));
#1110=DIRECTION('ref_axis',(1.,0.,0.));
#1111=DIRECTION('center_axis',(0.,0.,-1.));
#1112=DIRECTION('ref_axis',(1.,0.,0.));
#1113=DIRECTION('',(0.,0.,1.));
#1114=DIRECTION('center_axis',(0.,0.,1.));
#1115=DIRECTION('ref_axis',(1.,0.,0.));
#1116=DIRECTION('',(0.,0.,1.));
#1117=DIRECTION('center_axis',(0.,0.,1.));
#1118=DIRECTION('ref_axis',(-1.,0.,0.));
#1119=DIRECTION('',(4.55476112666731E-17,-1.,0.));
#1120=DIRECTION('',(1.,0.,0.));
#1121=DIRECTION('',(0.,1.,0.));
#1122=DIRECTION('',(-1.,-1.34572487833352E-16,0.));
#1123=DIRECTION('center_axis',(0.,0.,-1.));
#1124=DIRECTION('ref_axis',(-1.,0.,0.));
#1125=DIRECTION('',(-1.,0.,0.));
#1126=DIRECTION('',(0.,1.,0.));
#1127=DIRECTION('',(1.,0.,0.));
#1128=DIRECTION('',(0.,-1.,0.));
#1129=DIRECTION('center_axis',(0.,0.,-1.));
#1130=DIRECTION('ref_axis',(-1.,0.,0.));
#1131=DIRECTION('center_axis',(0.,0.,-1.));
#1132=DIRECTION('ref_axis',(-1.,0.,0.));
#1133=DIRECTION('center_axis',(0.,0.,-1.));
#1134=DIRECTION('ref_axis',(-1.,0.,0.));
#1135=DIRECTION('center_axis',(0.,0.,-1.));
#1136=DIRECTION('ref_axis',(-1.,0.,0.));
#1137=DIRECTION('',(-1.,0.,0.));
#1138=DIRECTION('',(0.,1.,0.));
#1139=DIRECTION('',(1.,0.,0.));
#1140=DIRECTION('',(0.,-1.,0.));
#1141=DIRECTION('center_axis',(0.,0.,-1.));
#1142=DIRECTION('ref_axis',(-1.,0.,0.));
#1143=DIRECTION('',(-1.,-5.82794238648376E-17,0.));
#1144=DIRECTION('',(0.,1.,0.));
#1145=DIRECTION('',(1.,0.,0.));
#1146=DIRECTION('',(0.,-1.,0.));
#1147=DIRECTION('',(-1.,0.,0.));
#1148=DIRECTION('',(0.,1.,0.));
#1149=DIRECTION('',(1.,0.,0.));
#1150=DIRECTION('',(0.,-1.,0.));
#1151=DIRECTION('center_axis',(0.,0.,-1.));
#1152=DIRECTION('ref_axis',(-1.,0.,0.));
#1153=DIRECTION('center_axis',(0.,0.,-1.));
#1154=DIRECTION('ref_axis',(-1.,0.,0.));
#1155=DIRECTION('',(-1.,0.,0.));
#1156=DIRECTION('',(0.,1.,0.));
#1157=DIRECTION('',(1.,0.,0.));
#1158=DIRECTION('',(0.,-1.,0.));
#1159=DIRECTION('center_axis',(0.,0.,-1.));
#1160=DIRECTION('ref_axis',(-1.,0.,0.));
#1161=DIRECTION('center_axis',(0.,0.,-1.));
#1162=DIRECTION('ref_axis',(-1.,0.,0.));
#1163=DIRECTION('center_axis',(0.,0.,1.));
#1164=DIRECTION('ref_axis',(-1.,0.,0.));
#1165=DIRECTION('',(1.,1.34572487833352E-16,0.));
#1166=DIRECTION('',(0.,-1.,0.));
#1167=DIRECTION('',(-1.,0.,0.));
#1168=DIRECTION('',(-4.55476112666731E-17,1.,0.));
#1169=DIRECTION('center_axis',(0.,0.,-1.));
#1170=DIRECTION('ref_axis',(-1.,0.,0.));
#1171=DIRECTION('',(-1.,0.,0.));
#1172=DIRECTION('',(0.,-1.,0.));
#1173=DIRECTION('',(1.,0.,0.));
#1174=DIRECTION('',(0.,1.,0.));
#1175=DIRECTION('center_axis',(0.,0.,-1.));
#1176=DIRECTION('ref_axis',(-1.,0.,0.));
#1177=DIRECTION('center_axis',(0.,0.,-1.));
#1178=DIRECTION('ref_axis',(-1.,0.,0.));
#1179=DIRECTION('',(-1.,0.,0.));
#1180=DIRECTION('',(0.,-1.,0.));
#1181=DIRECTION('',(1.,0.,0.));
#1182=DIRECTION('',(0.,1.,0.));
#1183=DIRECTION('center_axis',(0.,0.,-1.));
#1184=DIRECTION('ref_axis',(-1.,0.,0.));
#1185=DIRECTION('',(-1.,-5.82794238648376E-17,0.));
#1186=DIRECTION('',(0.,-1.,0.));
#1187=DIRECTION('',(1.,0.,0.));
#1188=DIRECTION('',(0.,1.,0.));
#1189=DIRECTION('',(-1.,0.,0.));
#1190=DIRECTION('',(0.,-1.,0.));
#1191=DIRECTION('',(1.,0.,0.));
#1192=DIRECTION('',(0.,1.,0.));
#1193=DIRECTION('center_axis',(0.,0.,-1.));
#1194=DIRECTION('ref_axis',(-1.,0.,0.));
#1195=DIRECTION('',(-1.,0.,0.));
#1196=DIRECTION('',(0.,-1.,0.));
#1197=DIRECTION('',(1.,0.,0.));
#1198=DIRECTION('',(0.,1.,0.));
#1199=DIRECTION('center_axis',(0.,0.,-1.));
#1200=DIRECTION('ref_axis',(-1.,0.,0.));
#1201=DIRECTION('center_axis',(1.,0.,0.));
#1202=DIRECTION('ref_axis',(0.,1.,0.));
#1203=DIRECTION('center_axis',(0.,-1.,0.));
#1204=DIRECTION('ref_axis',(1.,0.,0.));
#1205=DIRECTION('center_axis',(-1.,-4.55476112666731E-17,0.));
#1206=DIRECTION('ref_axis',(4.55476112666731E-17,-1.,0.));
#1207=DIRECTION('center_axis',(-1.34572487833352E-16,1.,0.));
#1208=DIRECTION('ref_axis',(-1.,-1.34572487833352E-16,0.));
#1209=DIRECTION('center_axis',(0.,0.,1.));
#1210=DIRECTION('ref_axis',(-1.,0.,0.));
#1211=DIRECTION('',(0.,0.,-1.));
#1212=DIRECTION('center_axis',(-1.,0.,0.));
#1213=DIRECTION('ref_axis',(0.,-1.,0.));
#1214=DIRECTION('',(0.,0.,1.));
#1215=DIRECTION('',(0.,0.,1.));
#1216=DIRECTION('center_axis',(0.,-1.,0.));
#1217=DIRECTION('ref_axis',(1.,0.,0.));
#1218=DIRECTION('',(0.,0.,1.));
#1219=DIRECTION('center_axis',(1.,0.,0.));
#1220=DIRECTION('ref_axis',(0.,1.,0.));
#1221=DIRECTION('',(0.,0.,1.));
#1222=DIRECTION('center_axis',(0.,1.,0.));
#1223=DIRECTION('ref_axis',(-1.,0.,0.));
#1224=DIRECTION('center_axis',(0.,0.,1.));
#1225=DIRECTION('ref_axis',(-1.,0.,0.));
#1226=DIRECTION('',(0.,0.,-1.));
#1227=DIRECTION('center_axis',(0.,0.,1.));
#1228=DIRECTION('ref_axis',(-1.,0.,0.));
#1229=DIRECTION('',(0.,0.,-1.));
#1230=DIRECTION('center_axis',(0.,0.,1.));
#1231=DIRECTION('ref_axis',(-1.,0.,0.));
#1232=DIRECTION('',(0.,0.,-1.));
#1233=DIRECTION('center_axis',(0.,0.,1.));
#1234=DIRECTION('ref_axis',(-1.,0.,0.));
#1235=DIRECTION('',(0.,0.,-1.));
#1236=DIRECTION('center_axis',(-1.,0.,0.));
#1237=DIRECTION('ref_axis',(0.,-1.,0.));
#1238=DIRECTION('',(0.,0.,1.));
#1239=DIRECTION('',(0.,0.,1.));
#1240=DIRECTION('center_axis',(0.,-1.,0.));
#1241=DIRECTION('ref_axis',(1.,0.,0.));
#1242=DIRECTION('',(0.,0.,1.));
#1243=DIRECTION('center_axis',(1.,0.,0.));
#1244=DIRECTION('ref_axis',(0.,1.,0.));
#1245=DIRECTION('',(0.,0.,1.));
#1246=DIRECTION('center_axis',(0.,1.,0.));
#1247=DIRECTION('ref_axis',(-1.,0.,0.));
#1248=DIRECTION('center_axis',(0.,0.,1.));
#1249=DIRECTION('ref_axis',(-1.,0.,0.));
#1250=DIRECTION('',(0.,0.,-1.));
#1251=DIRECTION('center_axis',(-1.,0.,0.));
#1252=DIRECTION('ref_axis',(0.,-1.,0.));
#1253=DIRECTION('',(0.,0.,1.));
#1254=DIRECTION('',(0.,0.,1.));
#1255=DIRECTION('center_axis',(0.,-1.,0.));
#1256=DIRECTION('ref_axis',(1.,0.,0.));
#1257=DIRECTION('',(0.,0.,1.));
#1258=DIRECTION('center_axis',(1.,0.,0.));
#1259=DIRECTION('ref_axis',(0.,1.,0.));
#1260=DIRECTION('',(0.,0.,1.));
#1261=DIRECTION('center_axis',(-5.82794238648376E-17,1.,0.));
#1262=DIRECTION('ref_axis',(-1.,-5.82794238648376E-17,0.));
#1263=DIRECTION('center_axis',(-1.,0.,0.));
#1264=DIRECTION('ref_axis',(0.,-1.,0.));
#1265=DIRECTION('',(0.,0.,1.));
#1266=DIRECTION('',(0.,0.,1.));
#1267=DIRECTION('center_axis',(0.,-1.,0.));
#1268=DIRECTION('ref_axis',(1.,0.,0.));
#1269=DIRECTION('',(0.,0.,1.));
#1270=DIRECTION('center_axis',(1.,0.,0.));
#1271=DIRECTION('ref_axis',(0.,1.,0.));
#1272=DIRECTION('',(0.,0.,1.));
#1273=DIRECTION('center_axis',(0.,1.,0.));
#1274=DIRECTION('ref_axis',(-1.,0.,0.));
#1275=DIRECTION('center_axis',(0.,0.,1.));
#1276=DIRECTION('ref_axis',(-1.,0.,0.));
#1277=DIRECTION('',(0.,0.,-1.));
#1278=DIRECTION('center_axis',(0.,0.,1.));
#1279=DIRECTION('ref_axis',(-1.,0.,0.));
#1280=DIRECTION('',(0.,0.,-1.));
#1281=DIRECTION('center_axis',(-1.,0.,0.));
#1282=DIRECTION('ref_axis',(0.,-1.,0.));
#1283=DIRECTION('',(0.,0.,1.));
#1284=DIRECTION('',(0.,0.,1.));
#1285=DIRECTION('center_axis',(0.,-1.,0.));
#1286=DIRECTION('ref_axis',(1.,0.,0.));
#1287=DIRECTION('',(0.,0.,1.));
#1288=DIRECTION('center_axis',(1.,0.,0.));
#1289=DIRECTION('ref_axis',(0.,1.,0.));
#1290=DIRECTION('',(0.,0.,1.));
#1291=DIRECTION('center_axis',(0.,1.,0.));
#1292=DIRECTION('ref_axis',(-1.,0.,0.));
#1293=DIRECTION('center_axis',(0.,0.,1.));
#1294=DIRECTION('ref_axis',(-1.,0.,0.));
#1295=DIRECTION('',(0.,0.,-1.));
#1296=DIRECTION('center_axis',(0.,0.,1.));
#1297=DIRECTION('ref_axis',(-1.,0.,0.));
#1298=DIRECTION('',(0.,0.,-1.));
#1299=CARTESIAN_POINT('',(0.,0.,0.));
#1300=CARTESIAN_POINT('Origin',(-89.9999999967044,-62.4999997317791,-1.3));
#1301=CARTESIAN_POINT('',(-92.4999999967044,-62.4999997317791,-2.55));
#1302=CARTESIAN_POINT('Origin',(-89.9999999967044,-62.4999997317791,-2.55));
#1303=CARTESIAN_POINT('',(-92.4999999967044,-62.4999997317791,-1.3));
#1304=CARTESIAN_POINT('',(-92.4999999967044,-62.4999997317791,-1.3));
#1305=CARTESIAN_POINT('Origin',(-89.9999999967044,-62.4999997317791,-1.3));
#1306=CARTESIAN_POINT('Origin',(-89.9999999967044,-62.4999997317791,-2.55));
#1307=CARTESIAN_POINT('',(-88.9374999967044,-62.4999997317791,-2.55));
#1308=CARTESIAN_POINT('Origin',(-89.9999999967044,-62.4999997317791,-2.55));
#1309=CARTESIAN_POINT('Origin',(-36.9999999967044,21.5000002682209,-1.3));
#1310=CARTESIAN_POINT('',(-39.4999996215388,21.5000002682209,-2.55));
#1311=CARTESIAN_POINT('Origin',(-36.9999999967044,21.5000002682209,-2.55));
#1312=CARTESIAN_POINT('',(-39.4999996215388,21.5000002682209,-1.3));
#1313=CARTESIAN_POINT('',(-39.4999996215388,21.5000002682209,-1.3));
#1314=CARTESIAN_POINT('Origin',(-36.9999999967044,21.5000002682209,-1.3));
#1315=CARTESIAN_POINT('Origin',(-36.9999999967044,21.5000002682209,-2.55));
#1316=CARTESIAN_POINT('',(-35.9374999967044,21.5000002682209,-2.55));
#1317=CARTESIAN_POINT('Origin',(-36.9999999967044,21.5000002682209,-2.55));
#1318=CARTESIAN_POINT('Origin',(-36.9999999967044,-62.4999997317791,-1.3));
#1319=CARTESIAN_POINT('',(-39.5000012770579,-62.4999997317791,-2.55));
#1320=CARTESIAN_POINT('Origin',(-36.9999999967044,-62.4999997317791,-2.55));
#1321=CARTESIAN_POINT('',(-39.5000012770579,-62.4999997317791,-1.3));
#1322=CARTESIAN_POINT('',(-39.5000012770579,-62.4999997317791,-1.3));
#1323=CARTESIAN_POINT('Origin',(-36.9999999967044,-62.4999997317791,-1.3));
#1324=CARTESIAN_POINT('Origin',(-36.9999999967044,-62.4999997317791,-2.55));
#1325=CARTESIAN_POINT('',(-35.9374999967044,-62.4999997317791,-2.55));
#1326=CARTESIAN_POINT('Origin',(-36.9999999967044,-62.4999997317791,-2.55));
#1327=CARTESIAN_POINT('Origin',(-89.9999999967044,21.5000002682209,-1.3));
#1328=CARTESIAN_POINT('',(-92.4999999967044,21.5000002682209,-2.55));
#1329=CARTESIAN_POINT('Origin',(-89.9999999967044,21.5000002682209,-2.55));
#1330=CARTESIAN_POINT('',(-92.4999999967044,21.5000002682209,-1.3));
#1331=CARTESIAN_POINT('',(-92.4999999967044,21.5000002682209,-1.3));
#1332=CARTESIAN_POINT('Origin',(-89.9999999967044,21.5000002682209,-1.3));
#1333=CARTESIAN_POINT('Origin',(-89.9999999967044,21.5000002682209,-2.55));
#1334=CARTESIAN_POINT('',(-88.9374999967044,21.5000002682209,-2.55));
#1335=CARTESIAN_POINT('Origin',(-89.9999999967044,21.5000002682209,-2.55));
#1336=CARTESIAN_POINT('Origin',(-86.4999999967043,18.0000002682209,0.699999999999998));
#1337=CARTESIAN_POINT('',(-96.4999999967043,18.0000002682209,-1.3));
#1338=CARTESIAN_POINT('',(-86.4999999967043,28.0000002682209,-1.3));
#1339=CARTESIAN_POINT('Origin',(-86.4999999967043,18.0000002682209,-1.3));
#1340=CARTESIAN_POINT('',(-96.4999999967043,18.0000002682209,0.699999999999998));
#1341=CARTESIAN_POINT('',(-96.4999999967043,18.0000002682209,0.699999999999998));
#1342=CARTESIAN_POINT('',(-86.4999999967043,28.0000002682209,0.699999999999998));
#1343=CARTESIAN_POINT('Origin',(-86.4999999967043,18.0000002682209,0.699999999999998));
#1344=CARTESIAN_POINT('',(-86.4999999967043,28.0000002682209,0.699999999999998));
#1345=CARTESIAN_POINT('Origin',(-40.4999999967043,-59.4999997317791,0.699999999999998));
#1346=CARTESIAN_POINT('',(-30.4999999967044,-59.4999997317791,-1.3));
#1347=CARTESIAN_POINT('',(-40.4999999967043,-69.4999997317791,-1.3));
#1348=CARTESIAN_POINT('Origin',(-40.4999999967043,-59.4999997317791,-1.3));
#1349=CARTESIAN_POINT('',(-30.4999999967044,-59.4999997317791,0.699999999999998));
#1350=CARTESIAN_POINT('',(-30.4999999967044,-59.4999997317791,0.699999999999998));
#1351=CARTESIAN_POINT('',(-40.4999999967043,-69.4999997317791,0.699999999999998));
#1352=CARTESIAN_POINT('Origin',(-40.4999999967043,-59.4999997317791,0.699999999999998));
#1353=CARTESIAN_POINT('',(-40.4999999967043,-69.4999997317791,0.699999999999998));
#1354=CARTESIAN_POINT('Origin',(-86.4999999967043,-59.4999997317791,0.699999999999998));
#1355=CARTESIAN_POINT('',(-86.4999999967043,-69.4999997317791,-1.3));
#1356=CARTESIAN_POINT('',(-96.4999999967043,-59.4999997317791,-1.3));
#1357=CARTESIAN_POINT('Origin',(-86.4999999967043,-59.4999997317791,-1.3));
#1358=CARTESIAN_POINT('',(-86.4999999967043,-69.4999997317791,0.699999999999998));
#1359=CARTESIAN_POINT('',(-86.4999999967043,-69.4999997317791,0.699999999999998));
#1360=CARTESIAN_POINT('',(-96.4999999967043,-59.4999997317791,0.699999999999998));
#1361=CARTESIAN_POINT('Origin',(-86.4999999967043,-59.4999997317791,0.699999999999998));
#1362=CARTESIAN_POINT('',(-96.4999999967043,-59.4999997317791,0.699999999999998));
#1363=CARTESIAN_POINT('Origin',(-40.4999999967043,18.0000002682209,0.699999999999998));
#1364=CARTESIAN_POINT('',(-40.4999999967043,28.0000002682209,-1.3));
#1365=CARTESIAN_POINT('',(-30.4999999967044,18.0000002682209,-1.3));
#1366=CARTESIAN_POINT('Origin',(-40.4999999967043,18.0000002682209,-1.3));
#1367=CARTESIAN_POINT('',(-40.4999999967043,28.0000002682209,0.699999999999998));
#1368=CARTESIAN_POINT('',(-40.4999999967043,28.0000002682209,0.699999999999998));
#1369=CARTESIAN_POINT('',(-30.4999999967044,18.0000002682209,0.699999999999998));
#1370=CARTESIAN_POINT('Origin',(-40.4999999967043,18.0000002682209,0.699999999999998));
#1371=CARTESIAN_POINT('',(-30.4999999967044,18.0000002682209,0.699999999999998));
#1372=CARTESIAN_POINT('Origin',(-63.4999999967043,-20.4999997317791,0.699999999999998));
#1373=CARTESIAN_POINT('',(-96.4999999967043,-69.4999997317791,0.699999999999998));
#1374=CARTESIAN_POINT('',(-30.4999999967044,-69.4999997317791,0.699999999999998));
#1375=CARTESIAN_POINT('',(-30.4999999967044,28.0000002682209,0.699999999999998));
#1376=CARTESIAN_POINT('',(-96.4999999967043,28.0000002682209,0.699999999999998));
#1377=CARTESIAN_POINT('',(-44.7499999967044,-27.9749997317791,0.699999999999998));
#1378=CARTESIAN_POINT('Origin',(-47.2499999967044,-27.9749997317791,0.699999999999998));
#1379=CARTESIAN_POINT('',(-56.5149999967043,-37.0149997317791,0.699999999999998));
#1380=CARTESIAN_POINT('',(-70.5149999967044,-37.0149997317791,0.699999999999998));
#1381=CARTESIAN_POINT('',(-56.5149999967044,-37.0149997317791,0.699999999999998));
#1382=CARTESIAN_POINT('',(-70.5149999967044,-23.0149997317791,0.699999999999998));
#1383=CARTESIAN_POINT('',(-70.5149999967044,-37.0149997317791,0.699999999999998));
#1384=CARTESIAN_POINT('',(-56.5149999967043,-23.0149997317791,0.699999999999998));
#1385=CARTESIAN_POINT('',(-70.5149999967044,-23.0149997317791,0.699999999999998));
#1386=CARTESIAN_POINT('',(-56.5149999967044,-23.0149997317791,0.699999999999998));
#1387=CARTESIAN_POINT('',(-77.2499999967044,-27.9749997317791,0.699999999999998));
#1388=CARTESIAN_POINT('Origin',(-79.7499999967044,-27.9749997317791,0.699999999999998));
#1389=CARTESIAN_POINT('',(-37.1249999967044,-20.6999997317791,0.699999999999998));
#1390=CARTESIAN_POINT('Origin',(-39.6249999967044,-20.6999997317791,0.699999999999998));
#1391=CARTESIAN_POINT('',(-88.9374999967044,21.5000002682209,0.699999999999998));
#1392=CARTESIAN_POINT('Origin',(-89.9999999967044,21.5000002682209,0.699999999999998));
#1393=CARTESIAN_POINT('',(-88.9374999967044,-62.4999997317791,0.699999999999998));
#1394=CARTESIAN_POINT('Origin',(-89.9999999967044,-62.4999997317791,0.699999999999998));
#1395=CARTESIAN_POINT('',(-75.5499999967044,-56.0649997317791,0.699999999999998));
#1396=CARTESIAN_POINT('',(-89.5499999967043,-56.0649997317791,0.699999999999998));
#1397=CARTESIAN_POINT('',(-75.5499999967044,-56.0649997317791,0.699999999999998));
#1398=CARTESIAN_POINT('',(-89.5499999967043,-42.0649997317791,0.699999999999998));
#1399=CARTESIAN_POINT('',(-89.5499999967043,-56.0649997317791,0.699999999999998));
#1400=CARTESIAN_POINT('',(-75.5499999967044,-42.0649997317791,0.699999999999998));
#1401=CARTESIAN_POINT('',(-89.5499999967043,-42.0649997317791,0.699999999999998));
#1402=CARTESIAN_POINT('',(-75.5499999967044,-42.0649997317791,0.699999999999998));
#1403=CARTESIAN_POINT('',(-84.8749999967044,-35.3999997317791,0.699999999999998));
#1404=CARTESIAN_POINT('Origin',(-87.3749999967044,-35.3999997317791,0.699999999999998));
#1405=CARTESIAN_POINT('',(-44.4499999967044,-15.9999997317791,0.699999999999998));
#1406=CARTESIAN_POINT('',(-82.5499999967044,-15.9999997317791,0.699999999999998));
#1407=CARTESIAN_POINT('',(-44.4499999967044,-15.9999997317791,0.699999999999998));
#1408=CARTESIAN_POINT('',(-82.5499999967044,22.5000002682209,0.699999999999998));
#1409=CARTESIAN_POINT('',(-82.5499999967044,-15.9999997317791,0.699999999999998));
#1410=CARTESIAN_POINT('',(-44.4499999967044,22.5000002682209,0.699999999999998));
#1411=CARTESIAN_POINT('',(-82.5499999967044,22.5000002682209,0.699999999999998));
#1412=CARTESIAN_POINT('',(-44.4499999967044,22.5000002682209,0.699999999999998));
#1413=CARTESIAN_POINT('',(-37.4499999967044,-56.0649997317791,0.699999999999998));
#1414=CARTESIAN_POINT('',(-51.4499999967044,-56.0649997317791,0.699999999999998));
#1415=CARTESIAN_POINT('',(-37.4499999967044,-56.0649997317791,0.699999999999998));
#1416=CARTESIAN_POINT('',(-51.4499999967044,-42.0649997317791,0.699999999999998));
#1417=CARTESIAN_POINT('',(-51.4499999967044,-56.0649997317791,0.699999999999998));
#1418=CARTESIAN_POINT('',(-37.4499999967044,-42.0649997317791,0.699999999999998));
#1419=CARTESIAN_POINT('',(-51.4499999967044,-42.0649997317791,0.699999999999998));
#1420=CARTESIAN_POINT('',(-37.4499999967044,-42.0649997317791,0.699999999999998));
#1421=CARTESIAN_POINT('',(-35.9374999967044,-62.4999997317791,0.699999999999998));
#1422=CARTESIAN_POINT('Origin',(-36.9999999967044,-62.4999997317791,0.699999999999998));
#1423=CARTESIAN_POINT('',(-37.1249999967044,-35.3999997317791,0.699999999999998));
#1424=CARTESIAN_POINT('Origin',(-39.6249999967044,-35.3999997317791,0.699999999999998));
#1425=CARTESIAN_POINT('',(-56.4999999967044,-56.0649997317791,0.699999999999998));
#1426=CARTESIAN_POINT('',(-70.4999999967044,-56.0649997317791,0.699999999999998));
#1427=CARTESIAN_POINT('',(-56.4999999967044,-56.0649997317791,0.699999999999998));
#1428=CARTESIAN_POINT('',(-70.4999999967044,-42.0649997317791,0.699999999999998));
#1429=CARTESIAN_POINT('',(-70.4999999967044,-56.0649997317791,0.699999999999998));
#1430=CARTESIAN_POINT('',(-56.4999999967044,-42.0649997317791,0.699999999999998));
#1431=CARTESIAN_POINT('',(-70.4999999967044,-42.0649997317791,0.699999999999998));
#1432=CARTESIAN_POINT('',(-56.4999999967044,-42.0649997317791,0.699999999999998));
#1433=CARTESIAN_POINT('',(-84.8749999967044,-20.6999997317791,0.699999999999998));
#1434=CARTESIAN_POINT('Origin',(-87.3749999967044,-20.6999997317791,0.699999999999998));
#1435=CARTESIAN_POINT('',(-35.9374999967044,21.5000002682209,0.699999999999998));
#1436=CARTESIAN_POINT('Origin',(-36.9999999967044,21.5000002682209,0.699999999999998));
#1437=CARTESIAN_POINT('Origin',(-63.4999999967043,-20.4999997317791,-1.3));
#1438=CARTESIAN_POINT('',(-96.4999999967043,28.0000002682209,-1.3));
#1439=CARTESIAN_POINT('',(-30.4999999967044,28.0000002682209,-1.3));
#1440=CARTESIAN_POINT('',(-30.4999999967044,-69.4999997317791,-1.3));
#1441=CARTESIAN_POINT('',(-96.4999999967043,-69.4999997317791,-1.3));
#1442=CARTESIAN_POINT('',(-44.7499999967044,-27.9749997317791,-1.3));
#1443=CARTESIAN_POINT('Origin',(-47.2499999967044,-27.9749997317791,-1.3));
#1444=CARTESIAN_POINT('',(-56.5149999967044,-37.0149997317791,-1.3));
#1445=CARTESIAN_POINT('',(-70.5149999967044,-37.0149997317791,-1.3));
#1446=CARTESIAN_POINT('',(-56.5149999967044,-37.0149997317791,-1.3));
#1447=CARTESIAN_POINT('',(-56.5149999967044,-23.0149997317791,-1.3));
#1448=CARTESIAN_POINT('',(-56.5149999967044,-23.0149997317791,-1.3));
#1449=CARTESIAN_POINT('',(-70.5149999967044,-23.0149997317791,-1.3));
#1450=CARTESIAN_POINT('',(-70.5149999967044,-23.0149997317791,-1.3));
#1451=CARTESIAN_POINT('',(-70.5149999967044,-37.0149997317791,-1.3));
#1452=CARTESIAN_POINT('',(-77.2499999967044,-27.9749997317791,-1.3));
#1453=CARTESIAN_POINT('Origin',(-79.7499999967044,-27.9749997317791,-1.3));
#1454=CARTESIAN_POINT('',(-37.1249999967044,-20.6999997317791,-1.3));
#1455=CARTESIAN_POINT('Origin',(-39.6249999967044,-20.6999997317791,-1.3));
#1456=CARTESIAN_POINT('',(-75.5499999967044,-56.0649997317791,-1.3));
#1457=CARTESIAN_POINT('',(-89.5499999967043,-56.0649997317791,-1.3));
#1458=CARTESIAN_POINT('',(-75.5499999967044,-56.0649997317791,-1.3));
#1459=CARTESIAN_POINT('',(-75.5499999967044,-42.0649997317791,-1.3));
#1460=CARTESIAN_POINT('',(-75.5499999967044,-42.0649997317791,-1.3));
#1461=CARTESIAN_POINT('',(-89.5499999967043,-42.0649997317791,-1.3));
#1462=CARTESIAN_POINT('',(-89.5499999967043,-42.0649997317791,-1.3));
#1463=CARTESIAN_POINT('',(-89.5499999967043,-56.0649997317791,-1.3));
#1464=CARTESIAN_POINT('',(-84.8749999967044,-35.3999997317791,-1.3));
#1465=CARTESIAN_POINT('Origin',(-87.3749999967044,-35.3999997317791,-1.3));
#1466=CARTESIAN_POINT('',(-44.4499999967044,-15.9999997317791,-1.3));
#1467=CARTESIAN_POINT('',(-82.5499999967044,-15.9999997317791,-1.3));
#1468=CARTESIAN_POINT('',(-44.4499999967044,-15.9999997317791,-1.3));
#1469=CARTESIAN_POINT('',(-44.4499999967044,22.5000002682209,-1.3));
#1470=CARTESIAN_POINT('',(-44.4499999967044,22.5000002682209,-1.3));
#1471=CARTESIAN_POINT('',(-82.5499999967044,22.5000002682209,-1.3));
#1472=CARTESIAN_POINT('',(-82.5499999967044,22.5000002682209,-1.3));
#1473=CARTESIAN_POINT('',(-82.5499999967044,-15.9999997317791,-1.3));
#1474=CARTESIAN_POINT('',(-37.4499999967044,-56.0649997317791,-1.3));
#1475=CARTESIAN_POINT('',(-51.4499999967044,-56.0649997317791,-1.3));
#1476=CARTESIAN_POINT('',(-37.4499999967044,-56.0649997317791,-1.3));
#1477=CARTESIAN_POINT('',(-37.4499999967044,-42.0649997317791,-1.3));
#1478=CARTESIAN_POINT('',(-37.4499999967044,-42.0649997317791,-1.3));
#1479=CARTESIAN_POINT('',(-51.4499999967044,-42.0649997317791,-1.3));
#1480=CARTESIAN_POINT('',(-51.4499999967044,-42.0649997317791,-1.3));
#1481=CARTESIAN_POINT('',(-51.4499999967044,-56.0649997317791,-1.3));
#1482=CARTESIAN_POINT('',(-37.1249999967044,-35.3999997317791,-1.3));
#1483=CARTESIAN_POINT('Origin',(-39.6249999967044,-35.3999997317791,-1.3));
#1484=CARTESIAN_POINT('',(-56.4999999967044,-56.0649997317791,-1.3));
#1485=CARTESIAN_POINT('',(-70.4999999967044,-56.0649997317791,-1.3));
#1486=CARTESIAN_POINT('',(-56.4999999967044,-56.0649997317791,-1.3));
#1487=CARTESIAN_POINT('',(-56.4999999967044,-42.0649997317791,-1.3));
#1488=CARTESIAN_POINT('',(-56.4999999967044,-42.0649997317791,-1.3));
#1489=CARTESIAN_POINT('',(-70.4999999967044,-42.0649997317791,-1.3));
#1490=CARTESIAN_POINT('',(-70.4999999967044,-42.0649997317791,-1.3));
#1491=CARTESIAN_POINT('',(-70.4999999967044,-56.0649997317791,-1.3));
#1492=CARTESIAN_POINT('',(-84.8749999967044,-20.6999997317791,-1.3));
#1493=CARTESIAN_POINT('Origin',(-87.3749999967044,-20.6999997317791,-1.3));
#1494=CARTESIAN_POINT('Origin',(-30.4999999967044,-69.4999997317791,-1.3));
#1495=CARTESIAN_POINT('Origin',(-96.4999999967043,-69.4999997317791,-1.3));
#1496=CARTESIAN_POINT('Origin',(-96.4999999967043,28.0000002682209,-1.3));
#1497=CARTESIAN_POINT('Origin',(-30.4999999967044,28.0000002682209,-1.3));
#1498=CARTESIAN_POINT('Origin',(-47.2499999967044,-27.9749997317791,-1.3));
#1499=CARTESIAN_POINT('',(-44.7499999967044,-27.9749997317791,-1.3));
#1500=CARTESIAN_POINT('Origin',(-56.5149999967044,-23.0149997317791,-1.3));
#1501=CARTESIAN_POINT('',(-56.5149999967044,-37.0149997317791,-1.3));
#1502=CARTESIAN_POINT('',(-56.5149999967044,-23.0149997317791,-1.3));
#1503=CARTESIAN_POINT('Origin',(-70.5149999967044,-23.0149997317791,-1.3));
#1504=CARTESIAN_POINT('',(-70.5149999967044,-23.0149997317791,-1.3));
#1505=CARTESIAN_POINT('Origin',(-70.5149999967044,-37.0149997317791,-1.3));
#1506=CARTESIAN_POINT('',(-70.5149999967044,-37.0149997317791,-1.3));
#1507=CARTESIAN_POINT('Origin',(-56.5149999967044,-37.0149997317791,-1.3));
#1508=CARTESIAN_POINT('Origin',(-79.7499999967044,-27.9749997317791,-1.3));
#1509=CARTESIAN_POINT('',(-77.2499999967044,-27.9749997317791,-1.3));
#1510=CARTESIAN_POINT('Origin',(-39.6249999967044,-20.6999997317791,-1.3));
#1511=CARTESIAN_POINT('',(-37.1249999967044,-20.6999997317791,-1.3));
#1512=CARTESIAN_POINT('Origin',(-89.9999999967044,21.5000002682209,-1.3));
#1513=CARTESIAN_POINT('',(-88.9374999967044,21.5000002682209,-1.3));
#1514=CARTESIAN_POINT('Origin',(-89.9999999967044,-62.4999997317791,-1.3));
#1515=CARTESIAN_POINT('',(-88.9374999967044,-62.4999997317791,-1.3));
#1516=CARTESIAN_POINT('Origin',(-75.5499999967044,-42.0649997317791,-1.3));
#1517=CARTESIAN_POINT('',(-75.5499999967044,-56.0649997317791,-1.3));
#1518=CARTESIAN_POINT('',(-75.5499999967044,-42.0649997317791,-1.3));
#1519=CARTESIAN_POINT('Origin',(-89.5499999967043,-42.0649997317791,-1.3));
#1520=CARTESIAN_POINT('',(-89.5499999967043,-42.0649997317791,-1.3));
#1521=CARTESIAN_POINT('Origin',(-89.5499999967043,-56.0649997317791,-1.3));
#1522=CARTESIAN_POINT('',(-89.5499999967043,-56.0649997317791,-1.3));
#1523=CARTESIAN_POINT('Origin',(-75.5499999967044,-56.0649997317791,-1.3));
#1524=CARTESIAN_POINT('Origin',(-87.3749999967044,-35.3999997317791,-1.3));
#1525=CARTESIAN_POINT('',(-84.8749999967044,-35.3999997317791,-1.3));
#1526=CARTESIAN_POINT('Origin',(-44.4499999967044,22.5000002682209,-1.3));
#1527=CARTESIAN_POINT('',(-44.4499999967044,-15.9999997317791,-1.3));
#1528=CARTESIAN_POINT('',(-44.4499999967044,22.5000002682209,-1.3));
#1529=CARTESIAN_POINT('Origin',(-82.5499999967044,22.5000002682209,-1.3));
#1530=CARTESIAN_POINT('',(-82.5499999967044,22.5000002682209,-1.3));
#1531=CARTESIAN_POINT('Origin',(-82.5499999967044,-15.9999997317791,-1.3));
#1532=CARTESIAN_POINT('',(-82.5499999967044,-15.9999997317791,-1.3));
#1533=CARTESIAN_POINT('Origin',(-44.4499999967044,-15.9999997317791,-1.3));
#1534=CARTESIAN_POINT('Origin',(-37.4499999967044,-42.0649997317791,-1.3));
#1535=CARTESIAN_POINT('',(-37.4499999967044,-56.0649997317791,-1.3));
#1536=CARTESIAN_POINT('',(-37.4499999967044,-42.0649997317791,-1.3));
#1537=CARTESIAN_POINT('Origin',(-51.4499999967044,-42.0649997317791,-1.3));
#1538=CARTESIAN_POINT('',(-51.4499999967044,-42.0649997317791,-1.3));
#1539=CARTESIAN_POINT('Origin',(-51.4499999967044,-56.0649997317791,-1.3));
#1540=CARTESIAN_POINT('',(-51.4499999967044,-56.0649997317791,-1.3));
#1541=CARTESIAN_POINT('Origin',(-37.4499999967044,-56.0649997317791,-1.3));
#1542=CARTESIAN_POINT('Origin',(-36.9999999967044,-62.4999997317791,-1.3));
#1543=CARTESIAN_POINT('',(-35.9374999967044,-62.4999997317791,-1.3));
#1544=CARTESIAN_POINT('Origin',(-39.6249999967044,-35.3999997317791,-1.3));
#1545=CARTESIAN_POINT('',(-37.1249999967044,-35.3999997317791,-1.3));
#1546=CARTESIAN_POINT('Origin',(-56.4999999967044,-42.0649997317791,-1.3));
#1547=CARTESIAN_POINT('',(-56.4999999967044,-56.0649997317791,-1.3));
#1548=CARTESIAN_POINT('',(-56.4999999967044,-42.0649997317791,-1.3));
#1549=CARTESIAN_POINT('Origin',(-70.4999999967044,-42.0649997317791,-1.3));
#1550=CARTESIAN_POINT('',(-70.4999999967044,-42.0649997317791,-1.3));
#1551=CARTESIAN_POINT('Origin',(-70.4999999967044,-56.0649997317791,-1.3));
#1552=CARTESIAN_POINT('',(-70.4999999967044,-56.0649997317791,-1.3));
#1553=CARTESIAN_POINT('Origin',(-56.4999999967044,-56.0649997317791,-1.3));
#1554=CARTESIAN_POINT('Origin',(-87.3749999967044,-20.6999997317791,-1.3));
#1555=CARTESIAN_POINT('',(-84.8749999967044,-20.6999997317791,-1.3));
#1556=CARTESIAN_POINT('Origin',(-36.9999999967044,21.5000002682209,-1.3));
#1557=CARTESIAN_POINT('',(-35.9374999967044,21.5000002682209,-1.3));
#1558=UNCERTAINTY_MEASURE_WITH_UNIT(LENGTH_MEASURE(0.01),#1562,
'DISTANCE_ACCURACY_VALUE',
'Maximum model space distance between geometric entities at asserted c
onnectivities');
#1559=UNCERTAINTY_MEASURE_WITH_UNIT(LENGTH_MEASURE(0.01),#1562,
'DISTANCE_ACCURACY_VALUE',
'Maximum model space distance between geometric entities at asserted c
onnectivities');
#1560=(
GEOMETRIC_REPRESENTATION_CONTEXT(3)
GLOBAL_UNCERTAINTY_ASSIGNED_CONTEXT((#1558))
GLOBAL_UNIT_ASSIGNED_CONTEXT((#1562,#1563,#1564))
REPRESENTATION_CONTEXT('','3D')
);
#1561=(
GEOMETRIC_REPRESENTATION_CONTEXT(3)
GLOBAL_UNCERTAINTY_ASSIGNED_CONTEXT((#1559))
GLOBAL_UNIT_ASSIGNED_CONTEXT((#1562,#1563,#1564))
REPRESENTATION_CONTEXT('','3D')
);
#1562=(
LENGTH_UNIT()
NAMED_UNIT(*)
SI_UNIT(.MILLI.,.METRE.)
);
#1563=(
NAMED_UNIT(*)
PLANE_ANGLE_UNIT()
SI_UNIT($,.RADIAN.)
);
#1564=(
NAMED_UNIT(*)
SI_UNIT($,.STERADIAN.)
SOLID_ANGLE_UNIT()
);
#1565=SHAPE_DEFINITION_REPRESENTATION(#1566,#1567);
#1566=PRODUCT_DEFINITION_SHAPE('',$,#1569);
#1567=SHAPE_REPRESENTATION('',(#954),#1560);
#1568=PRODUCT_DEFINITION_CONTEXT('part definition',#1573,'design');
#1569=PRODUCT_DEFINITION('2026-08-07-23-02-26-632','3D HACK-PAD',#1570,
#1568);
#1570=PRODUCT_DEFINITION_FORMATION('',$,#1575);
#1571=PRODUCT_RELATED_PRODUCT_CATEGORY('3D HACK-PAD','3D HACK-PAD',(#1575));
#1572=APPLICATION_PROTOCOL_DEFINITION('international standard',
'automotive_design',2009,#1573);
#1573=APPLICATION_CONTEXT(
'Core Data for Automotive Mechanical Design Process');
#1574=PRODUCT_CONTEXT('part definition',#1573,'mechanical');
#1575=PRODUCT('2026-08-07-23-02-26-632','3D HACK-PAD',
'KiCad electronic assembly',(#1574));
#1576=PRESENTATION_STYLE_ASSIGNMENT((#1579));
#1577=PRESENTATION_STYLE_ASSIGNMENT((#1580));
#1578=PRESENTATION_STYLE_ASSIGNMENT((#1581));
#1579=SURFACE_STYLE_USAGE(.BOTH.,#1582);
#1580=SURFACE_STYLE_USAGE(.BOTH.,#1583);
#1581=SURFACE_STYLE_USAGE(.BOTH.,#1584);
#1582=SURFACE_SIDE_STYLE('',(#1585));
#1583=SURFACE_SIDE_STYLE('',(#1586));
#1584=SURFACE_SIDE_STYLE('',(#1587));
#1585=SURFACE_STYLE_FILL_AREA(#1588);
#1586=SURFACE_STYLE_FILL_AREA(#1589);
#1587=SURFACE_STYLE_FILL_AREA(#1590);
#1588=FILL_AREA_STYLE('Steel - Satin',(#1591));
#1589=FILL_AREA_STYLE('Opaque(64,64,64)',(#1592));
#1590=FILL_AREA_STYLE('Powder Coat - Rough (Red)',(#1593));
#1591=FILL_AREA_STYLE_COLOUR('Steel - Satin',#1594);
#1592=FILL_AREA_STYLE_COLOUR('Opaque(64,64,64)',#1595);
#1593=FILL_AREA_STYLE_COLOUR('Powder Coat - Rough (Red)',#1596);
#1594=COLOUR_RGB('Steel - Satin',0.627450980392157,0.627450980392157,0.627450980392157);
#1595=COLOUR_RGB('Opaque(64,64,64)',0.250980392156863,0.250980392156863,
0.250980392156863);
#1596=COLOUR_RGB('Powder Coat - Rough (Red)',0.768627450980392,0.207843137254902,
0.152941176470588);
ENDSEC;
END-ISO-10303-21;
